{"accessors":[{"bufferView":0,"byteOffset":0,"componentType":5126,"count":600,"max":[18.56497595954993,2.735,-1.73502404045007],"min":[17.43502404045007,2.3168781629982,-2.8649759595499296],"type":"VEC3"},{"bufferView":1,"byteOffset":0,"componentType":5125,"count":3312,"type":"SCALAR"},{"bufferView":2,"byteOffset":0,"componentType":5126,"count":600,"max":[18.56497595954993,-2.3158999999999996,-1.73502404045007],"min":[17.43502404045007,-2.7340218370017997,-2.8649759595499296],"type":"VEC3"},{"bufferView":3,"byteOffset":0,"componentType":5125,"count":3312,"type":"SCALAR"},{"bufferView":4,"byteOffset":0,"componentType":5126,"count":600,"max":[18.56497595954993,3.4041,-1.73502404045007],"min":[17.43502404045007,2.9859781629982,-2.8649759595499296],"type":"VEC3"},{"bufferView":5,"byteOffset":0,"componentType":5125,"count":3312,"type":"SCALAR"},{"bufferView":6,"byteOffset":0,"componentType":5126,"count":600,"max":[18.56497595954993,-2.985,-1.73502404045007],"min":[17.43502404045007,-3.4031218370018,-2.8649759595499296],"type":"VEC3"},{"bufferView":7,"byteOffset":0,"componentType":5125,"count":3312,"type":"SCALAR"},{"bufferView":8,"byteOffset":0,"componentType":5126,"count":600,"max":[5.3428111282808155,-0.12499999999999999,-1.9571888717191845],"min":[4.6571888717191845,-0.3213905598038757,-2.642811128280815],"type":"VEC3"},{"bufferView":9,"byteOffset":0,"componentType":5125,"count":3312,"type":"SCALAR"},{"bufferView":10,"byteOffset":0,"componentType":5126,"count":600,"max":[5.3428111282808155,0.32184999999999997,-1.9571888717191845],"min":[4.6571888717191845,0.12545944019612426,-2.642811128280815],"type":"VEC3"},{"bufferView":11,"byteOffset":0,"componentType":5125,"count":3312,"type":"SCALAR"},{"bufferView":12,"byteOffset":0,"componentType":5126,"count":404,"max":[21.585850519478182,16.935,1.2776306917859246],"min":[11.725,0.0,-1.116557736922679],"type":"VEC3"},{"bufferView":13,"byteOffset":0,"componentType":5125,"count":1797,"type":"SCALAR"},{"bufferView":14,"byteOffset":0,"componentType":5126,"count":404,"max":[21.585850519478182,-0.0,1.2776306917859246],"min":[11.725,-16.935,-1.116557736922679],"type":"VEC3"},{"bufferView":15,"byteOffset":0,"componentType":5125,"count":1797,"type":"SCALAR"},{"bufferView":16,"byteOffset":0,"componentType":5126,"count":303,"max":[36.67274120676049,6.26,2.145065694584875],"min":[31.381,0.0,1.0219408317254288],"type":"VEC3"},{"bufferView":17,"byteOffset":0,"componentType":5125,"count":1200,"type":"SCALAR"},{"bufferView":18,"byteOffset":0,"componentType":5126,"count":303,"max":[36.67274120676049,-0.0,2.145065694584875],"min":[31.381,-6.26,1.0219408317254288],"type":"VEC3"},{"bufferView":19,"byteOffset":0,"componentType":5125,"count":1200,"type":"SCALAR"},{"bufferView":20,"byteOffset":0,"componentType":5126,"count":404,"max":[36.884984164260985,0.5138585632180748,8.544],"min":[28.665,-0.5138585632180748,2.324],"type":"VEC3"},{"bufferView":21,"byteOffset":0,"componentType":5125,"count":1806,"type":"SCALAR"},{"bufferView":22,"byteOffset":0,"componentType":5126,"count":1248,"max":[37.57,1.975,2.7382565789384885],"min":[0.0,-1.973920183248329,-1.4265186413344109],"type":"VEC3"},{"bufferView":23,"byteOffset":0,"componentType":5125,"count":6270,"type":"SCALAR"},{"bufferView":24,"byteOffset":0,"componentType":5126,"count":505,"max":[27.91451,1.87625,2.6454858999999997],"min":[2.6836251,-1.87625,0.0],"type":"VEC3"},{"bufferView":25,"byteOffset":0,"componentType":5125,"count":2400,"type":"SCALAR"},{"bufferView":26,"byteOffset":0,"componentType":5126,"count":128,"max":[9.40149974822998,1.4223999977111816,0.45719999074935913],"min":[6.0233001708984375,-1.4223999977111816,0.0],"type":"VEC3"},{"bufferView":27,"byteOffset":0,"componentType":5126,"count":128,"type":"VEC3"},{"bufferView":28,"byteOffset":0,"componentType":5125,"count":576,"type":"SCALAR"},{"bufferView":29,"byteOffset":0,"componentType":5126,"count":1008,"max":[28.26099967956543,1.930400013923645,0.45719999074935913],"min":[9.718999862670898,-1.930400013923645,0.0],"type":"VEC3"},{"bufferView":30,"byteOffset":0,"componentType":5126,"count":1008,"type":"VEC3"},{"bufferView":31,"byteOffset":0,"componentType":5125,"count":4536,"type":"SCALAR"},{"bufferView":32,"byteOffset":0,"componentType":5126,"count":96,"max":[14.443400382995605,1.930400013923645,0.45719999074935913],"min":[13.071800231933594,-1.930400013923645,0.0],"type":"VEC3"},{"bufferView":33,"byteOffset":0,"componentType":5126,"count":96,"type":"VEC3"},{"bufferView":34,"byteOffset":0,"componentType":5125,"count":432,"type":"SCALAR"},{"bufferView":35,"byteOffset":0,"componentType":5126,"count":80,"max":[29.25160026550293,1.930400013923645,0.45719999074935913],"min":[3.75,-1.930400013923645,0.0],"type":"VEC3"},{"bufferView":36,"byteOffset":0,"componentType":5126,"count":80,"type":"VEC3"},{"bufferView":37,"byteOffset":0,"componentType":5125,"count":360,"type":"SCALAR"},{"bufferView":38,"byteOffset":0,"componentType":5126,"count":4896,"max":[14.86,6.832610426806747,-0.24953756063369914],"min":[11.5,4.667981482496747,-2.4144624393663014],"type":"VEC3"},{"bufferView":39,"byteOffset":0,"componentType":5125,"count":28500,"type":"SCALAR"},{"bufferView":40,"byteOffset":0,"componentType":5126,"count":4896,"max":[14.86,-4.667389573193253,-0.24953756063369914],"min":[11.5,-6.832018517503253,-2.4144624393663014],"type":"VEC3"},{"bufferView":41,"byteOffset":0,"componentType":5125,"count":28500,"type":"SCALAR"},{"bufferView":42,"byteOffset":0,"componentType":5126,"count":303,"max":[17.756813253838082,6.469169999999999,0.39333857109185855],"min":[12.415576313676222,0.0,-1.116557736922679],"type":"VEC3"},{"bufferView":43,"byteOffset":0,"componentType":5125,"count":846,"type":"SCALAR"},{"bufferView":44,"byteOffset":0,"componentType":5126,"count":303,"max":[17.756813253838082,-0.0,0.39333857109185855],"min":[12.415576313676222,-6.469169999999999,-1.116557736922679],"type":"VEC3"},{"bufferView":45,"byteOffset":0,"componentType":5125,"count":846,"type":"SCALAR"},{"bufferView":46,"byteOffset":0,"componentType":5126,"count":303,"max":[20.933084396871557,16.935,1.2776306917859244],"min":[15.509741253838083,6.469169999999999,-0.07891998194772795],"type":"VEC3"},{"bufferView":47,"byteOffset":0,"componentType":5125,"count":831,"type":"SCALAR"},{"bufferView":48,"byteOffset":0,"componentType":5126,"count":303,"max":[20.933084396871557,-6.469169999999999,1.2776306917859244],"min":[15.509741253838083,-16.935,-0.07891998194772795],"type":"VEC3"},{"bufferView":49,"byteOffset":0,"componentType":5125,"count":831,"type":"SCALAR"}],"asset":{"generator":"VTK","version":"2.0"},"bufferViews":[{"buffer":0,"byteLength":7200,"byteOffset":0,"target":34962},{"buffer":1,"byteLength":13248,"byteOffset":0,"target":34963},{"buffer":2,"byteLength":7200,"byteOffset":0,"target":34962},{"buffer":3,"byteLength":13248,"byteOffset":0,"target":34963},{"buffer":4,"byteLength":7200,"byteOffset":0,"target":34962},{"buffer":5,"byteLength":13248,"byteOffset":0,"target":34963},{"buffer":6,"byteLength":7200,"byteOffset":0,"target":34962},{"buffer":7,"byteLength":13248,"byteOffset":0,"target":34963},{"buffer":8,"byteLength":7200,"byteOffset":0,"target":34962},{"buffer":9,"byteLength":13248,"byteOffset":0,"target":34963},{"buffer":10,"byteLength":7200,"byteOffset":0,"target":34962},{"buffer":11,"byteLength":13248,"byteOffset":0,"target":34963},{"buffer":12,"byteLength":4848,"byteOffset":0,"target":34962},{"buffer":13,"byteLength":7188,"byteOffset":0,"target":34963},{"buffer":14,"byteLength":4848,"byteOffset":0,"target":34962},{"buffer":15,"byteLength":7188,"byteOffset":0,"target":34963},{"buffer":16,"byteLength":3636,"byteOffset":0,"target":34962},{"buffer":17,"byteLength":4800,"byteOffset":0,"target":34963},{"buffer":18,"byteLength":3636,"byteOffset":0,"target":34962},{"buffer":19,"byteLength":4800,"byteOffset":0,"target":34963},{"buffer":20,"byteLength":4848,"byteOffset":0,"target":34962},{"buffer":21,"byteLength":7224,"byteOffset":0,"target":34963},{"buffer":22,"byteLength":14976,"byteOffset":0,"target":34962},{"buffer":23,"byteLength":25080,"byteOffset":0,"target":34963},{"buffer":24,"byteLength":6060,"byteOffset":0,"target":34962},{"buffer":25,"byteLength":9600,"byteOffset":0,"target":34963},{"buffer":26,"byteLength":1536,"byteOffset":0,"target":34962},{"buffer":27,"byteLength":1536,"byteOffset":0,"target":34962},{"buffer":28,"byteLength":2304,"byteOffset":0,"target":34963},{"buffer":29,"byteLength":12096,"byteOffset":0,"target":34962},{"buffer":30,"byteLength":12096,"byteOffset":0,"target":34962},{"buffer":31,"byteLength":18144,"byteOffset":0,"target":34963},{"buffer":32,"byteLength":1152,"byteOffset":0,"target":34962},{"buffer":33,"byteLength":1152,"byteOffset":0,"target":34962},{"buffer":34,"byteLength":1728,"byteOffset":0,"target":34963},{"buffer":35,"byteLength":960,"byteOffset":0,"target":34962},{"buffer":36,"byteLength":960,"byteOffset":0,"target":34962},{"buffer":37,"byteLength":1440,"byteOffset":0,"target":34963},{"buffer":38,"byteLength":58752,"byteOffset":0,"target":34962},{"buffer":39,"byteLength":114000,"byteOffset":0,"target":34963},{"buffer":40,"byteLength":58752,"byteOffset":0,"target":34962},{"buffer":41,"byteLength":114000,"byteOffset":0,"target":34963},{"buffer":42,"byteLength":3636,"byteOffset":0,"target":34962},{"buffer":43,"byteLength":3384,"byteOffset":0,"target":34963},{"buffer":44,"byteLength":3636,"byteOffset":0,"target":34962},{"buffer":45,"byteLength":3384,"byteOffset":0,"target":34963},{"buffer":46,"byteLength":3636,"byteOffset":0,"target":34962},{"buffer":47,"byteLength":3324,"byteOffset":0,"target":34963},{"buffer":48,"byteLength":3636,"byteOffset":0,"target":34962},{"buffer":49,"byteLength":3324,"byteOffset":0,"target":34963}],"buffers":[{"byteLength":7200,"uri":"data:application/octet-stream;base64,"},{"byteLength":13248,"uri":"data:application/octet-stream;base64,"},{"byteLength":7200,"uri":"data:application/octet-stream;base64,"},{"byteLength":13248,"uri":"data:application/octet-stream;base64,"},{"byteLength":7200,"uri":"data:application/octet-stream;base64,"},{"byteLength":13248,"uri":"data:application/octet-stream;base64,"},{"byteLength":7200,"uri":"data:application/octet-stream;base64,"},{"byteLength":13248,"uri":"data:application/octet-stream;base64,"},{"byteLength":7200,"uri":"data:application/octet-stream;base64,"},{"byteLength":13248,"uri":"data:application/octet-stream;base64,"},{"byteLength":7200,"uri":"data:application/octet-stream;base64,"},{"byteLength":13248,"uri":"data:application/octet-stream;base64,"},{"byteLength":4848,"uri":"data:application/octet-stream;base64,"},{"byteLength":7188,"uri":"data:application/octet-stream;base64,"},{"byteLength":4848,"uri":"data:application/octet-stream;base64,"},{"byteLength":7188,"uri":"data:application/octet-stream;base64,"},{"byteLength":3636,"uri":"data:application/octet-stream;base64,"},{"byteLength":4800,"uri":"data:application/octet-stream;base64,"},{"byteLength":3636,"uri":"data:application/octet-stream;base64,"},{"byteLength":4800,"uri":"data:application/octet-stream;base64,"},{"byteLength":4848,"uri":"data:application/octet-stream;base64,"},{"byteLength":7224,"uri":"data:application/octet-stream;base64,"},{"byteLength":14976,"uri":"data:application/octet-stream;base64,"},{"byteLength":25080,"uri":"data:application/octet-stream;base64,"},{"byteLength":6060,"uri":"data:application/octet-stream;base64,"},{"byteLength":9600,"uri":"data:application/octet-stream;base64,"},{"byteLength":1536,"uri":"data:application/octet-stream;base64,"},{"byteLength":1536,"uri":"data:application/octet-stream;base64,"},{"byteLength":2304,"uri":"data:application/octet-stream;base64,"},{"byteLength":12096,"uri":"data:application/octet-stream;base64,"},{"byteLength":12096,"uri":"data:application/octet-stream;base64,"},{"byteLength":18144,"uri":"data:application/octet-stream;base64,"},{"byteLength":1152,"uri":"data:application/octet-stream;base64,"},{"byteLength":1152,"uri":"data:application/octet-stream;base64,"},{"byteLength":1728,"uri":"data:application/octet-stream;base64,"},{"byteLength":960,"uri":"data:application/octet-stream;base64,"},{"byteLength":960,"uri":"data:application/octet-stream;base64,"},{"byteLength":1440,"uri":"data:application/octet-stream;base64,"},{"byteLength":58752,"uri":"data:application/octet-stream;base64,"},{"byteLength":114000,"uri":"data:application/octet-stream;base64,"},{"byteLength":58752,"uri":"data:application/octet-stream;base64,"},{"byteLength":114000,"uri":"data:application/octet-stream;base64,"},{"byteLength":3636,"uri":"data:application/octet-stream;base64,"},{"byteLength":3384,"uri":"data:application/octet-stream;base64,"},{"byteLength":3636,"uri":"data:application/octet-stream;base64,"},{"byteLength":3384,"uri":"data:application/octet-stream;base64,"},{"byteLength":3636,"uri":"data:application/octet-stream;base64,"},{"byteLength":3324,"uri":"data:application/octet-stream;base64,"},{"byteLength":3636,"uri":"data:application/octet-stream;base64,"},{"byteLength":3324,"uri":"data:application/octet-stream;base64,"}],"cameras":[{"perspective":{"aspectRatio":1.0,"yfov":0.5235987755982988,"zfar":136.7160903780543,"znear":21.20654754118961},"type":"perspective"}],"materials":[{"pbrMetallicRoughness":{"baseColorFactor":[0.5019607843137255,0.5019607843137255,0.5019607843137255,1.0],"metallicFactor":0.0,"roughnessFactor":1.0}},{"pbrMetallicRoughness":{"baseColorFactor":[0.5019607843137255,0.5019607843137255,0.5019607843137255,1.0],"metallicFactor":0.0,"roughnessFactor":1.0}},{"pbrMetallicRoughness":{"baseColorFactor":[0.5019607843137255,0.5019607843137255,0.5019607843137255,1.0],"metallicFactor":0.0,"roughnessFactor":1.0}},{"pbrMetallicRoughness":{"baseColorFactor":[0.5019607843137255,0.5019607843137255,0.5019607843137255,1.0],"metallicFactor":0.0,"roughnessFactor":1.0}},{"pbrMetallicRoughness":{"baseColorFactor":[0.5019607843137255,0.5019607843137255,0.5019607843137255,1.0],"metallicFactor":0.0,"roughnessFactor":1.0}},{"pbrMetallicRoughness":{"baseColorFactor":[0.5019607843137255,0.5019607843137255,0.5019607843137255,1.0],"metallicFactor":0.0,"roughnessFactor":1.0}},{"pbrMetallicRoughness":{"baseColorFactor":[0.5019607843137255,0.5019607843137255,0.5019607843137255,0.5],"metallicFactor":0.0,"roughnessFactor":1.0}},{"pbrMetallicRoughness":{"baseColorFactor":[0.5019607843137255,0.5019607843137255,0.5019607843137255,0.5],"metallicFactor":0.0,"roughnessFactor":1.0}},{"pbrMetallicRoughness":{"baseColorFactor":[0.5019607843137255,0.5019607843137255,0.5019607843137255,0.5],"metallicFactor":0.0,"roughnessFactor":1.0}},{"pbrMetallicRoughness":{"baseColorFactor":[0.5019607843137255,0.5019607843137255,0.5019607843137255,0.5],"metallicFactor":0.0,"roughnessFactor":1.0}},{"pbrMetallicRoughness":{"baseColorFactor":[0.5019607843137255,0.5019607843137255,0.5019607843137255,0.5],"metallicFactor":0.0,"roughnessFactor":1.0}},{"pbrMetallicRoughness":{"baseColorFactor":[0.5019607843137255,0.5019607843137255,0.5019607843137255,0.5],"metallicFactor":0.0,"roughnessFactor":1.0}},{"pbrMetallicRoughness":{"baseColorFactor":[1.0,1.0,1.0,0.75],"metallicFactor":0.0,"roughnessFactor":1.0}},{"pbrMetallicRoughness":{"baseColorFactor":[0.1803921568627451,0.5450980392156862,0.3411764705882353,1.0],"metallicFactor":0.0,"roughnessFactor":1.0}},{"pbrMetallicRoughness":{"baseColorFactor":[0.27450980392156865,0.5098039215686274,0.7058823529411765,1.0],"metallicFactor":0.0,"roughnessFactor":1.0}},{"pbrMetallicRoughness":{"baseColorFactor":[0.27450980392156865,0.5098039215686274,0.7058823529411765,1.0],"metallicFactor":0.0,"roughnessFactor":1.0}},{"pbrMetallicRoughness":{"baseColorFactor":[0.9568627450980393,0.6431372549019608,0.3764705882352941,1.0],"metallicFactor":0.0,"roughnessFactor":1.0}},{"pbrMetallicRoughness":{"baseColorFactor":[0.5019607843137255,0.5019607843137255,0.5019607843137255,0.5],"metallicFactor":0.0,"roughnessFactor":1.0}},{"pbrMetallicRoughness":{"baseColorFactor":[0.5019607843137255,0.5019607843137255,0.5019607843137255,0.5],"metallicFactor":0.0,"roughnessFactor":1.0}},{"pbrMetallicRoughness":{"baseColorFactor":[1.0,0.6470588235294118,0.0,0.5],"metallicFactor":0.0,"roughnessFactor":1.0}},{"pbrMetallicRoughness":{"baseColorFactor":[1.0,0.6470588235294118,0.0,0.5],"metallicFactor":0.0,"roughnessFactor":1.0}},{"pbrMetallicRoughness":{"baseColorFactor":[1.0,0.6470588235294118,0.0,0.5],"metallicFactor":0.0,"roughnessFactor":1.0}},{"pbrMetallicRoughness":{"baseColorFactor":[1.0,0.6470588235294118,0.0,0.5],"metallicFactor":0.0,"roughnessFactor":1.0}}],"meshes":[{"name":"mesh0","primitives":[{"attributes":{"POSITION":0},"indices":1,"material":0,"mode":4}]},{"name":"mesh1","primitives":[{"attributes":{"POSITION":2},"indices":3,"material":1,"mode":4}]},{"name":"mesh2","primitives":[{"attributes":{"POSITION":4},"indices":5,"material":2,"mode":4}]},{"name":"mesh3","primitives":[{"attributes":{"POSITION":6},"indices":7,"material":3,"mode":4}]},{"name":"mesh4","primitives":[{"attributes":{"POSITION":8},"indices":9,"material":4,"mode":4}]},{"name":"mesh5","primitives":[{"attributes":{"POSITION":10},"indices":11,"material":5,"mode":4}]},{"name":"mesh6","primitives":[{"attributes":{"POSITION":12},"indices":13,"material":6,"mode":4}]},{"name":"mesh7","primitives":[{"attributes":{"POSITION":14},"indices":15,"material":7,"mode":4}]},{"name":"mesh8","primitives":[{"attributes":{"POSITION":16},"indices":17,"material":8,"mode":4}]},{"name":"mesh9","primitives":[{"attributes":{"POSITION":18},"indices":19,"material":9,"mode":4}]},{"name":"mesh10","primitives":[{"attributes":{"POSITION":20},"indices":21,"material":10,"mode":4}]},{"name":"mesh11","primitives":[{"attributes":{"POSITION":22},"indices":23,"material":11,"mode":4}]},{"name":"mesh12","primitives":[{"attributes":{"POSITION":24},"indices":25,"material":12,"mode":4}]},{"name":"mesh13","primitives":[{"attributes":{"NORMAL":27,"POSITION":26},"indices":28,"material":13,"mode":4}]},{"name":"mesh14","primitives":[{"attributes":{"NORMAL":30,"POSITION":29},"indices":31,"material":14,"mode":4}]},{"name":"mesh15","primitives":[{"attributes":{"NORMAL":33,"POSITION":32},"indices":34,"material":15,"mode":4}]},{"name":"mesh16","primitives":[{"attributes":{"NORMAL":36,"POSITION":35},"indices":37,"material":16,"mode":4}]},{"name":"mesh17","primitives":[{"attributes":{"POSITION":38},"indices":39,"material":17,"mode":4}]},{"name":"mesh18","primitives":[{"attributes":{"POSITION":40},"indices":41,"material":18,"mode":4}]},{"name":"mesh19","primitives":[{"attributes":{"POSITION":42},"indices":43,"material":19,"mode":4}]},{"name":"mesh20","primitives":[{"attributes":{"POSITION":44},"indices":45,"material":20,"mode":4}]},{"name":"mesh21","primitives":[{"attributes":{"POSITION":46},"indices":47,"material":21,"mode":4}]},{"name":"mesh22","primitives":[{"attributes":{"POSITION":48},"indices":49,"material":22,"mode":4}]}],"nodes":[{"matrix":[2.220446049250314e-16,-3.330669073875469e-16,1.0000000000000002,0.0,1.0,2.220446049250313e-16,-2.220446049250313e-16,0.0,-2.2204460492503128e-16,1.0000000000000002,3.3306690738754696e-16,0.0,0.0,0.0,0.0,1.0],"mesh":0,"name":"mesh0"},{"matrix":[2.220446049250314e-16,-3.330669073875469e-16,1.0000000000000002,0.0,1.0,2.220446049250313e-16,-2.220446049250313e-16,0.0,-2.2204460492503128e-16,1.0000000000000002,3.3306690738754696e-16,0.0,0.0,0.0,0.0,1.0],"mesh":1,"name":"mesh1"},{"matrix":[2.220446049250314e-16,-3.330669073875469e-16,1.0000000000000002,0.0,1.0,2.220446049250313e-16,-2.220446049250313e-16,0.0,-2.2204460492503128e-16,1.0000000000000002,3.3306690738754696e-16,0.0,0.0,0.0,0.0,1.0],"mesh":2,"name":"mesh2"},{"matrix":[2.220446049250314e-16,-3.330669073875469e-16,1.0000000000000002,0.0,1.0,2.220446049250313e-16,-2.220446049250313e-16,0.0,-2.2204460492503128e-16,1.0000000000000002,3.3306690738754696e-16,0.0,0.0,0.0,0.0,1.0],"mesh":3,"name":"mesh3"},{"matrix":[2.220446049250314e-16,-3.330669073875469e-16,1.0000000000000002,0.0,1.0,2.220446049250313e-16,-2.220446049250313e-16,0.0,-2.2204460492503128e-16,1.0000000000000002,3.3306690738754696e-16,0.0,0.0,0.0,0.0,1.0],"mesh":4,"name":"mesh4"},{"matrix":[2.220446049250314e-16,-3.330669073875469e-16,1.0000000000000002,0.0,1.0,2.220446049250313e-16,-2.220446049250313e-16,0.0,-2.2204460492503128e-16,1.0000000000000002,3.3306690738754696e-16,0.0,0.0,0.0,0.0,1.0],"mesh":5,"name":"mesh5"},{"matrix":[2.220446049250314e-16,-3.330669073875469e-16,1.0000000000000002,0.0,1.0,2.220446049250313e-16,-2.220446049250313e-16,0.0,-2.2204460492503128e-16,1.0000000000000002,3.3306690738754696e-16,0.0,0.0,0.0,0.0,1.0],"mesh":6,"name":"mesh6"},{"matrix":[2.220446049250314e-16,-3.330669073875469e-16,1.0000000000000002,0.0,1.0,2.220446049250313e-16,-2.220446049250313e-16,0.0,-2.2204460492503128e-16,1.0000000000000002,3.3306690738754696e-16,0.0,0.0,0.0,0.0,1.0],"mesh":7,"name":"mesh7"},{"matrix":[2.220446049250314e-16,-3.330669073875469e-16,1.0000000000000002,0.0,1.0,2.220446049250313e-16,-2.220446049250313e-16,0.0,-2.2204460492503128e-16,1.0000000000000002,3.3306690738754696e-16,0.0,0.0,0.0,0.0,1.0],"mesh":8,"name":"mesh8"},{"matrix":[2.220446049250314e-16,-3.330669073875469e-16,1.0000000000000002,0.0,1.0,2.220446049250313e-16,-2.220446049250313e-16,0.0,-2.2204460492503128e-16,1.0000000000000002,3.3306690738754696e-16,0.0,0.0,0.0,0.0,1.0],"mesh":9,"name":"mesh9"},{"matrix":[2.220446049250314e-16,-3.330669073875469e-16,1.0000000000000002,0.0,1.0,2.220446049250313e-16,-2.220446049250313e-16,0.0,-2.2204460492503128e-16,1.0000000000000002,3.3306690738754696e-16,0.0,0.0,0.0,0.0,1.0],"mesh":10,"name":"mesh10"},{"matrix":[2.220446049250314e-16,-3.330669073875469e-16,1.0000000000000002,0.0,1.0,2.220446049250313e-16,-2.220446049250313e-16,0.0,-2.2204460492503128e-16,1.0000000000000002,3.3306690738754696e-16,0.0,0.0,0.0,0.0,1.0],"mesh":11,"name":"mesh11"},{"matrix":[2.220446049250314e-16,-3.330669073875469e-16,1.0000000000000002,0.0,1.0,2.220446049250313e-16,-2.220446049250313e-16,0.0,-2.2204460492503128e-16,1.0000000000000002,3.3306690738754696e-16,0.0,0.0,0.0,0.0,1.0],"mesh":12,"name":"mesh12"},{"matrix":[2.220446049250314e-16,-3.330669073875469e-16,1.0000000000000002,0.0,1.0,2.220446049250313e-16,-2.220446049250313e-16,0.0,-2.2204460492503128e-16,1.0000000000000002,3.3306690738754696e-16,0.0,0.0,0.0,0.0,1.0],"mesh":13,"name":"mesh13"},{"matrix":[2.220446049250314e-16,-3.330669073875469e-16,1.0000000000000002,0.0,1.0,2.220446049250313e-16,-2.220446049250313e-16,0.0,-2.2204460492503128e-16,1.0000000000000002,3.3306690738754696e-16,0.0,0.0,0.0,0.0,1.0],"mesh":14,"name":"mesh14"},{"matrix":[2.220446049250314e-16,-3.330669073875469e-16,1.0000000000000002,0.0,1.0,2.220446049250313e-16,-2.220446049250313e-16,0.0,-2.2204460492503128e-16,1.0000000000000002,3.3306690738754696e-16,0.0,0.0,0.0,0.0,1.0],"mesh":15,"name":"mesh15"},{"matrix":[2.220446049250314e-16,-3.330669073875469e-16,1.0000000000000002,0.0,1.0,2.220446049250313e-16,-2.220446049250313e-16,0.0,-2.2204460492503128e-16,1.0000000000000002,3.3306690738754696e-16,0.0,0.0,0.0,0.0,1.0],"mesh":16,"name":"mesh16"},{"matrix":[2.220446049250314e-16,-3.330669073875469e-16,1.0000000000000002,0.0,1.0,2.220446049250313e-16,-2.220446049250313e-16,0.0,-2.2204460492503128e-16,1.0000000000000002,3.3306690738754696e-16,0.0,0.0,0.0,0.0,1.0],"mesh":17,"name":"mesh17"},{"matrix":[2.220446049250314e-16,-3.330669073875469e-16,1.0000000000000002,0.0,1.0,2.220446049250313e-16,-2.220446049250313e-16,0.0,-2.2204460492503128e-16,1.0000000000000002,3.3306690738754696e-16,0.0,0.0,0.0,0.0,1.0],"mesh":18,"name":"mesh18"},{"matrix":[2.220446049250314e-16,-3.330669073875469e-16,1.0000000000000002,0.0,1.0,2.220446049250313e-16,-2.220446049250313e-16,0.0,-2.2204460492503128e-16,1.0000000000000002,3.3306690738754696e-16,0.0,0.0,0.0,0.0,1.0],"mesh":19,"name":"mesh19"},{"matrix":[2.220446049250314e-16,-3.330669073875469e-16,1.0000000000000002,0.0,1.0,2.220446049250313e-16,-2.220446049250313e-16,0.0,-2.2204460492503128e-16,1.0000000000000002,3.3306690738754696e-16,0.0,0.0,0.0,0.0,1.0],"mesh":20,"name":"mesh20"},{"matrix":[2.220446049250314e-16,-3.330669073875469e-16,1.0000000000000002,0.0,1.0,2.220446049250313e-16,-2.220446049250313e-16,0.0,-2.2204460492503128e-16,1.0000000000000002,3.3306690738754696e-16,0.0,0.0,0.0,0.0,1.0],"mesh":21,"name":"mesh21"},{"matrix":[2.220446049250314e-16,-3.330669073875469e-16,1.0000000000000002,0.0,1.0,2.220446049250313e-16,-2.220446049250313e-16,0.0,-2.2204460492503128e-16,1.0000000000000002,3.3306690738754696e-16,0.0,0.0,0.0,0.0,1.0],"mesh":22,"name":"mesh22"},{"camera":0,"matrix":[0.554700196225229,-0.8320502943378435,-7.113684555143346e-18,-0.0,0.3195993709027957,0.21306624726853046,0.9232870714969653,0.0,-0.7682212795973757,-0.5121475197315839,0.38411063979868787,-0.0,-37.57,-37.57,28.1775,1.0],"name":"Camera Node"},{"children":[0,1,2,3,4,5,6,7,8,9,10,11,12,13,14,15,16,17,18,19,20,21,22,23],"name":"Renderer Node"}],"scene":0,"scenes":[{"name":"Layer 0","nodes":[24]}]}