{"accessors":[{"bufferView":0,"byteOffset":0,"componentType":5126,"count":600,"max":[2.7721648312691145,1.4462000000000002,-0.8278351687308854],"min":[2.327835168730885,1.2941556956357092,-1.2721648312691147],"type":"VEC3"},{"bufferView":1,"byteOffset":0,"componentType":5125,"count":3312,"type":"SCALAR"},{"bufferView":2,"byteOffset":0,"componentType":5126,"count":600,"max":[2.7721648312691145,-1.2938,-0.8278351687308854],"min":[2.327835168730885,-1.445844304364291,-1.2721648312691147],"type":"VEC3"},{"bufferView":3,"byteOffset":0,"componentType":5125,"count":3312,"type":"SCALAR"},{"bufferView":4,"byteOffset":0,"componentType":5126,"count":600,"max":[0.6577333462106114,0.0635,-0.8222666537893886],"min":[0.30226665378938855,-0.06320358697024239,-1.1777333462106114],"type":"VEC3"},{"bufferView":5,"byteOffset":0,"componentType":5125,"count":3312,"type":"SCALAR"},{"bufferView":6,"byteOffset":0,"componentType":5126,"count":303,"max":[3.8457394437532173,5.083,0.20526944321860408],"min":[1.652555594,0.0,-0.70759482192107],"type":"VEC3"},{"bufferView":7,"byteOffset":0,"componentType":5125,"count":1203,"type":"SCALAR"},{"bufferView":8,"byteOffset":0,"componentType":5126,"count":303,"max":[3.8457394437532173,-0.0,0.20526944321860408],"min":[1.652555594,-5.083,-0.70759482192107],"type":"VEC3"},{"bufferView":9,"byteOffset":0,"componentType":5125,"count":1203,"type":"SCALAR"},{"bufferView":10,"byteOffset":0,"componentType":5126,"count":303,"max":[7.742789883201276,2.0,0.27573109930791867],"min":[6.54518625,0.0,0.13198829469208134],"type":"VEC3"},{"bufferView":11,"byteOffset":0,"componentType":5125,"count":1200,"type":"SCALAR"},{"bufferView":12,"byteOffset":0,"componentType":5126,"count":303,"max":[7.742789883201276,-0.0,0.27573109930791867],"min":[6.54518625,-2.0,0.13198829469208134],"type":"VEC3"},{"bufferView":13,"byteOffset":0,"componentType":5125,"count":1200,"type":"SCALAR"},{"bufferView":14,"byteOffset":0,"componentType":5126,"count":303,"max":[8.186720482419554,0.06357446114109755,1.7853197786656563],"min":[7.127369987,-0.06357446114109755,0.303750948],"type":"VEC3"},{"bufferView":15,"byteOffset":0,"componentType":5125,"count":1200,"type":"SCALAR"},{"bufferView":16,"byteOffset":0,"componentType":5126,"count":768,"max":[8.349950916,0.61014008,0.9505640062816727],"min":[0.0,-0.6098064903902531,-0.6836277153287296],"type":"VEC3"},{"bufferView":17,"byteOffset":0,"componentType":5125,"count":3990,"type":"SCALAR"},{"bufferView":18,"byteOffset":0,"componentType":5126,"count":16,"max":[2.0850000381469727,0.5333999991416931,0.15719999372959137],"min":[1.6277999877929688,-0.5333999991416931,-0.30000001192092896],"type":"VEC3"},{"bufferView":19,"byteOffset":0,"componentType":5126,"count":16,"type":"VEC3"},{"bufferView":20,"byteOffset":0,"componentType":5125,"count":72,"type":"SCALAR"},{"bufferView":21,"byteOffset":0,"componentType":5126,"count":2020,"max":[0.048820207184068494,0.04881739734723921,0.9270999999999999],"min":[-0.06180096474866734,-0.057886457400652055,0.2032],"type":"VEC3"},{"bufferView":22,"byteOffset":0,"componentType":5125,"count":11514,"type":"SCALAR"},{"bufferView":23,"byteOffset":0,"componentType":5126,"count":2020,"max":[0.04882020718406873,0.05788645740065202,-0.2032],"min":[-0.06180096474866716,-0.04881739734723923,-0.9270999999999999],"type":"VEC3"},{"bufferView":24,"byteOffset":0,"componentType":5125,"count":11514,"type":"SCALAR"},{"bufferView":25,"byteOffset":0,"componentType":5126,"count":303,"max":[3.1932063346790445,5.083,0.20526944321860408],"min":[1.8687244175921933,0.0,-0.70759482192107],"type":"VEC3"},{"bufferView":26,"byteOffset":0,"componentType":5125,"count":813,"type":"SCALAR"},{"bufferView":27,"byteOffset":0,"componentType":5126,"count":303,"max":[3.1932063346790445,-0.0,0.20526944321860408],"min":[1.8687244175921933,-5.083,-0.70759482192107],"type":"VEC3"},{"bufferView":28,"byteOffset":0,"componentType":5125,"count":813,"type":"SCALAR"}],"asset":{"generator":"VTK","version":"2.0"},"bufferViews":[{"buffer":0,"byteLength":7200,"byteOffset":0,"target":34962},{"buffer":1,"byteLength":13248,"byteOffset":0,"target":34963},{"buffer":2,"byteLength":7200,"byteOffset":0,"target":34962},{"buffer":3,"byteLength":13248,"byteOffset":0,"target":34963},{"buffer":4,"byteLength":7200,"byteOffset":0,"target":34962},{"buffer":5,"byteLength":13248,"byteOffset":0,"target":34963},{"buffer":6,"byteLength":3636,"byteOffset":0,"target":34962},{"buffer":7,"byteLength":4812,"byteOffset":0,"target":34963},{"buffer":8,"byteLength":3636,"byteOffset":0,"target":34962},{"buffer":9,"byteLength":4812,"byteOffset":0,"target":34963},{"buffer":10,"byteLength":3636,"byteOffset":0,"target":34962},{"buffer":11,"byteLength":4800,"byteOffset":0,"target":34963},{"buffer":12,"byteLength":3636,"byteOffset":0,"target":34962},{"buffer":13,"byteLength":4800,"byteOffset":0,"target":34963},{"buffer":14,"byteLength":3636,"byteOffset":0,"target":34962},{"buffer":15,"byteLength":4800,"byteOffset":0,"target":34963},{"buffer":16,"byteLength":9216,"byteOffset":0,"target":34962},{"buffer":17,"byteLength":15960,"byteOffset":0,"target":34963},{"buffer":18,"byteLength":192,"byteOffset":0,"target":34962},{"buffer":19,"byteLength":192,"byteOffset":0,"target":34962},{"buffer":20,"byteLength":288,"byteOffset":0,"target":34963},{"buffer":21,"byteLength":24240,"byteOffset":0,"target":34962},{"buffer":22,"byteLength":46056,"byteOffset":0,"target":34963},{"buffer":23,"byteLength":24240,"byteOffset":0,"target":34962},{"buffer":24,"byteLength":46056,"byteOffset":0,"target":34963},{"buffer":25,"byteLength":3636,"byteOffset":0,"target":34962},{"buffer":26,"byteLength":3252,"byteOffset":0,"target":34963},{"buffer":27,"byteLength":3636,"byteOffset":0,"target":34962},{"buffer":28,"byteLength":3252,"byteOffset":0,"target":34963}],"buffers":[{"byteLength":7200,"uri":"data:application/octet-stream;base64,"},{"byteLength":13248,"uri":"data:application/octet-stream;base64,"},{"byteLength":7200,"uri":"data:application/octet-stream;base64,"},{"byteLength":13248,"uri":"data:application/octet-stream;base64,"},{"byteLength":7200,"uri":"data:application/octet-stream;base64,"},{"byteLength":13248,"uri":"data:application/octet-stream;base64,"},{"byteLength":3636,"uri":"data:application/octet-stream;base64,"},{"byteLength":4812,"uri":"data:application/octet-stream;base64,"},{"byteLength":3636,"uri":"data:application/octet-stream;base64,"},{"byteLength":4812,"uri":"data:application/octet-stream;base64,"},{"byteLength":3636,"uri":"data:application/octet-stream;base64,"},{"byteLength":4800,"uri":"data:application/octet-stream;base64,"},{"byteLength":3636,"uri":"data:application/octet-stream;base64,"},{"byteLength":4800,"uri":"data:application/octet-stream;base64,"},{"byteLength":3636,"uri":"data:application/octet-stream;base64,"},{"byteLength":4800,"uri":"data:application/octet-stream;base64,"},{"byteLength":9216,"uri":"data:application/octet-stream;base64,"},{"byteLength":15960,"uri":"data:application/octet-stream;base64,"},{"byteLength":192,"uri":"data:application/octet-stream;base64,"},{"byteLength":192,"uri":"data:application/octet-stream;base64,"},{"byteLength":288,"uri":"data:application/octet-stream;base64,"},{"byteLength":24240,"uri":"data:application/octet-stream;base64,"},{"byteLength":46056,"uri":"data:application/octet-stream;base64,"},{"byteLength":24240,"uri":"data:application/octet-stream;base64,"},{"byteLength":46056,"uri":"data:application/octet-stream;base64,"},{"byteLength":3636,"uri":"data:application/octet-stream;base64,"},{"byteLength":3252,"uri":"data:application/octet-stream;base64,"},{"byteLength":3636,"uri":"data:application/octet-stream;base64,"},{"byteLength":3252,"uri":"data:application/octet-stream;base64,"}],"cameras":[{"perspective":{"aspectRatio":1.0,"yfov":0.5235987755982988,"zfar":35.40118766660409,"znear":6.060818403236603},"type":"perspective"}],"materials":[{"pbrMetallicRoughness":{"baseColorFactor":[0.5019607843137255,0.5019607843137255,0.5019607843137255,1.0],"metallicFactor":0.0,"roughnessFactor":1.0}},{"pbrMetallicRoughness":{"baseColorFactor":[0.5019607843137255,0.5019607843137255,0.5019607843137255,1.0],"metallicFactor":0.0,"roughnessFactor":1.0}},{"pbrMetallicRoughness":{"baseColorFactor":[0.5019607843137255,0.5019607843137255,0.5019607843137255,1.0],"metallicFactor":0.0,"roughnessFactor":1.0}},{"pbrMetallicRoughness":{"baseColorFactor":[0.5019607843137255,0.5019607843137255,0.5019607843137255,0.5],"metallicFactor":0.0,"roughnessFactor":1.0}},{"pbrMetallicRoughness":{"baseColorFactor":[0.5019607843137255,0.5019607843137255,0.5019607843137255,0.5],"metallicFactor":0.0,"roughnessFactor":1.0}},{"pbrMetallicRoughness":{"baseColorFactor":[0.5019607843137255,0.5019607843137255,0.5019607843137255,0.5],"metallicFactor":0.0,"roughnessFactor":1.0}},{"pbrMetallicRoughness":{"baseColorFactor":[0.5019607843137255,0.5019607843137255,0.5019607843137255,0.5],"metallicFactor":0.0,"roughnessFactor":1.0}},{"pbrMetallicRoughness":{"baseColorFactor":[0.5019607843137255,0.5019607843137255,0.5019607843137255,0.5],"metallicFactor":0.0,"roughnessFactor":1.0}},{"pbrMetallicRoughness":{"baseColorFactor":[0.5019607843137255,0.5019607843137255,0.5019607843137255,0.5],"metallicFactor":0.0,"roughnessFactor":1.0}},{"pbrMetallicRoughness":{"baseColorFactor":[0.27450980392156865,0.5098039215686274,0.7058823529411765,1.0],"metallicFactor":0.0,"roughnessFactor":1.0}},{"pbrMetallicRoughness":{"baseColorFactor":[0.0,0.0,0.0,0.6],"metallicFactor":0.0,"roughnessFactor":1.0}},{"pbrMetallicRoughness":{"baseColorFactor":[0.0,0.0,0.0,0.6],"metallicFactor":0.0,"roughnessFactor":1.0}},{"pbrMetallicRoughness":{"baseColorFactor":[1.0,0.6470588235294118,0.0,0.5],"metallicFactor":0.0,"roughnessFactor":1.0}},{"pbrMetallicRoughness":{"baseColorFactor":[1.0,0.6470588235294118,0.0,0.5],"metallicFactor":0.0,"roughnessFactor":1.0}}],"meshes":[{"name":"mesh0","primitives":[{"attributes":{"POSITION":0},"indices":1,"material":0,"mode":4}]},{"name":"mesh1","primitives":[{"attributes":{"POSITION":2},"indices":3,"material":1,"mode":4}]},{"name":"mesh2","primitives":[{"attributes":{"POSITION":4},"indices":5,"material":2,"mode":4}]},{"name":"mesh3","primitives":[{"attributes":{"POSITION":6},"indices":7,"material":3,"mode":4}]},{"name":"mesh4","primitives":[{"attributes":{"POSITION":8},"indices":9,"material":4,"mode":4}]},{"name":"mesh5","primitives":[{"attributes":{"POSITION":10},"indices":11,"material":5,"mode":4}]},{"name":"mesh6","primitives":[{"attributes":{"POSITION":12},"indices":13,"material":6,"mode":4}]},{"name":"mesh7","primitives":[{"attributes":{"POSITION":14},"indices":15,"material":7,"mode":4}]},{"name":"mesh8","primitives":[{"attributes":{"POSITION":16},"indices":17,"material":8,"mode":4}]},{"name":"mesh9","primitives":[{"attributes":{"NORMAL":19,"POSITION":18},"indices":20,"material":9,"mode":4}]},{"name":"mesh10","primitives":[{"attributes":{"POSITION":21},"indices":22,"material":10,"mode":4}]},{"name":"mesh11","primitives":[{"attributes":{"POSITION":23},"indices":24,"material":11,"mode":4}]},{"name":"mesh12","primitives":[{"attributes":{"POSITION":25},"indices":26,"material":12,"mode":4}]},{"name":"mesh13","primitives":[{"attributes":{"POSITION":27},"indices":28,"material":13,"mode":4}]}],"nodes":[{"matrix":[2.220446049250314e-16,-3.330669073875469e-16,1.0000000000000002,0.0,1.0,2.220446049250313e-16,-2.220446049250313e-16,0.0,-2.2204460492503128e-16,1.0000000000000002,3.3306690738754696e-16,0.0,0.0,0.0,0.0,1.0],"mesh":0,"name":"mesh0"},{"matrix":[2.220446049250314e-16,-3.330669073875469e-16,1.0000000000000002,0.0,1.0,2.220446049250313e-16,-2.220446049250313e-16,0.0,-2.2204460492503128e-16,1.0000000000000002,3.3306690738754696e-16,0.0,0.0,0.0,0.0,1.0],"mesh":1,"name":"mesh1"},{"matrix":[2.220446049250314e-16,-3.330669073875469e-16,1.0000000000000002,0.0,1.0,2.220446049250313e-16,-2.220446049250313e-16,0.0,-2.2204460492503128e-16,1.0000000000000002,3.3306690738754696e-16,0.0,0.0,0.0,0.0,1.0],"mesh":2,"name":"mesh2"},{"matrix":[2.220446049250314e-16,-3.330669073875469e-16,1.0000000000000002,0.0,1.0,2.220446049250313e-16,-2.220446049250313e-16,0.0,-2.2204460492503128e-16,1.0000000000000002,3.3306690738754696e-16,0.0,0.0,0.0,0.0,1.0],"mesh":3,"name":"mesh3"},{"matrix":[2.220446049250314e-16,-3.330669073875469e-16,1.0000000000000002,0.0,1.0,2.220446049250313e-16,-2.220446049250313e-16,0.0,-2.2204460492503128e-16,1.0000000000000002,3.3306690738754696e-16,0.0,0.0,0.0,0.0,1.0],"mesh":4,"name":"mesh4"},{"matrix":[2.220446049250314e-16,-3.330669073875469e-16,1.0000000000000002,0.0,1.0,2.220446049250313e-16,-2.220446049250313e-16,0.0,-2.2204460492503128e-16,1.0000000000000002,3.3306690738754696e-16,0.0,0.0,0.0,0.0,1.0],"mesh":5,"name":"mesh5"},{"matrix":[2.220446049250314e-16,-3.330669073875469e-16,1.0000000000000002,0.0,1.0,2.220446049250313e-16,-2.220446049250313e-16,0.0,-2.2204460492503128e-16,1.0000000000000002,3.3306690738754696e-16,0.0,0.0,0.0,0.0,1.0],"mesh":6,"name":"mesh6"},{"matrix":[2.220446049250314e-16,-3.330669073875469e-16,1.0000000000000002,0.0,1.0,2.220446049250313e-16,-2.220446049250313e-16,0.0,-2.2204460492503128e-16,1.0000000000000002,3.3306690738754696e-16,0.0,0.0,0.0,0.0,1.0],"mesh":7,"name":"mesh7"},{"matrix":[2.220446049250314e-16,-3.330669073875469e-16,1.0000000000000002,0.0,1.0,2.220446049250313e-16,-2.220446049250313e-16,0.0,-2.2204460492503128e-16,1.0000000000000002,3.3306690738754696e-16,0.0,0.0,0.0,0.0,1.0],"mesh":8,"name":"mesh8"},{"matrix":[2.220446049250314e-16,-3.330669073875469e-16,1.0000000000000002,0.0,1.0,2.220446049250313e-16,-2.220446049250313e-16,0.0,-2.2204460492503128e-16,1.0000000000000002,3.3306690738754696e-16,0.0,0.0,0.0,0.0,1.0],"mesh":9,"name":"mesh9"},{"matrix":[2.220446049250314e-16,-3.330669073875469e-16,1.0000000000000002,0.0,1.0,2.220446049250313e-16,-2.220446049250313e-16,0.0,-2.2204460492503128e-16,1.0000000000000002,3.3306690738754696e-16,0.0,0.0,0.0,0.0,1.0],"mesh":10,"name":"mesh10"},{"matrix":[2.220446049250314e-16,-3.330669073875469e-16,1.0000000000000002,0.0,1.0,2.220446049250313e-16,-2.220446049250313e-16,0.0,-2.2204460492503128e-16,1.0000000000000002,3.3306690738754696e-16,0.0,0.0,0.0,0.0,1.0],"mesh":11,"name":"mesh11"},{"matrix":[2.220446049250314e-16,-3.330669073875469e-16,1.0000000000000002,0.0,1.0,2.220446049250313e-16,-2.220446049250313e-16,0.0,-2.2204460492503128e-16,1.0000000000000002,3.3306690738754696e-16,0.0,0.0,0.0,0.0,1.0],"mesh":12,"name":"mesh12"},{"matrix":[2.220446049250314e-16,-3.330669073875469e-16,1.0000000000000002,0.0,1.0,2.220446049250313e-16,-2.220446049250313e-16,0.0,-2.2204460492503128e-16,1.0000000000000002,3.3306690738754696e-16,0.0,0.0,0.0,0.0,1.0],"mesh":13,"name":"mesh13"},{"camera":0,"matrix":[0.554700196225229,-0.8320502943378435,-7.113684555143346e-18,-0.0,0.3195993709027957,0.21306624726853046,0.9232870714969653,0.0,-0.7682212795973757,-0.5121475197315839,0.38411063979868787,-0.0,-10.166,-10.165999999999999,7.624499999999999,1.0],"name":"Camera Node"},{"children":[0,1,2,3,4,5,6,7,8,9,10,11,12,13,14],"name":"Renderer Node"}],"scene":0,"scenes":[{"name":"Layer 0","nodes":[15]}]}