{"accessors":[{"bufferView":0,"byteOffset":0,"componentType":5126,"count":600,"max":[34.87478522667863,3.725,-3.377914773321363],"min":[33.63061477332136,3.294207804301176,-4.622085226678637],"type":"VEC3"},{"bufferView":1,"byteOffset":0,"componentType":5125,"count":3312,"type":"SCALAR"},{"bufferView":2,"byteOffset":0,"componentType":5126,"count":600,"max":[34.87478522667863,-3.2932,-3.377914773321363],"min":[33.63061477332136,-3.7239921956988242,-4.622085226678637],"type":"VEC3"},{"bufferView":3,"byteOffset":0,"componentType":5125,"count":3312,"type":"SCALAR"},{"bufferView":4,"byteOffset":0,"componentType":5126,"count":600,"max":[34.87478522667863,4.4068000000000005,-3.377914773321363],"min":[33.63061477332136,3.976007804301176,-4.622085226678637],"type":"VEC3"},{"bufferView":5,"byteOffset":0,"componentType":5125,"count":3312,"type":"SCALAR"},{"bufferView":6,"byteOffset":0,"componentType":5126,"count":600,"max":[34.87478522667863,-3.975,-3.377914773321363],"min":[33.63061477332136,-4.405792195698824,-4.622085226678637],"type":"VEC3"},{"bufferView":7,"byteOffset":0,"componentType":5125,"count":3312,"type":"SCALAR"},{"bufferView":8,"byteOffset":0,"componentType":5126,"count":600,"max":[36.36938522667864,3.725,-3.377914773321363],"min":[35.12521477332137,3.294207804301176,-4.622085226678637],"type":"VEC3"},{"bufferView":9,"byteOffset":0,"componentType":5125,"count":3312,"type":"SCALAR"},{"bufferView":10,"byteOffset":0,"componentType":5126,"count":600,"max":[36.36938522667864,-3.2932,-3.377914773321363],"min":[35.12521477332137,-3.7239921956988242,-4.622085226678637],"type":"VEC3"},{"bufferView":11,"byteOffset":0,"componentType":5125,"count":3312,"type":"SCALAR"},{"bufferView":12,"byteOffset":0,"componentType":5126,"count":600,"max":[36.36938522667864,4.4068000000000005,-3.377914773321363],"min":[35.12521477332137,3.976007804301176,-4.622085226678637],"type":"VEC3"},{"bufferView":13,"byteOffset":0,"componentType":5125,"count":3312,"type":"SCALAR"},{"bufferView":14,"byteOffset":0,"componentType":5126,"count":600,"max":[36.36938522667864,-3.975,-3.377914773321363],"min":[35.12521477332137,-4.405792195698824,-4.622085226678637],"type":"VEC3"},{"bufferView":15,"byteOffset":0,"componentType":5125,"count":3312,"type":"SCALAR"},{"bufferView":16,"byteOffset":0,"componentType":5126,"count":600,"max":[17.39357409839782,-0.125,-3.6064259016021785],"min":[16.60642590160218,-0.3974127119860211,-4.3935740983978215],"type":"VEC3"},{"bufferView":17,"byteOffset":0,"componentType":5125,"count":3312,"type":"SCALAR"},{"bufferView":18,"byteOffset":0,"componentType":5126,"count":600,"max":[17.39357409839782,0.39805,-3.6064259016021785],"min":[16.60642590160218,0.12563728801397886,-4.3935740983978215],"type":"VEC3"},{"bufferView":19,"byteOffset":0,"componentType":5125,"count":3312,"type":"SCALAR"},{"bufferView":20,"byteOffset":0,"componentType":5126,"count":505,"max":[47.8,12.8,0.05278859937058067],"min":[14.0,0.0,-1.3850762689706941],"type":"VEC3"},{"bufferView":21,"byteOffset":0,"componentType":5125,"count":2415,"type":"SCALAR"},{"bufferView":22,"byteOffset":0,"componentType":5126,"count":505,"max":[47.8,-0.0,0.05278859937058067],"min":[14.0,-12.8,-1.3850762689706941],"type":"VEC3"},{"bufferView":23,"byteOffset":0,"componentType":5125,"count":2415,"type":"SCALAR"},{"bufferView":24,"byteOffset":0,"componentType":5126,"count":404,"max":[56.5,0.2917267155360513,7.0],"min":[42.0,-0.2880423906993057,1.0],"type":"VEC3"},{"bufferView":25,"byteOffset":0,"componentType":5125,"count":1806,"type":"SCALAR"},{"bufferView":26,"byteOffset":0,"componentType":5126,"count":960,"max":[61.66,1.44,1.6597730862874984],"min":[0.0,-1.4392126905709335,-1.6597730862874984],"type":"VEC3"},{"bufferView":27,"byteOffset":0,"componentType":5125,"count":4845,"type":"SCALAR"},{"bufferView":28,"byteOffset":0,"componentType":5126,"count":1024,"max":[46.00310134887695,1.3842999935150146,-0.0681999996304512],"min":[10.82409954071045,-1.3842999935150146,-0.5],"type":"VEC3"},{"bufferView":29,"byteOffset":0,"componentType":5126,"count":1024,"type":"VEC3"},{"bufferView":30,"byteOffset":0,"componentType":5125,"count":4608,"type":"SCALAR"},{"bufferView":31,"byteOffset":0,"componentType":5126,"count":112,"max":[46.90480041503906,1.3842999935150146,-0.0681999996304512],"min":[8.5,-1.3842999935150146,-0.5],"type":"VEC3"},{"bufferView":32,"byteOffset":0,"componentType":5126,"count":112,"type":"VEC3"},{"bufferView":33,"byteOffset":0,"componentType":5125,"count":576,"type":"SCALAR"},{"bufferView":34,"byteOffset":0,"componentType":5126,"count":864,"max":[47.039,7.106,-0.9940828371745639],"min":[43.0,5.8943313260513985,-2.205917162825436],"type":"VEC3"},{"bufferView":35,"byteOffset":0,"componentType":5125,"count":4275,"type":"SCALAR"},{"bufferView":36,"byteOffset":0,"componentType":5126,"count":192,"max":[47.0,7.25,-0.8500205053723556],"min":[36.25048730455174,5.750082029340399,-2.3499794946276493],"type":"VEC3"},{"bufferView":37,"byteOffset":0,"componentType":5125,"count":576,"type":"SCALAR"},{"bufferView":38,"byteOffset":0,"componentType":5126,"count":864,"max":[47.039,5.606,-0.9940828371745639],"min":[43.0,4.3943313260513985,-2.205917162825436],"type":"VEC3"},{"bufferView":39,"byteOffset":0,"componentType":5125,"count":4275,"type":"SCALAR"},{"bufferView":40,"byteOffset":0,"componentType":5126,"count":192,"max":[47.0,5.75,-0.8500205053723556],"min":[36.25048730455174,4.250082029340399,-2.3499794946276493],"type":"VEC3"},{"bufferView":41,"byteOffset":0,"componentType":5125,"count":576,"type":"SCALAR"},{"bufferView":42,"byteOffset":0,"componentType":5126,"count":864,"max":[47.039,-4.394,-0.9940828371745639],"min":[43.0,-5.6056686739486015,-2.205917162825436],"type":"VEC3"},{"bufferView":43,"byteOffset":0,"componentType":5125,"count":4275,"type":"SCALAR"},{"bufferView":44,"byteOffset":0,"componentType":5126,"count":192,"max":[47.0,-4.25,-0.8500205053723556],"min":[36.25048730455174,-5.749917970659601,-2.3499794946276493],"type":"VEC3"},{"bufferView":45,"byteOffset":0,"componentType":5125,"count":576,"type":"SCALAR"},{"bufferView":46,"byteOffset":0,"componentType":5126,"count":864,"max":[47.039,-5.894,-0.9940828371745639],"min":[43.0,-7.1056686739486015,-2.205917162825436],"type":"VEC3"},{"bufferView":47,"byteOffset":0,"componentType":5125,"count":4275,"type":"SCALAR"},{"bufferView":48,"byteOffset":0,"componentType":5126,"count":192,"max":[47.0,-5.75,-0.8500205053723556],"min":[36.25048730455174,-7.249917970659601,-2.3499794946276493],"type":"VEC3"},{"bufferView":49,"byteOffset":0,"componentType":5125,"count":576,"type":"SCALAR"},{"bufferView":50,"byteOffset":0,"componentType":5126,"count":303,"max":[36.235461691166094,6.144,0.05278859937058067],"min":[17.38,0.0,-0.9788062950919998],"type":"VEC3"},{"bufferView":51,"byteOffset":0,"componentType":5125,"count":633,"type":"SCALAR"},{"bufferView":52,"byteOffset":0,"componentType":5126,"count":303,"max":[36.235461691166094,-0.0,0.05278859937058067],"min":[17.38,-6.144,-0.9788062950919998],"type":"VEC3"},{"bufferView":53,"byteOffset":0,"componentType":5125,"count":633,"type":"SCALAR"},{"bufferView":54,"byteOffset":0,"componentType":5126,"count":303,"max":[39.68334588746123,6.144,0.05278859937058067],"min":[30.9,0.0,-0.9788062950919998],"type":"VEC3"},{"bufferView":55,"byteOffset":0,"componentType":5125,"count":663,"type":"SCALAR"},{"bufferView":56,"byteOffset":0,"componentType":5126,"count":303,"max":[39.68334588746123,-0.0,0.05278859937058067],"min":[30.9,-6.144,-0.9788062950919998],"type":"VEC3"},{"bufferView":57,"byteOffset":0,"componentType":5125,"count":663,"type":"SCALAR"},{"bufferView":58,"byteOffset":0,"componentType":5126,"count":303,"max":[43.31492781300746,12.096,-0.28065941993212395],"min":[34.84961016890213,6.144,-1.3194968978469785],"type":"VEC3"},{"bufferView":59,"byteOffset":0,"componentType":5125,"count":657,"type":"SCALAR"},{"bufferView":60,"byteOffset":0,"componentType":5126,"count":303,"max":[43.31492781300746,-6.144,-0.28065941993212395],"min":[34.84961016890213,-12.096,-1.3194968978469785],"type":"VEC3"},{"bufferView":61,"byteOffset":0,"componentType":5125,"count":657,"type":"SCALAR"},{"bufferView":62,"byteOffset":0,"componentType":5126,"count":384,"max":[54.5977,1.18285,1.4998222964902097],"min":[51.06655,-1.1822032854457143,-1.0998222964902098],"type":"VEC3"},{"bufferView":63,"byteOffset":0,"componentType":5125,"count":1140,"type":"SCALAR"}],"asset":{"generator":"VTK","version":"2.0"},"bufferViews":[{"buffer":0,"byteLength":7200,"byteOffset":0,"target":34962},{"buffer":1,"byteLength":13248,"byteOffset":0,"target":34963},{"buffer":2,"byteLength":7200,"byteOffset":0,"target":34962},{"buffer":3,"byteLength":13248,"byteOffset":0,"target":34963},{"buffer":4,"byteLength":7200,"byteOffset":0,"target":34962},{"buffer":5,"byteLength":13248,"byteOffset":0,"target":34963},{"buffer":6,"byteLength":7200,"byteOffset":0,"target":34962},{"buffer":7,"byteLength":13248,"byteOffset":0,"target":34963},{"buffer":8,"byteLength":7200,"byteOffset":0,"target":34962},{"buffer":9,"byteLength":13248,"byteOffset":0,"target":34963},{"buffer":10,"byteLength":7200,"byteOffset":0,"target":34962},{"buffer":11,"byteLength":13248,"byteOffset":0,"target":34963},{"buffer":12,"byteLength":7200,"byteOffset":0,"target":34962},{"buffer":13,"byteLength":13248,"byteOffset":0,"target":34963},{"buffer":14,"byteLength":7200,"byteOffset":0,"target":34962},{"buffer":15,"byteLength":13248,"byteOffset":0,"target":34963},{"buffer":16,"byteLength":7200,"byteOffset":0,"target":34962},{"buffer":17,"byteLength":13248,"byteOffset":0,"target":34963},{"buffer":18,"byteLength":7200,"byteOffset":0,"target":34962},{"buffer":19,"byteLength":13248,"byteOffset":0,"target":34963},{"buffer":20,"byteLength":6060,"byteOffset":0,"target":34962},{"buffer":21,"byteLength":9660,"byteOffset":0,"target":34963},{"buffer":22,"byteLength":6060,"byteOffset":0,"target":34962},{"buffer":23,"byteLength":9660,"byteOffset":0,"target":34963},{"buffer":24,"byteLength":4848,"byteOffset":0,"target":34962},{"buffer":25,"byteLength":7224,"byteOffset":0,"target":34963},{"buffer":26,"byteLength":11520,"byteOffset":0,"target":34962},{"buffer":27,"byteLength":19380,"byteOffset":0,"target":34963},{"buffer":28,"byteLength":12288,"byteOffset":0,"target":34962},{"buffer":29,"byteLength":12288,"byteOffset":0,"target":34962},{"buffer":30,"byteLength":18432,"byteOffset":0,"target":34963},{"buffer":31,"byteLength":1344,"byteOffset":0,"target":34962},{"buffer":32,"byteLength":1344,"byteOffset":0,"target":34962},{"buffer":33,"byteLength":2304,"byteOffset":0,"target":34963},{"buffer":34,"byteLength":10368,"byteOffset":0,"target":34962},{"buffer":35,"byteLength":17100,"byteOffset":0,"target":34963},{"buffer":36,"byteLength":2304,"byteOffset":0,"target":34962},{"buffer":37,"byteLength":2304,"byteOffset":0,"target":34963},{"buffer":38,"byteLength":10368,"byteOffset":0,"target":34962},{"buffer":39,"byteLength":17100,"byteOffset":0,"target":34963},{"buffer":40,"byteLength":2304,"byteOffset":0,"target":34962},{"buffer":41,"byteLength":2304,"byteOffset":0,"target":34963},{"buffer":42,"byteLength":10368,"byteOffset":0,"target":34962},{"buffer":43,"byteLength":17100,"byteOffset":0,"target":34963},{"buffer":44,"byteLength":2304,"byteOffset":0,"target":34962},{"buffer":45,"byteLength":2304,"byteOffset":0,"target":34963},{"buffer":46,"byteLength":10368,"byteOffset":0,"target":34962},{"buffer":47,"byteLength":17100,"byteOffset":0,"target":34963},{"buffer":48,"byteLength":2304,"byteOffset":0,"target":34962},{"buffer":49,"byteLength":2304,"byteOffset":0,"target":34963},{"buffer":50,"byteLength":3636,"byteOffset":0,"target":34962},{"buffer":51,"byteLength":2532,"byteOffset":0,"target":34963},{"buffer":52,"byteLength":3636,"byteOffset":0,"target":34962},{"buffer":53,"byteLength":2532,"byteOffset":0,"target":34963},{"buffer":54,"byteLength":3636,"byteOffset":0,"target":34962},{"buffer":55,"byteLength":2652,"byteOffset":0,"target":34963},{"buffer":56,"byteLength":3636,"byteOffset":0,"target":34962},{"buffer":57,"byteLength":2652,"byteOffset":0,"target":34963},{"buffer":58,"byteLength":3636,"byteOffset":0,"target":34962},{"buffer":59,"byteLength":2628,"byteOffset":0,"target":34963},{"buffer":60,"byteLength":3636,"byteOffset":0,"target":34962},{"buffer":61,"byteLength":2628,"byteOffset":0,"target":34963},{"buffer":62,"byteLength":4608,"byteOffset":0,"target":34962},{"buffer":63,"byteLength":4560,"byteOffset":0,"target":34963}],"buffers":[{"byteLength":7200,"uri":"data:application/octet-stream;base64,"},{"byteLength":13248,"uri":"data:application/octet-stream;base64,"},{"byteLength":7200,"uri":"data:application/octet-stream;base64,"},{"byteLength":13248,"uri":"data:application/octet-stream;base64,"},{"byteLength":7200,"uri":"data:application/octet-stream;base64,"},{"byteLength":13248,"uri":"data:application/octet-stream;base64,"},{"byteLength":7200,"uri":"data:application/octet-stream;base64,"},{"byteLength":13248,"uri":"data:application/octet-stream;base64,"},{"byteLength":7200,"uri":"data:application/octet-stream;base64,"},{"byteLength":13248,"uri":"data:application/octet-stream;base64,"},{"byteLength":7200,"uri":"data:application/octet-stream;base64,"},{"byteLength":13248,"uri":"data:application/octet-stream;base64,"},{"byteLength":7200,"uri":"data:application/octet-stream;base64,"},{"byteLength":13248,"uri":"data:application/octet-stream;base64,"},{"byteLength":7200,"uri":"data:application/octet-stream;base64,"},{"byteLength":13248,"uri":"data:application/octet-stream;base64,"},{"byteLength":7200,"uri":"data:application/octet-stream;base64,"},{"byteLength":13248,"uri":"data:application/octet-stream;base64,"},{"byteLength":7200,"uri":"data:application/octet-stream;base64,"},{"byteLength":13248,"uri":"data:application/octet-stream;base64,"},{"byteLength":6060,"uri":"data:application/octet-stream;base64,"},{"byteLength":9660,"uri":"data:application/octet-stream;base64,"},{"byteLength":6060,"uri":"data:application/octet-stream;base64,"},{"byteLength":9660,"uri":"data:application/octet-stream;base64,"},{"byteLength":4848,"uri":"data:application/octet-stream;base64,"},{"byteLength":7224,"uri":"data:application/octet-stream;base64,"},{"byteLength":11520,"uri":"data:application/octet-stream;base64,"},{"byteLength":19380,"uri":"data:application/octet-stream;base64,"},{"byteLength":12288,"uri":"data:application/octet-stream;base64,"},{"byteLength":12288,"uri":"data:application/octet-stream;base64,"},{"byteLength":18432,"uri":"data:application/octet-stream;base64,"},{"byteLength":1344,"uri":"data:application/octet-stream;base64,"},{"byteLength":1344,"uri":"data:application/octet-stream;base64,"},{"byteLength":2304,"uri":"data:application/octet-stream;base64,"},{"byteLength":10368,"uri":"data:application/octet-stream;base64,"},{"byteLength":17100,"uri":"data:application/octet-stream;base64,"},{"byteLength":2304,"uri":"data:application/octet-stream;base64,"},{"byteLength":2304,"uri":"data:application/octet-stream;base64,"},{"byteLength":10368,"uri":"data:application/octet-stream;base64,"},{"byteLength":17100,"uri":"data:application/octet-stream;base64,"},{"byteLength":2304,"uri":"data:application/octet-stream;base64,"},{"byteLength":2304,"uri":"data:application/octet-stream;base64,"},{"byteLength":10368,"uri":"data:application/octet-stream;base64,"},{"byteLength":17100,"uri":"data:application/octet-stream;base64,"},{"byteLength":2304,"uri":"data:application/octet-stream;base64,"},{"byteLength":2304,"uri":"data:application/octet-stream;base64,"},{"byteLength":10368,"uri":"data:application/octet-stream;base64,"},{"byteLength":17100,"uri":"data:application/octet-stream;base64,"},{"byteLength":2304,"uri":"data:application/octet-stream;base64,"},{"byteLength":2304,"uri":"data:application/octet-stream;base64,"},{"byteLength":3636,"uri":"data:application/octet-stream;base64,"},{"byteLength":2532,"uri":"data:application/octet-stream;base64,"},{"byteLength":3636,"uri":"data:application/octet-stream;base64,"},{"byteLength":2532,"uri":"data:application/octet-stream;base64,"},{"byteLength":3636,"uri":"data:application/octet-stream;base64,"},{"byteLength":2652,"uri":"data:application/octet-stream;base64,"},{"byteLength":3636,"uri":"data:application/octet-stream;base64,"},{"byteLength":2652,"uri":"data:application/octet-stream;base64,"},{"byteLength":3636,"uri":"data:application/octet-stream;base64,"},{"byteLength":2628,"uri":"data:application/octet-stream;base64,"},{"byteLength":3636,"uri":"data:application/octet-stream;base64,"},{"byteLength":2628,"uri":"data:application/octet-stream;base64,"},{"byteLength":4608,"uri":"data:application/octet-stream;base64,"},{"byteLength":4560,"uri":"data:application/octet-stream;base64,"}],"cameras":[{"perspective":{"aspectRatio":1.0,"yfov":0.5235987755982988,"zfar":203.07932534983146,"znear":54.119975634570714},"type":"perspective"}],"materials":[{"pbrMetallicRoughness":{"baseColorFactor":[0.5019607843137255,0.5019607843137255,0.5019607843137255,1.0],"metallicFactor":0.0,"roughnessFactor":1.0}},{"pbrMetallicRoughness":{"baseColorFactor":[0.5019607843137255,0.5019607843137255,0.5019607843137255,1.0],"metallicFactor":0.0,"roughnessFactor":1.0}},{"pbrMetallicRoughness":{"baseColorFactor":[0.5019607843137255,0.5019607843137255,0.5019607843137255,1.0],"metallicFactor":0.0,"roughnessFactor":1.0}},{"pbrMetallicRoughness":{"baseColorFactor":[0.5019607843137255,0.5019607843137255,0.5019607843137255,1.0],"metallicFactor":0.0,"roughnessFactor":1.0}},{"pbrMetallicRoughness":{"baseColorFactor":[0.5019607843137255,0.5019607843137255,0.5019607843137255,1.0],"metallicFactor":0.0,"roughnessFactor":1.0}},{"pbrMetallicRoughness":{"baseColorFactor":[0.5019607843137255,0.5019607843137255,0.5019607843137255,1.0],"metallicFactor":0.0,"roughnessFactor":1.0}},{"pbrMetallicRoughness":{"baseColorFactor":[0.5019607843137255,0.5019607843137255,0.5019607843137255,1.0],"metallicFactor":0.0,"roughnessFactor":1.0}},{"pbrMetallicRoughness":{"baseColorFactor":[0.5019607843137255,0.5019607843137255,0.5019607843137255,1.0],"metallicFactor":0.0,"roughnessFactor":1.0}},{"pbrMetallicRoughness":{"baseColorFactor":[0.5019607843137255,0.5019607843137255,0.5019607843137255,1.0],"metallicFactor":0.0,"roughnessFactor":1.0}},{"pbrMetallicRoughness":{"baseColorFactor":[0.5019607843137255,0.5019607843137255,0.5019607843137255,1.0],"metallicFactor":0.0,"roughnessFactor":1.0}},{"pbrMetallicRoughness":{"baseColorFactor":[0.5019607843137255,0.5019607843137255,0.5019607843137255,0.5],"metallicFactor":0.0,"roughnessFactor":1.0}},{"pbrMetallicRoughness":{"baseColorFactor":[0.5019607843137255,0.5019607843137255,0.5019607843137255,0.5],"metallicFactor":0.0,"roughnessFactor":1.0}},{"pbrMetallicRoughness":{"baseColorFactor":[0.5019607843137255,0.5019607843137255,0.5019607843137255,0.5],"metallicFactor":0.0,"roughnessFactor":1.0}},{"pbrMetallicRoughness":{"baseColorFactor":[0.5019607843137255,0.5019607843137255,0.5019607843137255,0.5],"metallicFactor":0.0,"roughnessFactor":1.0}},{"pbrMetallicRoughness":{"baseColorFactor":[0.1803921568627451,0.5450980392156862,0.3411764705882353,1.0],"metallicFactor":0.0,"roughnessFactor":1.0}},{"pbrMetallicRoughness":{"baseColorFactor":[0.9568627450980393,0.6431372549019608,0.3764705882352941,1.0],"metallicFactor":0.0,"roughnessFactor":1.0}},{"pbrMetallicRoughness":{"baseColorFactor":[0.0,0.0,0.0,0.5],"metallicFactor":0.0,"roughnessFactor":1.0}},{"pbrMetallicRoughness":{"baseColorFactor":[0.5019607843137255,0.5019607843137255,0.5019607843137255,0.5],"metallicFactor":0.0,"roughnessFactor":1.0}},{"pbrMetallicRoughness":{"baseColorFactor":[0.0,0.0,0.0,0.5],"metallicFactor":0.0,"roughnessFactor":1.0}},{"pbrMetallicRoughness":{"baseColorFactor":[0.5019607843137255,0.5019607843137255,0.5019607843137255,0.5],"metallicFactor":0.0,"roughnessFactor":1.0}},{"pbrMetallicRoughness":{"baseColorFactor":[0.0,0.0,0.0,0.5],"metallicFactor":0.0,"roughnessFactor":1.0}},{"pbrMetallicRoughness":{"baseColorFactor":[0.5019607843137255,0.5019607843137255,0.5019607843137255,0.5],"metallicFactor":0.0,"roughnessFactor":1.0}},{"pbrMetallicRoughness":{"baseColorFactor":[0.0,0.0,0.0,0.5],"metallicFactor":0.0,"roughnessFactor":1.0}},{"pbrMetallicRoughness":{"baseColorFactor":[0.5019607843137255,0.5019607843137255,0.5019607843137255,0.5],"metallicFactor":0.0,"roughnessFactor":1.0}},{"pbrMetallicRoughness":{"baseColorFactor":[1.0,0.6470588235294118,0.0,0.5],"metallicFactor":0.0,"roughnessFactor":1.0}},{"pbrMetallicRoughness":{"baseColorFactor":[1.0,0.6470588235294118,0.0,0.5],"metallicFactor":0.0,"roughnessFactor":1.0}},{"pbrMetallicRoughness":{"baseColorFactor":[1.0,0.6470588235294118,0.0,0.5],"metallicFactor":0.0,"roughnessFactor":1.0}},{"pbrMetallicRoughness":{"baseColorFactor":[1.0,0.6470588235294118,0.0,0.5],"metallicFactor":0.0,"roughnessFactor":1.0}},{"pbrMetallicRoughness":{"baseColorFactor":[1.0,0.6470588235294118,0.0,0.5],"metallicFactor":0.0,"roughnessFactor":1.0}},{"pbrMetallicRoughness":{"baseColorFactor":[1.0,0.6470588235294118,0.0,0.5],"metallicFactor":0.0,"roughnessFactor":1.0}},{"pbrMetallicRoughness":{"baseColorFactor":[1.0,0.6470588235294118,0.0,0.5],"metallicFactor":0.0,"roughnessFactor":1.0}}],"meshes":[{"name":"mesh0","primitives":[{"attributes":{"POSITION":0},"indices":1,"material":0,"mode":4}]},{"name":"mesh1","primitives":[{"attributes":{"POSITION":2},"indices":3,"material":1,"mode":4}]},{"name":"mesh2","primitives":[{"attributes":{"POSITION":4},"indices":5,"material":2,"mode":4}]},{"name":"mesh3","primitives":[{"attributes":{"POSITION":6},"indices":7,"material":3,"mode":4}]},{"name":"mesh4","primitives":[{"attributes":{"POSITION":8},"indices":9,"material":4,"mode":4}]},{"name":"mesh5","primitives":[{"attributes":{"POSITION":10},"indices":11,"material":5,"mode":4}]},{"name":"mesh6","primitives":[{"attributes":{"POSITION":12},"indices":13,"material":6,"mode":4}]},{"name":"mesh7","primitives":[{"attributes":{"POSITION":14},"indices":15,"material":7,"mode":4}]},{"name":"mesh8","primitives":[{"attributes":{"POSITION":16},"indices":17,"material":8,"mode":4}]},{"name":"mesh9","primitives":[{"attributes":{"POSITION":18},"indices":19,"material":9,"mode":4}]},{"name":"mesh10","primitives":[{"attributes":{"POSITION":20},"indices":21,"material":10,"mode":4}]},{"name":"mesh11","primitives":[{"attributes":{"POSITION":22},"indices":23,"material":11,"mode":4}]},{"name":"mesh12","primitives":[{"attributes":{"POSITION":24},"indices":25,"material":12,"mode":4}]},{"name":"mesh13","primitives":[{"attributes":{"POSITION":26},"indices":27,"material":13,"mode":4}]},{"name":"mesh14","primitives":[{"attributes":{"NORMAL":29,"POSITION":28},"indices":30,"material":14,"mode":4}]},{"name":"mesh15","primitives":[{"attributes":{"NORMAL":32,"POSITION":31},"indices":33,"material":15,"mode":4}]},{"name":"mesh16","primitives":[{"attributes":{"POSITION":34},"indices":35,"material":16,"mode":4}]},{"name":"mesh17","primitives":[{"attributes":{"POSITION":36},"indices":37,"material":17,"mode":4}]},{"name":"mesh18","primitives":[{"attributes":{"POSITION":38},"indices":39,"material":18,"mode":4}]},{"name":"mesh19","primitives":[{"attributes":{"POSITION":40},"indices":41,"material":19,"mode":4}]},{"name":"mesh20","primitives":[{"attributes":{"POSITION":42},"indices":43,"material":20,"mode":4}]},{"name":"mesh21","primitives":[{"attributes":{"POSITION":44},"indices":45,"material":21,"mode":4}]},{"name":"mesh22","primitives":[{"attributes":{"POSITION":46},"indices":47,"material":22,"mode":4}]},{"name":"mesh23","primitives":[{"attributes":{"POSITION":48},"indices":49,"material":23,"mode":4}]},{"name":"mesh24","primitives":[{"attributes":{"POSITION":50},"indices":51,"material":24,"mode":4}]},{"name":"mesh25","primitives":[{"attributes":{"POSITION":52},"indices":53,"material":25,"mode":4}]},{"name":"mesh26","primitives":[{"attributes":{"POSITION":54},"indices":55,"material":26,"mode":4}]},{"name":"mesh27","primitives":[{"attributes":{"POSITION":56},"indices":57,"material":27,"mode":4}]},{"name":"mesh28","primitives":[{"attributes":{"POSITION":58},"indices":59,"material":28,"mode":4}]},{"name":"mesh29","primitives":[{"attributes":{"POSITION":60},"indices":61,"material":29,"mode":4}]},{"name":"mesh30","primitives":[{"attributes":{"POSITION":62},"indices":63,"material":30,"mode":4}]}],"nodes":[{"matrix":[2.220446049250314e-16,-3.330669073875469e-16,1.0000000000000002,0.0,1.0,2.220446049250313e-16,-2.220446049250313e-16,0.0,-2.2204460492503128e-16,1.0000000000000002,3.3306690738754696e-16,0.0,0.0,0.0,0.0,1.0],"mesh":0,"name":"mesh0"},{"matrix":[2.220446049250314e-16,-3.330669073875469e-16,1.0000000000000002,0.0,1.0,2.220446049250313e-16,-2.220446049250313e-16,0.0,-2.2204460492503128e-16,1.0000000000000002,3.3306690738754696e-16,0.0,0.0,0.0,0.0,1.0],"mesh":1,"name":"mesh1"},{"matrix":[2.220446049250314e-16,-3.330669073875469e-16,1.0000000000000002,0.0,1.0,2.220446049250313e-16,-2.220446049250313e-16,0.0,-2.2204460492503128e-16,1.0000000000000002,3.3306690738754696e-16,0.0,0.0,0.0,0.0,1.0],"mesh":2,"name":"mesh2"},{"matrix":[2.220446049250314e-16,-3.330669073875469e-16,1.0000000000000002,0.0,1.0,2.220446049250313e-16,-2.220446049250313e-16,0.0,-2.2204460492503128e-16,1.0000000000000002,3.3306690738754696e-16,0.0,0.0,0.0,0.0,1.0],"mesh":3,"name":"mesh3"},{"matrix":[2.220446049250314e-16,-3.330669073875469e-16,1.0000000000000002,0.0,1.0,2.220446049250313e-16,-2.220446049250313e-16,0.0,-2.2204460492503128e-16,1.0000000000000002,3.3306690738754696e-16,0.0,0.0,0.0,0.0,1.0],"mesh":4,"name":"mesh4"},{"matrix":[2.220446049250314e-16,-3.330669073875469e-16,1.0000000000000002,0.0,1.0,2.220446049250313e-16,-2.220446049250313e-16,0.0,-2.2204460492503128e-16,1.0000000000000002,3.3306690738754696e-16,0.0,0.0,0.0,0.0,1.0],"mesh":5,"name":"mesh5"},{"matrix":[2.220446049250314e-16,-3.330669073875469e-16,1.0000000000000002,0.0,1.0,2.220446049250313e-16,-2.220446049250313e-16,0.0,-2.2204460492503128e-16,1.0000000000000002,3.3306690738754696e-16,0.0,0.0,0.0,0.0,1.0],"mesh":6,"name":"mesh6"},{"matrix":[2.220446049250314e-16,-3.330669073875469e-16,1.0000000000000002,0.0,1.0,2.220446049250313e-16,-2.220446049250313e-16,0.0,-2.2204460492503128e-16,1.0000000000000002,3.3306690738754696e-16,0.0,0.0,0.0,0.0,1.0],"mesh":7,"name":"mesh7"},{"matrix":[2.220446049250314e-16,-3.330669073875469e-16,1.0000000000000002,0.0,1.0,2.220446049250313e-16,-2.220446049250313e-16,0.0,-2.2204460492503128e-16,1.0000000000000002,3.3306690738754696e-16,0.0,0.0,0.0,0.0,1.0],"mesh":8,"name":"mesh8"},{"matrix":[2.220446049250314e-16,-3.330669073875469e-16,1.0000000000000002,0.0,1.0,2.220446049250313e-16,-2.220446049250313e-16,0.0,-2.2204460492503128e-16,1.0000000000000002,3.3306690738754696e-16,0.0,0.0,0.0,0.0,1.0],"mesh":9,"name":"mesh9"},{"matrix":[2.220446049250314e-16,-3.330669073875469e-16,1.0000000000000002,0.0,1.0,2.220446049250313e-16,-2.220446049250313e-16,0.0,-2.2204460492503128e-16,1.0000000000000002,3.3306690738754696e-16,0.0,0.0,0.0,0.0,1.0],"mesh":10,"name":"mesh10"},{"matrix":[2.220446049250314e-16,-3.330669073875469e-16,1.0000000000000002,0.0,1.0,2.220446049250313e-16,-2.220446049250313e-16,0.0,-2.2204460492503128e-16,1.0000000000000002,3.3306690738754696e-16,0.0,0.0,0.0,0.0,1.0],"mesh":11,"name":"mesh11"},{"matrix":[2.220446049250314e-16,-3.330669073875469e-16,1.0000000000000002,0.0,1.0,2.220446049250313e-16,-2.220446049250313e-16,0.0,-2.2204460492503128e-16,1.0000000000000002,3.3306690738754696e-16,0.0,0.0,0.0,0.0,1.0],"mesh":12,"name":"mesh12"},{"matrix":[2.220446049250314e-16,-3.330669073875469e-16,1.0000000000000002,0.0,1.0,2.220446049250313e-16,-2.220446049250313e-16,0.0,-2.2204460492503128e-16,1.0000000000000002,3.3306690738754696e-16,0.0,0.0,0.0,0.0,1.0],"mesh":13,"name":"mesh13"},{"matrix":[2.220446049250314e-16,-3.330669073875469e-16,1.0000000000000002,0.0,1.0,2.220446049250313e-16,-2.220446049250313e-16,0.0,-2.2204460492503128e-16,1.0000000000000002,3.3306690738754696e-16,0.0,0.0,0.0,0.0,1.0],"mesh":14,"name":"mesh14"},{"matrix":[2.220446049250314e-16,-3.330669073875469e-16,1.0000000000000002,0.0,1.0,2.220446049250313e-16,-2.220446049250313e-16,0.0,-2.2204460492503128e-16,1.0000000000000002,3.3306690738754696e-16,0.0,0.0,0.0,0.0,1.0],"mesh":15,"name":"mesh15"},{"matrix":[2.220446049250314e-16,-3.330669073875469e-16,1.0000000000000002,0.0,1.0,2.220446049250313e-16,-2.220446049250313e-16,0.0,-2.2204460492503128e-16,1.0000000000000002,3.3306690738754696e-16,0.0,0.0,0.0,0.0,1.0],"mesh":16,"name":"mesh16"},{"matrix":[2.220446049250314e-16,-3.330669073875469e-16,1.0000000000000002,0.0,1.0,2.220446049250313e-16,-2.220446049250313e-16,0.0,-2.2204460492503128e-16,1.0000000000000002,3.3306690738754696e-16,0.0,0.0,0.0,0.0,1.0],"mesh":17,"name":"mesh17"},{"matrix":[2.220446049250314e-16,-3.330669073875469e-16,1.0000000000000002,0.0,1.0,2.220446049250313e-16,-2.220446049250313e-16,0.0,-2.2204460492503128e-16,1.0000000000000002,3.3306690738754696e-16,0.0,0.0,0.0,0.0,1.0],"mesh":18,"name":"mesh18"},{"matrix":[2.220446049250314e-16,-3.330669073875469e-16,1.0000000000000002,0.0,1.0,2.220446049250313e-16,-2.220446049250313e-16,0.0,-2.2204460492503128e-16,1.0000000000000002,3.3306690738754696e-16,0.0,0.0,0.0,0.0,1.0],"mesh":19,"name":"mesh19"},{"matrix":[2.220446049250314e-16,-3.330669073875469e-16,1.0000000000000002,0.0,1.0,2.220446049250313e-16,-2.220446049250313e-16,0.0,-2.2204460492503128e-16,1.0000000000000002,3.3306690738754696e-16,0.0,0.0,0.0,0.0,1.0],"mesh":20,"name":"mesh20"},{"matrix":[2.220446049250314e-16,-3.330669073875469e-16,1.0000000000000002,0.0,1.0,2.220446049250313e-16,-2.220446049250313e-16,0.0,-2.2204460492503128e-16,1.0000000000000002,3.3306690738754696e-16,0.0,0.0,0.0,0.0,1.0],"mesh":21,"name":"mesh21"},{"matrix":[2.220446049250314e-16,-3.330669073875469e-16,1.0000000000000002,0.0,1.0,2.220446049250313e-16,-2.220446049250313e-16,0.0,-2.2204460492503128e-16,1.0000000000000002,3.3306690738754696e-16,0.0,0.0,0.0,0.0,1.0],"mesh":22,"name":"mesh22"},{"matrix":[2.220446049250314e-16,-3.330669073875469e-16,1.0000000000000002,0.0,1.0,2.220446049250313e-16,-2.220446049250313e-16,0.0,-2.2204460492503128e-16,1.0000000000000002,3.3306690738754696e-16,0.0,0.0,0.0,0.0,1.0],"mesh":23,"name":"mesh23"},{"matrix":[2.220446049250314e-16,-3.330669073875469e-16,1.0000000000000002,0.0,1.0,2.220446049250313e-16,-2.220446049250313e-16,0.0,-2.2204460492503128e-16,1.0000000000000002,3.3306690738754696e-16,0.0,0.0,0.0,0.0,1.0],"mesh":24,"name":"mesh24"},{"matrix":[2.220446049250314e-16,-3.330669073875469e-16,1.0000000000000002,0.0,1.0,2.220446049250313e-16,-2.220446049250313e-16,0.0,-2.2204460492503128e-16,1.0000000000000002,3.3306690738754696e-16,0.0,0.0,0.0,0.0,1.0],"mesh":25,"name":"mesh25"},{"matrix":[2.220446049250314e-16,-3.330669073875469e-16,1.0000000000000002,0.0,1.0,2.220446049250313e-16,-2.220446049250313e-16,0.0,-2.2204460492503128e-16,1.0000000000000002,3.3306690738754696e-16,0.0,0.0,0.0,0.0,1.0],"mesh":26,"name":"mesh26"},{"matrix":[2.220446049250314e-16,-3.330669073875469e-16,1.0000000000000002,0.0,1.0,2.220446049250313e-16,-2.220446049250313e-16,0.0,-2.2204460492503128e-16,1.0000000000000002,3.3306690738754696e-16,0.0,0.0,0.0,0.0,1.0],"mesh":27,"name":"mesh27"},{"matrix":[2.220446049250314e-16,-3.330669073875469e-16,1.0000000000000002,0.0,1.0,2.220446049250313e-16,-2.220446049250313e-16,0.0,-2.2204460492503128e-16,1.0000000000000002,3.3306690738754696e-16,0.0,0.0,0.0,0.0,1.0],"mesh":28,"name":"mesh28"},{"matrix":[2.220446049250314e-16,-3.330669073875469e-16,1.0000000000000002,0.0,1.0,2.220446049250313e-16,-2.220446049250313e-16,0.0,-2.2204460492503128e-16,1.0000000000000002,3.3306690738754696e-16,0.0,0.0,0.0,0.0,1.0],"mesh":29,"name":"mesh29"},{"matrix":[2.220446049250314e-16,-3.330669073875469e-16,1.0000000000000002,0.0,1.0,2.220446049250313e-16,-2.220446049250313e-16,0.0,-2.2204460492503128e-16,1.0000000000000002,3.3306690738754696e-16,0.0,0.0,0.0,0.0,1.0],"mesh":30,"name":"mesh30"},{"camera":0,"matrix":[0.554700196225229,-0.8320502943378435,-7.113684555143346e-18,-0.0,0.3195993709027957,0.21306624726853046,0.9232870714969653,0.0,-0.7682212795973757,-0.5121475197315839,0.38411063979868787,-0.0,-61.65999999999999,-61.65999999999998,46.24499999999999,1.0],"name":"Camera Node"},{"children":[0,1,2,3,4,5,6,7,8,9,10,11,12,13,14,15,16,17,18,19,20,21,22,23,24,25,26,27,28,29,30,31],"name":"Renderer Node"}],"scene":0,"scenes":[{"name":"Layer 0","nodes":[32]}]}