{"accessors":[{"bufferView":0,"byteOffset":0,"componentType":5126,"count":600,"max":[5.979311128280815,2.1629500000000004,-0.8706888717191847],"min":[5.420688871719185,1.947553902150588,-1.429311128280815],"type":"VEC3"},{"bufferView":1,"byteOffset":0,"componentType":5125,"count":3312,"type":"SCALAR"},{"bufferView":2,"byteOffset":0,"componentType":5126,"count":600,"max":[5.979311128280815,-1.9470500000000002,-0.8706888717191847],"min":[5.420688871719185,-2.162446097849412,-1.429311128280815],"type":"VEC3"},{"bufferView":3,"byteOffset":0,"componentType":5125,"count":3312,"type":"SCALAR"},{"bufferView":4,"byteOffset":0,"componentType":5126,"count":600,"max":[2.279311128280815,0.10794999999999999,-0.8706888717191847],"min":[1.7206888717191848,-0.10744609784941206,-1.429311128280815],"type":"VEC3"},{"bufferView":5,"byteOffset":0,"componentType":5125,"count":3312,"type":"SCALAR"},{"bufferView":6,"byteOffset":0,"componentType":5126,"count":303,"max":[7.41847,9.905,1.5418235924067463],"min":[5.38,0.0,1.2471632755486948],"type":"VEC3"},{"bufferView":7,"byteOffset":0,"componentType":5125,"count":1194,"type":"SCALAR"},{"bufferView":8,"byteOffset":0,"componentType":5126,"count":303,"max":[7.41847,-0.0,1.5418235924067463],"min":[5.38,-9.905,1.2471632755486948],"type":"VEC3"},{"bufferView":9,"byteOffset":0,"componentType":5125,"count":1194,"type":"SCALAR"},{"bufferView":10,"byteOffset":0,"componentType":5126,"count":303,"max":[14.512,3.145,1.327616398064667],"min":[12.96,0.0,1.172383601935333],"type":"VEC3"},{"bufferView":11,"byteOffset":0,"componentType":5125,"count":1200,"type":"SCALAR"},{"bufferView":12,"byteOffset":0,"componentType":5126,"count":303,"max":[14.512,-0.0,1.327616398064667],"min":[12.96,-3.145,1.172383601935333],"type":"VEC3"},{"bufferView":13,"byteOffset":0,"componentType":5125,"count":1200,"type":"SCALAR"},{"bufferView":14,"byteOffset":0,"componentType":5126,"count":303,"max":[15.770578813188418,0.1500316972899488,4.25],"min":[12.222,-0.1500316972899488,0.75],"type":"VEC3"},{"bufferView":15,"byteOffset":0,"componentType":5125,"count":1200,"type":"SCALAR"},{"bufferView":16,"byteOffset":0,"componentType":5126,"count":1056,"max":[15.77,0.875,1.3744630404240168],"min":[0.0,-0.874760767382515,-0.7953886404240167],"type":"VEC3"},{"bufferView":17,"byteOffset":0,"componentType":5125,"count":5130,"type":"SCALAR"},{"bufferView":18,"byteOffset":0,"componentType":5126,"count":120,"max":[8.199000358581543,0.8889999985694885,0.45719999074935913],"min":[3.677799940109253,-0.8889999985694885,0.0],"type":"VEC3"},{"bufferView":19,"byteOffset":0,"componentType":5126,"count":120,"type":"VEC3"},{"bufferView":20,"byteOffset":0,"componentType":5125,"count":648,"type":"SCALAR"},{"bufferView":21,"byteOffset":0,"componentType":5126,"count":864,"max":[7.5,3.1813822225,1.4400140394221],"min":[3.5,2.444619242450151,0.34166891756627393],"type":"VEC3"},{"bufferView":22,"byteOffset":0,"componentType":5125,"count":4275,"type":"SCALAR"},{"bufferView":23,"byteOffset":0,"componentType":5126,"count":2020,"max":[3.552077145169639,2.8607059675593205,2.2366],"min":[3.3831054368225173,2.7081376180390513,1.127],"type":"VEC3"},{"bufferView":24,"byteOffset":0,"componentType":5125,"count":11514,"type":"SCALAR"},{"bufferView":25,"byteOffset":0,"componentType":5126,"count":2020,"max":[3.552077145169639,2.715128377798252,0.9577059491101215],"min":[3.3831054368225177,1.7365025279782438,0.3688602990499159],"type":"VEC3"},{"bufferView":26,"byteOffset":0,"componentType":5125,"count":11514,"type":"SCALAR"},{"bufferView":27,"byteOffset":0,"componentType":5126,"count":2020,"max":[3.552077145169639,3.8912400191196816,0.9576545828081425],"min":[3.3831054368225177,2.9106419658534737,0.37222488931961906],"type":"VEC3"},{"bufferView":28,"byteOffset":0,"componentType":5125,"count":11514,"type":"SCALAR"},{"bufferView":29,"byteOffset":0,"componentType":5126,"count":864,"max":[7.5,-2.4444177775,1.4400140394221],"min":[3.5,-3.181180757549849,0.34166891756627393],"type":"VEC3"},{"bufferView":30,"byteOffset":0,"componentType":5125,"count":4275,"type":"SCALAR"},{"bufferView":31,"byteOffset":0,"componentType":5126,"count":2020,"max":[3.952077145169639,-2.7650940324406794,2.2366],"min":[3.7831054368225177,-2.9176623819609486,1.127],"type":"VEC3"},{"bufferView":32,"byteOffset":0,"componentType":5125,"count":11514,"type":"SCALAR"},{"bufferView":33,"byteOffset":0,"componentType":5126,"count":2020,"max":[3.952077145169639,-2.910671622201748,0.9577059491101215],"min":[3.7831054368225177,-3.889297472021756,0.3688602990499159],"type":"VEC3"},{"bufferView":34,"byteOffset":0,"componentType":5125,"count":11514,"type":"SCALAR"},{"bufferView":35,"byteOffset":0,"componentType":5126,"count":2020,"max":[3.952077145169639,-1.734559980880318,0.9576545828081425],"min":[3.7831054368225177,-2.7151580341465262,0.37222488931961906],"type":"VEC3"},{"bufferView":36,"byteOffset":0,"componentType":5125,"count":11514,"type":"SCALAR"},{"bufferView":37,"byteOffset":0,"componentType":5126,"count":16,"max":[3.378984375,0.606375,-0.07573999999999997],"min":[3.0,-0.606375,-0.62426],"type":"VEC3"},{"bufferView":38,"byteOffset":0,"componentType":5125,"count":48,"type":"SCALAR"},{"bufferView":39,"byteOffset":0,"componentType":5126,"count":16,"max":[3.878984375,0.606375,-0.07573999999999997],"min":[3.5,-0.606375,-0.62426],"type":"VEC3"},{"bufferView":40,"byteOffset":0,"componentType":5125,"count":48,"type":"SCALAR"},{"bufferView":41,"byteOffset":0,"componentType":5126,"count":16,"max":[4.378984375,0.606375,-0.07573999999999997],"min":[4.0,-0.606375,-0.62426],"type":"VEC3"},{"bufferView":42,"byteOffset":0,"componentType":5125,"count":48,"type":"SCALAR"},{"bufferView":43,"byteOffset":0,"componentType":5126,"count":16,"max":[4.878984375,0.606375,-0.07573999999999997],"min":[4.5,-0.606375,-0.62426],"type":"VEC3"},{"bufferView":44,"byteOffset":0,"componentType":5125,"count":48,"type":"SCALAR"},{"bufferView":45,"byteOffset":0,"componentType":5126,"count":16,"max":[5.378984375,0.606375,-0.07573999999999997],"min":[5.0,-0.606375,-0.62426],"type":"VEC3"},{"bufferView":46,"byteOffset":0,"componentType":5125,"count":48,"type":"SCALAR"},{"bufferView":47,"byteOffset":0,"componentType":5126,"count":16,"max":[5.878984375,0.606375,-0.07573999999999997],"min":[5.5,-0.606375,-0.62426],"type":"VEC3"},{"bufferView":48,"byteOffset":0,"componentType":5125,"count":48,"type":"SCALAR"},{"bufferView":49,"byteOffset":0,"componentType":5126,"count":16,"max":[6.378984375,0.606375,-0.07573999999999997],"min":[6.0,-0.606375,-0.62426],"type":"VEC3"},{"bufferView":50,"byteOffset":0,"componentType":5125,"count":48,"type":"SCALAR"},{"bufferView":51,"byteOffset":0,"componentType":5126,"count":16,"max":[6.878984375,0.606375,-0.07573999999999997],"min":[6.5,-0.606375,-0.62426],"type":"VEC3"},{"bufferView":52,"byteOffset":0,"componentType":5125,"count":48,"type":"SCALAR"},{"bufferView":53,"byteOffset":0,"componentType":5126,"count":16,"max":[7.378984375,0.606375,-0.07573999999999997],"min":[7.0,-0.606375,-0.62426],"type":"VEC3"},{"bufferView":54,"byteOffset":0,"componentType":5125,"count":48,"type":"SCALAR"},{"bufferView":55,"byteOffset":0,"componentType":5126,"count":16,"max":[7.878984375,0.606375,-0.07573999999999997],"min":[7.5,-0.606375,-0.62426],"type":"VEC3"},{"bufferView":56,"byteOffset":0,"componentType":5125,"count":48,"type":"SCALAR"},{"bufferView":57,"byteOffset":0,"componentType":5126,"count":16,"max":[8.378984375,0.606375,-0.07573999999999997],"min":[8.0,-0.606375,-0.62426],"type":"VEC3"},{"bufferView":58,"byteOffset":0,"componentType":5125,"count":48,"type":"SCALAR"},{"bufferView":59,"byteOffset":0,"componentType":5126,"count":16,"max":[8.878984375,0.606375,-0.07573999999999997],"min":[8.5,-0.606375,-0.62426],"type":"VEC3"},{"bufferView":60,"byteOffset":0,"componentType":5125,"count":48,"type":"SCALAR"}],"asset":{"generator":"VTK","version":"2.0"},"bufferViews":[{"buffer":0,"byteLength":7200,"byteOffset":0,"target":34962},{"buffer":1,"byteLength":13248,"byteOffset":0,"target":34963},{"buffer":2,"byteLength":7200,"byteOffset":0,"target":34962},{"buffer":3,"byteLength":13248,"byteOffset":0,"target":34963},{"buffer":4,"byteLength":7200,"byteOffset":0,"target":34962},{"buffer":5,"byteLength":13248,"byteOffset":0,"target":34963},{"buffer":6,"byteLength":3636,"byteOffset":0,"target":34962},{"buffer":7,"byteLength":4776,"byteOffset":0,"target":34963},{"buffer":8,"byteLength":3636,"byteOffset":0,"target":34962},{"buffer":9,"byteLength":4776,"byteOffset":0,"target":34963},{"buffer":10,"byteLength":3636,"byteOffset":0,"target":34962},{"buffer":11,"byteLength":4800,"byteOffset":0,"target":34963},{"buffer":12,"byteLength":3636,"byteOffset":0,"target":34962},{"buffer":13,"byteLength":4800,"byteOffset":0,"target":34963},{"buffer":14,"byteLength":3636,"byteOffset":0,"target":34962},{"buffer":15,"byteLength":4800,"byteOffset":0,"target":34963},{"buffer":16,"byteLength":12672,"byteOffset":0,"target":34962},{"buffer":17,"byteLength":20520,"byteOffset":0,"target":34963},{"buffer":18,"byteLength":1440,"byteOffset":0,"target":34962},{"buffer":19,"byteLength":1440,"byteOffset":0,"target":34962},{"buffer":20,"byteLength":2592,"byteOffset":0,"target":34963},{"buffer":21,"byteLength":10368,"byteOffset":0,"target":34962},{"buffer":22,"byteLength":17100,"byteOffset":0,"target":34963},{"buffer":23,"byteLength":24240,"byteOffset":0,"target":34962},{"buffer":24,"byteLength":46056,"byteOffset":0,"target":34963},{"buffer":25,"byteLength":24240,"byteOffset":0,"target":34962},{"buffer":26,"byteLength":46056,"byteOffset":0,"target":34963},{"buffer":27,"byteLength":24240,"byteOffset":0,"target":34962},{"buffer":28,"byteLength":46056,"byteOffset":0,"target":34963},{"buffer":29,"byteLength":10368,"byteOffset":0,"target":34962},{"buffer":30,"byteLength":17100,"byteOffset":0,"target":34963},{"buffer":31,"byteLength":24240,"byteOffset":0,"target":34962},{"buffer":32,"byteLength":46056,"byteOffset":0,"target":34963},{"buffer":33,"byteLength":24240,"byteOffset":0,"target":34962},{"buffer":34,"byteLength":46056,"byteOffset":0,"target":34963},{"buffer":35,"byteLength":24240,"byteOffset":0,"target":34962},{"buffer":36,"byteLength":46056,"byteOffset":0,"target":34963},{"buffer":37,"byteLength":192,"byteOffset":0,"target":34962},{"buffer":38,"byteLength":192,"byteOffset":0,"target":34963},{"buffer":39,"byteLength":192,"byteOffset":0,"target":34962},{"buffer":40,"byteLength":192,"byteOffset":0,"target":34963},{"buffer":41,"byteLength":192,"byteOffset":0,"target":34962},{"buffer":42,"byteLength":192,"byteOffset":0,"target":34963},{"buffer":43,"byteLength":192,"byteOffset":0,"target":34962},{"buffer":44,"byteLength":192,"byteOffset":0,"target":34963},{"buffer":45,"byteLength":192,"byteOffset":0,"target":34962},{"buffer":46,"byteLength":192,"byteOffset":0,"target":34963},{"buffer":47,"byteLength":192,"byteOffset":0,"target":34962},{"buffer":48,"byteLength":192,"byteOffset":0,"target":34963},{"buffer":49,"byteLength":192,"byteOffset":0,"target":34962},{"buffer":50,"byteLength":192,"byteOffset":0,"target":34963},{"buffer":51,"byteLength":192,"byteOffset":0,"target":34962},{"buffer":52,"byteLength":192,"byteOffset":0,"target":34963},{"buffer":53,"byteLength":192,"byteOffset":0,"target":34962},{"buffer":54,"byteLength":192,"byteOffset":0,"target":34963},{"buffer":55,"byteLength":192,"byteOffset":0,"target":34962},{"buffer":56,"byteLength":192,"byteOffset":0,"target":34963},{"buffer":57,"byteLength":192,"byteOffset":0,"target":34962},{"buffer":58,"byteLength":192,"byteOffset":0,"target":34963},{"buffer":59,"byteLength":192,"byteOffset":0,"target":34962},{"buffer":60,"byteLength":192,"byteOffset":0,"target":34963}],"buffers":[{"byteLength":7200,"uri":"data:application/octet-stream;base64,"},{"byteLength":13248,"uri":"data:application/octet-stream;base64,"},{"byteLength":7200,"uri":"data:application/octet-stream;base64,"},{"byteLength":13248,"uri":"data:application/octet-stream;base64,"},{"byteLength":7200,"uri":"data:application/octet-stream;base64,"},{"byteLength":13248,"uri":"data:application/octet-stream;base64,"},{"byteLength":3636,"uri":"data:application/octet-stream;base64,"},{"byteLength":4776,"uri":"data:application/octet-stream;base64,"},{"byteLength":3636,"uri":"data:application/octet-stream;base64,"},{"byteLength":4776,"uri":"data:application/octet-stream;base64,"},{"byteLength":3636,"uri":"data:application/octet-stream;base64,"},{"byteLength":4800,"uri":"data:application/octet-stream;base64,"},{"byteLength":3636,"uri":"data:application/octet-stream;base64,"},{"byteLength":4800,"uri":"data:application/octet-stream;base64,"},{"byteLength":3636,"uri":"data:application/octet-stream;base64,"},{"byteLength":4800,"uri":"data:application/octet-stream;base64,"},{"byteLength":12672,"uri":"data:application/octet-stream;base64,"},{"byteLength":20520,"uri":"data:application/octet-stream;base64,"},{"byteLength":1440,"uri":"data:application/octet-stream;base64,"},{"byteLength":1440,"uri":"data:application/octet-stream;base64,"},{"byteLength":2592,"uri":"data:application/octet-stream;base64,"},{"byteLength":10368,"uri":"data:application/octet-stream;base64,"},{"byteLength":17100,"uri":"data:application/octet-stream;base64,"},{"byteLength":24240,"uri":"data:application/octet-stream;base64,"},{"byteLength":46056,"uri":"data:application/octet-stream;base64,"},{"byteLength":24240,"uri":"data:application/octet-stream;base64,"},{"byteLength":46056,"uri":"data:application/octet-stream;base64,"},{"byteLength":24240,"uri":"data:application/octet-stream;base64,"},{"byteLength":46056,"uri":"data:application/octet-stream;base64,"},{"byteLength":10368,"uri":"data:application/octet-stream;base64,"},{"byteLength":17100,"uri":"data:application/octet-stream;base64,"},{"byteLength":24240,"uri":"data:application/octet-stream;base64,"},{"byteLength":46056,"uri":"data:application/octet-stream;base64,"},{"byteLength":24240,"uri":"data:application/octet-stream;base64,"},{"byteLength":46056,"uri":"data:application/octet-stream;base64,"},{"byteLength":24240,"uri":"data:application/octet-stream;base64,"},{"byteLength":46056,"uri":"data:application/octet-stream;base64,"},{"byteLength":192,"uri":"data:application/octet-stream;base64,"},{"byteLength":192,"uri":"data:application/octet-stream;base64,"},{"byteLength":192,"uri":"data:application/octet-stream;base64,"},{"byteLength":192,"uri":"data:application/octet-stream;base64,"},{"byteLength":192,"uri":"data:application/octet-stream;base64,"},{"byteLength":192,"uri":"data:application/octet-stream;base64,"},{"byteLength":192,"uri":"data:application/octet-stream;base64,"},{"byteLength":192,"uri":"data:application/octet-stream;base64,"},{"byteLength":192,"uri":"data:application/octet-stream;base64,"},{"byteLength":192,"uri":"data:application/octet-stream;base64,"},{"byteLength":192,"uri":"data:application/octet-stream;base64,"},{"byteLength":192,"uri":"data:application/octet-stream;base64,"},{"byteLength":192,"uri":"data:application/octet-stream;base64,"},{"byteLength":192,"uri":"data:application/octet-stream;base64,"},{"byteLength":192,"uri":"data:application/octet-stream;base64,"},{"byteLength":192,"uri":"data:application/octet-stream;base64,"},{"byteLength":192,"uri":"data:application/octet-stream;base64,"},{"byteLength":192,"uri":"data:application/octet-stream;base64,"},{"byteLength":192,"uri":"data:application/octet-stream;base64,"},{"byteLength":192,"uri":"data:application/octet-stream;base64,"},{"byteLength":192,"uri":"data:application/octet-stream;base64,"},{"byteLength":192,"uri":"data:application/octet-stream;base64,"},{"byteLength":192,"uri":"data:application/octet-stream;base64,"},{"byteLength":192,"uri":"data:application/octet-stream;base64,"}],"cameras":[{"perspective":{"aspectRatio":1.0,"yfov":0.5235987755982988,"zfar":67.74988438038208,"znear":11.900870743574988},"type":"perspective"}],"materials":[{"pbrMetallicRoughness":{"baseColorFactor":[0.5019607843137255,0.5019607843137255,0.5019607843137255,1.0],"metallicFactor":0.0,"roughnessFactor":1.0}},{"pbrMetallicRoughness":{"baseColorFactor":[0.5019607843137255,0.5019607843137255,0.5019607843137255,1.0],"metallicFactor":0.0,"roughnessFactor":1.0}},{"pbrMetallicRoughness":{"baseColorFactor":[0.5019607843137255,0.5019607843137255,0.5019607843137255,1.0],"metallicFactor":0.0,"roughnessFactor":1.0}},{"pbrMetallicRoughness":{"baseColorFactor":[0.5019607843137255,0.5019607843137255,0.5019607843137255,0.5],"metallicFactor":0.0,"roughnessFactor":1.0}},{"pbrMetallicRoughness":{"baseColorFactor":[0.5019607843137255,0.5019607843137255,0.5019607843137255,0.5],"metallicFactor":0.0,"roughnessFactor":1.0}},{"pbrMetallicRoughness":{"baseColorFactor":[0.5019607843137255,0.5019607843137255,0.5019607843137255,0.5],"metallicFactor":0.0,"roughnessFactor":1.0}},{"pbrMetallicRoughness":{"baseColorFactor":[0.5019607843137255,0.5019607843137255,0.5019607843137255,0.5],"metallicFactor":0.0,"roughnessFactor":1.0}},{"pbrMetallicRoughness":{"baseColorFactor":[0.5019607843137255,0.5019607843137255,0.5019607843137255,0.5],"metallicFactor":0.0,"roughnessFactor":1.0}},{"pbrMetallicRoughness":{"baseColorFactor":[0.5019607843137255,0.5019607843137255,0.5019607843137255,0.5],"metallicFactor":0.0,"roughnessFactor":1.0}},{"pbrMetallicRoughness":{"baseColorFactor":[0.27450980392156865,0.5098039215686274,0.7058823529411765,1.0],"metallicFactor":0.0,"roughnessFactor":1.0}},{"pbrMetallicRoughness":{"baseColorFactor":[0.5019607843137255,0.5019607843137255,0.5019607843137255,0.5],"metallicFactor":0.0,"roughnessFactor":1.0}},{"pbrMetallicRoughness":{"baseColorFactor":[0.0,0.0,0.0,0.6],"metallicFactor":0.0,"roughnessFactor":1.0}},{"pbrMetallicRoughness":{"baseColorFactor":[0.0,0.0,0.0,0.6],"metallicFactor":0.0,"roughnessFactor":1.0}},{"pbrMetallicRoughness":{"baseColorFactor":[0.0,0.0,0.0,0.6],"metallicFactor":0.0,"roughnessFactor":1.0}},{"pbrMetallicRoughness":{"baseColorFactor":[0.5019607843137255,0.5019607843137255,0.5019607843137255,0.5],"metallicFactor":0.0,"roughnessFactor":1.0}},{"pbrMetallicRoughness":{"baseColorFactor":[0.0,0.0,0.0,0.6],"metallicFactor":0.0,"roughnessFactor":1.0}},{"pbrMetallicRoughness":{"baseColorFactor":[0.0,0.0,0.0,0.6],"metallicFactor":0.0,"roughnessFactor":1.0}},{"pbrMetallicRoughness":{"baseColorFactor":[0.0,0.0,0.0,0.6],"metallicFactor":0.0,"roughnessFactor":1.0}},{"pbrMetallicRoughness":{"baseColorFactor":[0.0,0.5019607843137255,0.0,1.0],"metallicFactor":0.0,"roughnessFactor":1.0}},{"pbrMetallicRoughness":{"baseColorFactor":[0.0,0.5019607843137255,0.0,1.0],"metallicFactor":0.0,"roughnessFactor":1.0}},{"pbrMetallicRoughness":{"baseColorFactor":[0.0,0.5019607843137255,0.0,1.0],"metallicFactor":0.0,"roughnessFactor":1.0}},{"pbrMetallicRoughness":{"baseColorFactor":[0.0,0.5019607843137255,0.0,1.0],"metallicFactor":0.0,"roughnessFactor":1.0}},{"pbrMetallicRoughness":{"baseColorFactor":[0.0,0.5019607843137255,0.0,1.0],"metallicFactor":0.0,"roughnessFactor":1.0}},{"pbrMetallicRoughness":{"baseColorFactor":[0.0,0.5019607843137255,0.0,1.0],"metallicFactor":0.0,"roughnessFactor":1.0}},{"pbrMetallicRoughness":{"baseColorFactor":[0.0,0.5019607843137255,0.0,1.0],"metallicFactor":0.0,"roughnessFactor":1.0}},{"pbrMetallicRoughness":{"baseColorFactor":[0.0,0.5019607843137255,0.0,1.0],"metallicFactor":0.0,"roughnessFactor":1.0}},{"pbrMetallicRoughness":{"baseColorFactor":[0.0,0.5019607843137255,0.0,1.0],"metallicFactor":0.0,"roughnessFactor":1.0}},{"pbrMetallicRoughness":{"baseColorFactor":[0.0,0.5019607843137255,0.0,1.0],"metallicFactor":0.0,"roughnessFactor":1.0}},{"pbrMetallicRoughness":{"baseColorFactor":[0.0,0.5019607843137255,0.0,1.0],"metallicFactor":0.0,"roughnessFactor":1.0}},{"pbrMetallicRoughness":{"baseColorFactor":[0.0,0.5019607843137255,0.0,1.0],"metallicFactor":0.0,"roughnessFactor":1.0}}],"meshes":[{"name":"mesh0","primitives":[{"attributes":{"POSITION":0},"indices":1,"material":0,"mode":4}]},{"name":"mesh1","primitives":[{"attributes":{"POSITION":2},"indices":3,"material":1,"mode":4}]},{"name":"mesh2","primitives":[{"attributes":{"POSITION":4},"indices":5,"material":2,"mode":4}]},{"name":"mesh3","primitives":[{"attributes":{"POSITION":6},"indices":7,"material":3,"mode":4}]},{"name":"mesh4","primitives":[{"attributes":{"POSITION":8},"indices":9,"material":4,"mode":4}]},{"name":"mesh5","primitives":[{"attributes":{"POSITION":10},"indices":11,"material":5,"mode":4}]},{"name":"mesh6","primitives":[{"attributes":{"POSITION":12},"indices":13,"material":6,"mode":4}]},{"name":"mesh7","primitives":[{"attributes":{"POSITION":14},"indices":15,"material":7,"mode":4}]},{"name":"mesh8","primitives":[{"attributes":{"POSITION":16},"indices":17,"material":8,"mode":4}]},{"name":"mesh9","primitives":[{"attributes":{"NORMAL":19,"POSITION":18},"indices":20,"material":9,"mode":4}]},{"name":"mesh10","primitives":[{"attributes":{"POSITION":21},"indices":22,"material":10,"mode":4}]},{"name":"mesh11","primitives":[{"attributes":{"POSITION":23},"indices":24,"material":11,"mode":4}]},{"name":"mesh12","primitives":[{"attributes":{"POSITION":25},"indices":26,"material":12,"mode":4}]},{"name":"mesh13","primitives":[{"attributes":{"POSITION":27},"indices":28,"material":13,"mode":4}]},{"name":"mesh14","primitives":[{"attributes":{"POSITION":29},"indices":30,"material":14,"mode":4}]},{"name":"mesh15","primitives":[{"attributes":{"POSITION":31},"indices":32,"material":15,"mode":4}]},{"name":"mesh16","primitives":[{"attributes":{"POSITION":33},"indices":34,"material":16,"mode":4}]},{"name":"mesh17","primitives":[{"attributes":{"POSITION":35},"indices":36,"material":17,"mode":4}]},{"name":"mesh18","primitives":[{"attributes":{"POSITION":37},"indices":38,"material":18,"mode":4}]},{"name":"mesh19","primitives":[{"attributes":{"POSITION":39},"indices":40,"material":19,"mode":4}]},{"name":"mesh20","primitives":[{"attributes":{"POSITION":41},"indices":42,"material":20,"mode":4}]},{"name":"mesh21","primitives":[{"attributes":{"POSITION":43},"indices":44,"material":21,"mode":4}]},{"name":"mesh22","primitives":[{"attributes":{"POSITION":45},"indices":46,"material":22,"mode":4}]},{"name":"mesh23","primitives":[{"attributes":{"POSITION":47},"indices":48,"material":23,"mode":4}]},{"name":"mesh24","primitives":[{"attributes":{"POSITION":49},"indices":50,"material":24,"mode":4}]},{"name":"mesh25","primitives":[{"attributes":{"POSITION":51},"indices":52,"material":25,"mode":4}]},{"name":"mesh26","primitives":[{"attributes":{"POSITION":53},"indices":54,"material":26,"mode":4}]},{"name":"mesh27","primitives":[{"attributes":{"POSITION":55},"indices":56,"material":27,"mode":4}]},{"name":"mesh28","primitives":[{"attributes":{"POSITION":57},"indices":58,"material":28,"mode":4}]},{"name":"mesh29","primitives":[{"attributes":{"POSITION":59},"indices":60,"material":29,"mode":4}]}],"nodes":[{"matrix":[2.220446049250314e-16,-3.330669073875469e-16,1.0000000000000002,0.0,1.0,2.220446049250313e-16,-2.220446049250313e-16,0.0,-2.2204460492503128e-16,1.0000000000000002,3.3306690738754696e-16,0.0,0.0,0.0,0.0,1.0],"mesh":0,"name":"mesh0"},{"matrix":[2.220446049250314e-16,-3.330669073875469e-16,1.0000000000000002,0.0,1.0,2.220446049250313e-16,-2.220446049250313e-16,0.0,-2.2204460492503128e-16,1.0000000000000002,3.3306690738754696e-16,0.0,0.0,0.0,0.0,1.0],"mesh":1,"name":"mesh1"},{"matrix":[2.220446049250314e-16,-3.330669073875469e-16,1.0000000000000002,0.0,1.0,2.220446049250313e-16,-2.220446049250313e-16,0.0,-2.2204460492503128e-16,1.0000000000000002,3.3306690738754696e-16,0.0,0.0,0.0,0.0,1.0],"mesh":2,"name":"mesh2"},{"matrix":[2.220446049250314e-16,-3.330669073875469e-16,1.0000000000000002,0.0,1.0,2.220446049250313e-16,-2.220446049250313e-16,0.0,-2.2204460492503128e-16,1.0000000000000002,3.3306690738754696e-16,0.0,0.0,0.0,0.0,1.0],"mesh":3,"name":"mesh3"},{"matrix":[2.220446049250314e-16,-3.330669073875469e-16,1.0000000000000002,0.0,1.0,2.220446049250313e-16,-2.220446049250313e-16,0.0,-2.2204460492503128e-16,1.0000000000000002,3.3306690738754696e-16,0.0,0.0,0.0,0.0,1.0],"mesh":4,"name":"mesh4"},{"matrix":[2.220446049250314e-16,-3.330669073875469e-16,1.0000000000000002,0.0,1.0,2.220446049250313e-16,-2.220446049250313e-16,0.0,-2.2204460492503128e-16,1.0000000000000002,3.3306690738754696e-16,0.0,0.0,0.0,0.0,1.0],"mesh":5,"name":"mesh5"},{"matrix":[2.220446049250314e-16,-3.330669073875469e-16,1.0000000000000002,0.0,1.0,2.220446049250313e-16,-2.220446049250313e-16,0.0,-2.2204460492503128e-16,1.0000000000000002,3.3306690738754696e-16,0.0,0.0,0.0,0.0,1.0],"mesh":6,"name":"mesh6"},{"matrix":[2.220446049250314e-16,-3.330669073875469e-16,1.0000000000000002,0.0,1.0,2.220446049250313e-16,-2.220446049250313e-16,0.0,-2.2204460492503128e-16,1.0000000000000002,3.3306690738754696e-16,0.0,0.0,0.0,0.0,1.0],"mesh":7,"name":"mesh7"},{"matrix":[2.220446049250314e-16,-3.330669073875469e-16,1.0000000000000002,0.0,1.0,2.220446049250313e-16,-2.220446049250313e-16,0.0,-2.2204460492503128e-16,1.0000000000000002,3.3306690738754696e-16,0.0,0.0,0.0,0.0,1.0],"mesh":8,"name":"mesh8"},{"matrix":[2.220446049250314e-16,-3.330669073875469e-16,1.0000000000000002,0.0,1.0,2.220446049250313e-16,-2.220446049250313e-16,0.0,-2.2204460492503128e-16,1.0000000000000002,3.3306690738754696e-16,0.0,0.0,0.0,0.0,1.0],"mesh":9,"name":"mesh9"},{"matrix":[2.220446049250314e-16,-3.330669073875469e-16,1.0000000000000002,0.0,1.0,2.220446049250313e-16,-2.220446049250313e-16,0.0,-2.2204460492503128e-16,1.0000000000000002,3.3306690738754696e-16,0.0,0.0,0.0,0.0,1.0],"mesh":10,"name":"mesh10"},{"matrix":[2.220446049250314e-16,-3.330669073875469e-16,1.0000000000000002,0.0,1.0,2.220446049250313e-16,-2.220446049250313e-16,0.0,-2.2204460492503128e-16,1.0000000000000002,3.3306690738754696e-16,0.0,0.0,0.0,0.0,1.0],"mesh":11,"name":"mesh11"},{"matrix":[2.220446049250314e-16,-3.330669073875469e-16,1.0000000000000002,0.0,1.0,2.220446049250313e-16,-2.220446049250313e-16,0.0,-2.2204460492503128e-16,1.0000000000000002,3.3306690738754696e-16,0.0,0.0,0.0,0.0,1.0],"mesh":12,"name":"mesh12"},{"matrix":[2.220446049250314e-16,-3.330669073875469e-16,1.0000000000000002,0.0,1.0,2.220446049250313e-16,-2.220446049250313e-16,0.0,-2.2204460492503128e-16,1.0000000000000002,3.3306690738754696e-16,0.0,0.0,0.0,0.0,1.0],"mesh":13,"name":"mesh13"},{"matrix":[2.220446049250314e-16,-3.330669073875469e-16,1.0000000000000002,0.0,1.0,2.220446049250313e-16,-2.220446049250313e-16,0.0,-2.2204460492503128e-16,1.0000000000000002,3.3306690738754696e-16,0.0,0.0,0.0,0.0,1.0],"mesh":14,"name":"mesh14"},{"matrix":[2.220446049250314e-16,-3.330669073875469e-16,1.0000000000000002,0.0,1.0,2.220446049250313e-16,-2.220446049250313e-16,0.0,-2.2204460492503128e-16,1.0000000000000002,3.3306690738754696e-16,0.0,0.0,0.0,0.0,1.0],"mesh":15,"name":"mesh15"},{"matrix":[2.220446049250314e-16,-3.330669073875469e-16,1.0000000000000002,0.0,1.0,2.220446049250313e-16,-2.220446049250313e-16,0.0,-2.2204460492503128e-16,1.0000000000000002,3.3306690738754696e-16,0.0,0.0,0.0,0.0,1.0],"mesh":16,"name":"mesh16"},{"matrix":[2.220446049250314e-16,-3.330669073875469e-16,1.0000000000000002,0.0,1.0,2.220446049250313e-16,-2.220446049250313e-16,0.0,-2.2204460492503128e-16,1.0000000000000002,3.3306690738754696e-16,0.0,0.0,0.0,0.0,1.0],"mesh":17,"name":"mesh17"},{"matrix":[2.220446049250314e-16,-3.330669073875469e-16,1.0000000000000002,0.0,1.0,2.220446049250313e-16,-2.220446049250313e-16,0.0,-2.2204460492503128e-16,1.0000000000000002,3.3306690738754696e-16,0.0,0.0,0.0,0.0,1.0],"mesh":18,"name":"mesh18"},{"matrix":[2.220446049250314e-16,-3.330669073875469e-16,1.0000000000000002,0.0,1.0,2.220446049250313e-16,-2.220446049250313e-16,0.0,-2.2204460492503128e-16,1.0000000000000002,3.3306690738754696e-16,0.0,0.0,0.0,0.0,1.0],"mesh":19,"name":"mesh19"},{"matrix":[2.220446049250314e-16,-3.330669073875469e-16,1.0000000000000002,0.0,1.0,2.220446049250313e-16,-2.220446049250313e-16,0.0,-2.2204460492503128e-16,1.0000000000000002,3.3306690738754696e-16,0.0,0.0,0.0,0.0,1.0],"mesh":20,"name":"mesh20"},{"matrix":[2.220446049250314e-16,-3.330669073875469e-16,1.0000000000000002,0.0,1.0,2.220446049250313e-16,-2.220446049250313e-16,0.0,-2.2204460492503128e-16,1.0000000000000002,3.3306690738754696e-16,0.0,0.0,0.0,0.0,1.0],"mesh":21,"name":"mesh21"},{"matrix":[2.220446049250314e-16,-3.330669073875469e-16,1.0000000000000002,0.0,1.0,2.220446049250313e-16,-2.220446049250313e-16,0.0,-2.2204460492503128e-16,1.0000000000000002,3.3306690738754696e-16,0.0,0.0,0.0,0.0,1.0],"mesh":22,"name":"mesh22"},{"matrix":[2.220446049250314e-16,-3.330669073875469e-16,1.0000000000000002,0.0,1.0,2.220446049250313e-16,-2.220446049250313e-16,0.0,-2.2204460492503128e-16,1.0000000000000002,3.3306690738754696e-16,0.0,0.0,0.0,0.0,1.0],"mesh":23,"name":"mesh23"},{"matrix":[2.220446049250314e-16,-3.330669073875469e-16,1.0000000000000002,0.0,1.0,2.220446049250313e-16,-2.220446049250313e-16,0.0,-2.2204460492503128e-16,1.0000000000000002,3.3306690738754696e-16,0.0,0.0,0.0,0.0,1.0],"mesh":24,"name":"mesh24"},{"matrix":[2.220446049250314e-16,-3.330669073875469e-16,1.0000000000000002,0.0,1.0,2.220446049250313e-16,-2.220446049250313e-16,0.0,-2.2204460492503128e-16,1.0000000000000002,3.3306690738754696e-16,0.0,0.0,0.0,0.0,1.0],"mesh":25,"name":"mesh25"},{"matrix":[2.220446049250314e-16,-3.330669073875469e-16,1.0000000000000002,0.0,1.0,2.220446049250313e-16,-2.220446049250313e-16,0.0,-2.2204460492503128e-16,1.0000000000000002,3.3306690738754696e-16,0.0,0.0,0.0,0.0,1.0],"mesh":26,"name":"mesh26"},{"matrix":[2.220446049250314e-16,-3.330669073875469e-16,1.0000000000000002,0.0,1.0,2.220446049250313e-16,-2.220446049250313e-16,0.0,-2.2204460492503128e-16,1.0000000000000002,3.3306690738754696e-16,0.0,0.0,0.0,0.0,1.0],"mesh":27,"name":"mesh27"},{"matrix":[2.220446049250314e-16,-3.330669073875469e-16,1.0000000000000002,0.0,1.0,2.220446049250313e-16,-2.220446049250313e-16,0.0,-2.2204460492503128e-16,1.0000000000000002,3.3306690738754696e-16,0.0,0.0,0.0,0.0,1.0],"mesh":28,"name":"mesh28"},{"matrix":[2.220446049250314e-16,-3.330669073875469e-16,1.0000000000000002,0.0,1.0,2.220446049250313e-16,-2.220446049250313e-16,0.0,-2.2204460492503128e-16,1.0000000000000002,3.3306690738754696e-16,0.0,0.0,0.0,0.0,1.0],"mesh":29,"name":"mesh29"},{"camera":0,"matrix":[0.5547001962252291,-0.8320502943378436,1.2914808652914559e-17,-0.0,0.3195993709027957,0.2130662472685305,0.9232870714969654,0.0,-0.7682212795973756,-0.5121475197315839,0.38411063979868787,-0.0,-19.810000000000002,-19.81,14.8575,1.0],"name":"Camera Node"},{"children":[0,1,2,3,4,5,6,7,8,9,10,11,12,13,14,15,16,17,18,19,20,21,22,23,24,25,26,27,28,29,30],"name":"Renderer Node"}],"scene":0,"scenes":[{"name":"Layer 0","nodes":[31]}]}