{"accessors":[{"bufferView":0,"byteOffset":0,"componentType":5126,"count":600,"max":[9.880888910351018,2.32065,-0.8383110896489809],"min":[9.119111089648982,2.0799131847565397,-1.6000889103510192],"type":"VEC3"},{"bufferView":1,"byteOffset":0,"componentType":5125,"count":3312,"type":"SCALAR"},{"bufferView":2,"byteOffset":0,"componentType":5126,"count":600,"max":[9.880888910351018,-2.0793500000000003,-0.8383110896489809],"min":[9.119111089648982,-2.3200868152434606,-1.6000889103510192],"type":"VEC3"},{"bufferView":3,"byteOffset":0,"componentType":5125,"count":3312,"type":"SCALAR"},{"bufferView":4,"byteOffset":0,"componentType":5126,"count":600,"max":[2.279311128280815,-0.125,-0.6350888717191849],"min":[1.7206888717191848,-0.2897146630613151,-1.1937111282808153],"type":"VEC3"},{"bufferView":5,"byteOffset":0,"componentType":5125,"count":3312,"type":"SCALAR"},{"bufferView":6,"byteOffset":0,"componentType":5126,"count":600,"max":[2.279311128280815,0.2901,-0.6350888717191849],"min":[1.7206888717191848,0.1253853369386849,-1.1937111282808153],"type":"VEC3"},{"bufferView":7,"byteOffset":0,"componentType":5125,"count":3312,"type":"SCALAR"},{"bufferView":8,"byteOffset":0,"componentType":5126,"count":909,"max":[15.97532289591754,6.519499999999999,0.7131625327178877],"min":[4.144258232108033,0.0,0.36578992143842204],"type":"VEC3"},{"bufferView":9,"byteOffset":0,"componentType":5125,"count":4818,"type":"SCALAR"},{"bufferView":10,"byteOffset":0,"componentType":5126,"count":909,"max":[15.97532289591754,-0.0,0.7131625327178877],"min":[4.144258232108033,-6.519499999999999,0.36578992143842204],"type":"VEC3"},{"bufferView":11,"byteOffset":0,"componentType":5125,"count":4818,"type":"SCALAR"},{"bufferView":12,"byteOffset":0,"componentType":5126,"count":404,"max":[15.472,4.240314999999999,0.4807641461854573],"min":[12.75,1.311,0.3719274905183786],"type":"VEC3"},{"bufferView":13,"byteOffset":0,"componentType":5125,"count":1806,"type":"SCALAR"},{"bufferView":14,"byteOffset":0,"componentType":5126,"count":404,"max":[15.472,-1.311,0.4807641461854573],"min":[12.75,-4.240314999999999,0.3719274905183786],"type":"VEC3"},{"bufferView":15,"byteOffset":0,"componentType":5125,"count":1806,"type":"SCALAR"},{"bufferView":16,"byteOffset":0,"componentType":5126,"count":303,"max":[15.065980417696672,2.575,2.3638238355426857],"min":[11.686,1.475,0.3774499584228205],"type":"VEC3"},{"bufferView":17,"byteOffset":0,"componentType":5125,"count":1200,"type":"SCALAR"},{"bufferView":18,"byteOffset":0,"componentType":5126,"count":303,"max":[15.065980417696672,-1.475,2.3638238355426857],"min":[11.686,-2.575,0.3774499584228205],"type":"VEC3"},{"bufferView":19,"byteOffset":0,"componentType":5125,"count":1200,"type":"SCALAR"},{"bufferView":20,"byteOffset":0,"componentType":5126,"count":1440,"max":[13.6,0.875,1.558893296037269],"min":[0.0,-0.8742641086148674,-0.651610736955329],"type":"VEC3"},{"bufferView":21,"byteOffset":0,"componentType":5125,"count":7410,"type":"SCALAR"},{"bufferView":22,"byteOffset":0,"componentType":5126,"count":1248,"max":[21.59,0.585,0.5849200334205943],"min":[16.0,-0.5846801555444417,-0.5849200334205943],"type":"VEC3"},{"bufferView":23,"byteOffset":0,"componentType":5125,"count":6270,"type":"SCALAR"},{"bufferView":24,"byteOffset":0,"componentType":5126,"count":480,"max":[14.004999999999999,1.783703,0.588256573782902],"min":[4.047915549016182,0.5971567839366965,-0.5207355787469161],"type":"VEC3"},{"bufferView":25,"byteOffset":0,"componentType":5125,"count":1995,"type":"SCALAR"},{"bufferView":26,"byteOffset":0,"componentType":5126,"count":1248,"max":[21.59,0.585,0.5849200334205943],"min":[16.0,-0.5846801555444417,-0.5849200334205943],"type":"VEC3"},{"bufferView":27,"byteOffset":0,"componentType":5125,"count":6270,"type":"SCALAR"},{"bufferView":28,"byteOffset":0,"componentType":5126,"count":480,"max":[14.004999999999999,-0.59700055,0.5883166787469162],"min":[4.048077597585797,-1.783550301237868,-0.5206754737829018],"type":"VEC3"},{"bufferView":29,"byteOffset":0,"componentType":5125,"count":1995,"type":"SCALAR"}],"asset":{"generator":"VTK","version":"2.0"},"bufferViews":[{"buffer":0,"byteLength":7200,"byteOffset":0,"target":34962},{"buffer":1,"byteLength":13248,"byteOffset":0,"target":34963},{"buffer":2,"byteLength":7200,"byteOffset":0,"target":34962},{"buffer":3,"byteLength":13248,"byteOffset":0,"target":34963},{"buffer":4,"byteLength":7200,"byteOffset":0,"target":34962},{"buffer":5,"byteLength":13248,"byteOffset":0,"target":34963},{"buffer":6,"byteLength":7200,"byteOffset":0,"target":34962},{"buffer":7,"byteLength":13248,"byteOffset":0,"target":34963},{"buffer":8,"byteLength":10908,"byteOffset":0,"target":34962},{"buffer":9,"byteLength":19272,"byteOffset":0,"target":34963},{"buffer":10,"byteLength":10908,"byteOffset":0,"target":34962},{"buffer":11,"byteLength":19272,"byteOffset":0,"target":34963},{"buffer":12,"byteLength":4848,"byteOffset":0,"target":34962},{"buffer":13,"byteLength":7224,"byteOffset":0,"target":34963},{"buffer":14,"byteLength":4848,"byteOffset":0,"target":34962},{"buffer":15,"byteLength":7224,"byteOffset":0,"target":34963},{"buffer":16,"byteLength":3636,"byteOffset":0,"target":34962},{"buffer":17,"byteLength":4800,"byteOffset":0,"target":34963},{"buffer":18,"byteLength":3636,"byteOffset":0,"target":34962},{"buffer":19,"byteLength":4800,"byteOffset":0,"target":34963},{"buffer":20,"byteLength":17280,"byteOffset":0,"target":34962},{"buffer":21,"byteLength":29640,"byteOffset":0,"target":34963},{"buffer":22,"byteLength":14976,"byteOffset":0,"target":34962},{"buffer":23,"byteLength":25080,"byteOffset":0,"target":34963},{"buffer":24,"byteLength":5760,"byteOffset":0,"target":34962},{"buffer":25,"byteLength":7980,"byteOffset":0,"target":34963},{"buffer":26,"byteLength":14976,"byteOffset":0,"target":34962},{"buffer":27,"byteLength":25080,"byteOffset":0,"target":34963},{"buffer":28,"byteLength":5760,"byteOffset":0,"target":34962},{"buffer":29,"byteLength":7980,"byteOffset":0,"target":34963}],"buffers":[{"byteLength":7200,"uri":"data:application/octet-stream;base64,"},{"byteLength":13248,"uri":"data:application/octet-stream;base64,"},{"byteLength":7200,"uri":"data:application/octet-stream;base64,"},{"byteLength":13248,"uri":"data:application/octet-stream;base64,"},{"byteLength":7200,"uri":"data:application/octet-stream;base64,"},{"byteLength":13248,"uri":"data:application/octet-stream;base64,"},{"byteLength":7200,"uri":"data:application/octet-stream;base64,"},{"byteLength":13248,"uri":"data:application/octet-stream;base64,"},{"byteLength":10908,"uri":"data:application/octet-stream;base64,"},{"byteLength":19272,"uri":"data:application/octet-stream;base64,"},{"byteLength":10908,"uri":"data:application/octet-stream;base64,"},{"byteLength":19272,"uri":"data:application/octet-stream;base64,"},{"byteLength":4848,"uri":"data:application/octet-stream;base64,"},{"byteLength":7224,"uri":"data:application/octet-stream;base64,"},{"byteLength":4848,"uri":"data:application/octet-stream;base64,"},{"byteLength":7224,"uri":"data:application/octet-stream;base64,"},{"byteLength":3636,"uri":"data:application/octet-stream;base64,"},{"byteLength":4800,"uri":"data:application/octet-stream;base64,"},{"byteLength":3636,"uri":"data:application/octet-stream;base64,"},{"byteLength":4800,"uri":"data:application/octet-stream;base64,"},{"byteLength":17280,"uri":"data:application/octet-stream;base64,"},{"byteLength":29640,"uri":"data:application/octet-stream;base64,"},{"byteLength":14976,"uri":"data:application/octet-stream;base64,"},{"byteLength":25080,"uri":"data:application/octet-stream;base64,"},{"byteLength":5760,"uri":"data:application/octet-stream;base64,"},{"byteLength":7980,"uri":"data:application/octet-stream;base64,"},{"byteLength":14976,"uri":"data:application/octet-stream;base64,"},{"byteLength":25080,"uri":"data:application/octet-stream;base64,"},{"byteLength":5760,"uri":"data:application/octet-stream;base64,"},{"byteLength":7980,"uri":"data:application/octet-stream;base64,"}],"cameras":[{"perspective":{"aspectRatio":1.0,"yfov":0.5235987755982988,"zfar":60.96430017953527,"znear":4.520003271918398},"type":"perspective"}],"materials":[{"pbrMetallicRoughness":{"baseColorFactor":[0.5019607843137255,0.5019607843137255,0.5019607843137255,1.0],"metallicFactor":0.0,"roughnessFactor":1.0}},{"pbrMetallicRoughness":{"baseColorFactor":[0.5019607843137255,0.5019607843137255,0.5019607843137255,1.0],"metallicFactor":0.0,"roughnessFactor":1.0}},{"pbrMetallicRoughness":{"baseColorFactor":[0.5019607843137255,0.5019607843137255,0.5019607843137255,1.0],"metallicFactor":0.0,"roughnessFactor":1.0}},{"pbrMetallicRoughness":{"baseColorFactor":[0.5019607843137255,0.5019607843137255,0.5019607843137255,1.0],"metallicFactor":0.0,"roughnessFactor":1.0}},{"pbrMetallicRoughness":{"baseColorFactor":[0.5019607843137255,0.5019607843137255,0.5019607843137255,0.5],"metallicFactor":0.0,"roughnessFactor":1.0}},{"pbrMetallicRoughness":{"baseColorFactor":[0.5019607843137255,0.5019607843137255,0.5019607843137255,0.5],"metallicFactor":0.0,"roughnessFactor":1.0}},{"pbrMetallicRoughness":{"baseColorFactor":[0.5019607843137255,0.5019607843137255,0.5019607843137255,0.5],"metallicFactor":0.0,"roughnessFactor":1.0}},{"pbrMetallicRoughness":{"baseColorFactor":[0.5019607843137255,0.5019607843137255,0.5019607843137255,0.5],"metallicFactor":0.0,"roughnessFactor":1.0}},{"pbrMetallicRoughness":{"baseColorFactor":[0.5019607843137255,0.5019607843137255,0.5019607843137255,0.5],"metallicFactor":0.0,"roughnessFactor":1.0}},{"pbrMetallicRoughness":{"baseColorFactor":[0.5019607843137255,0.5019607843137255,0.5019607843137255,0.5],"metallicFactor":0.0,"roughnessFactor":1.0}},{"pbrMetallicRoughness":{"baseColorFactor":[0.5019607843137255,0.5019607843137255,0.5019607843137255,0.5],"metallicFactor":0.0,"roughnessFactor":1.0}},{"pbrMetallicRoughness":{"baseColorFactor":[0.0,0.0,0.0,0.5],"metallicFactor":0.0,"roughnessFactor":1.0}},{"pbrMetallicRoughness":{"baseColorFactor":[0.5019607843137255,0.5019607843137255,0.5019607843137255,0.5],"metallicFactor":0.0,"roughnessFactor":1.0}},{"pbrMetallicRoughness":{"baseColorFactor":[0.0,0.0,0.0,0.5],"metallicFactor":0.0,"roughnessFactor":1.0}},{"pbrMetallicRoughness":{"baseColorFactor":[0.5019607843137255,0.5019607843137255,0.5019607843137255,0.5],"metallicFactor":0.0,"roughnessFactor":1.0}}],"meshes":[{"name":"mesh0","primitives":[{"attributes":{"POSITION":0},"indices":1,"material":0,"mode":4}]},{"name":"mesh1","primitives":[{"attributes":{"POSITION":2},"indices":3,"material":1,"mode":4}]},{"name":"mesh2","primitives":[{"attributes":{"POSITION":4},"indices":5,"material":2,"mode":4}]},{"name":"mesh3","primitives":[{"attributes":{"POSITION":6},"indices":7,"material":3,"mode":4}]},{"name":"mesh4","primitives":[{"attributes":{"POSITION":8},"indices":9,"material":4,"mode":4}]},{"name":"mesh5","primitives":[{"attributes":{"POSITION":10},"indices":11,"material":5,"mode":4}]},{"name":"mesh6","primitives":[{"attributes":{"POSITION":12},"indices":13,"material":6,"mode":4}]},{"name":"mesh7","primitives":[{"attributes":{"POSITION":14},"indices":15,"material":7,"mode":4}]},{"name":"mesh8","primitives":[{"attributes":{"POSITION":16},"indices":17,"material":8,"mode":4}]},{"name":"mesh9","primitives":[{"attributes":{"POSITION":18},"indices":19,"material":9,"mode":4}]},{"name":"mesh10","primitives":[{"attributes":{"POSITION":20},"indices":21,"material":10,"mode":4}]},{"name":"mesh11","primitives":[{"attributes":{"POSITION":22},"indices":23,"material":11,"mode":4}]},{"name":"mesh12","primitives":[{"attributes":{"POSITION":24},"indices":25,"material":12,"mode":4}]},{"name":"mesh13","primitives":[{"attributes":{"POSITION":26},"indices":27,"material":13,"mode":4}]},{"name":"mesh14","primitives":[{"attributes":{"POSITION":28},"indices":29,"material":14,"mode":4}]}],"nodes":[{"matrix":[2.220446049250314e-16,-3.330669073875469e-16,1.0000000000000002,0.0,1.0,2.220446049250313e-16,-2.220446049250313e-16,0.0,-2.2204460492503128e-16,1.0000000000000002,3.3306690738754696e-16,0.0,0.0,0.0,0.0,1.0],"mesh":0,"name":"mesh0"},{"matrix":[2.220446049250314e-16,-3.330669073875469e-16,1.0000000000000002,0.0,1.0,2.220446049250313e-16,-2.220446049250313e-16,0.0,-2.2204460492503128e-16,1.0000000000000002,3.3306690738754696e-16,0.0,0.0,0.0,0.0,1.0],"mesh":1,"name":"mesh1"},{"matrix":[2.220446049250314e-16,-3.330669073875469e-16,1.0000000000000002,0.0,1.0,2.220446049250313e-16,-2.220446049250313e-16,0.0,-2.2204460492503128e-16,1.0000000000000002,3.3306690738754696e-16,0.0,0.0,0.0,0.0,1.0],"mesh":2,"name":"mesh2"},{"matrix":[2.220446049250314e-16,-3.330669073875469e-16,1.0000000000000002,0.0,1.0,2.220446049250313e-16,-2.220446049250313e-16,0.0,-2.2204460492503128e-16,1.0000000000000002,3.3306690738754696e-16,0.0,0.0,0.0,0.0,1.0],"mesh":3,"name":"mesh3"},{"matrix":[2.220446049250314e-16,-3.330669073875469e-16,1.0000000000000002,0.0,1.0,2.220446049250313e-16,-2.220446049250313e-16,0.0,-2.2204460492503128e-16,1.0000000000000002,3.3306690738754696e-16,0.0,0.0,0.0,0.0,1.0],"mesh":4,"name":"mesh4"},{"matrix":[2.220446049250314e-16,-3.330669073875469e-16,1.0000000000000002,0.0,1.0,2.220446049250313e-16,-2.220446049250313e-16,0.0,-2.2204460492503128e-16,1.0000000000000002,3.3306690738754696e-16,0.0,0.0,0.0,0.0,1.0],"mesh":5,"name":"mesh5"},{"matrix":[2.220446049250314e-16,-3.330669073875469e-16,1.0000000000000002,0.0,1.0,2.220446049250313e-16,-2.220446049250313e-16,0.0,-2.2204460492503128e-16,1.0000000000000002,3.3306690738754696e-16,0.0,0.0,0.0,0.0,1.0],"mesh":6,"name":"mesh6"},{"matrix":[2.220446049250314e-16,-3.330669073875469e-16,1.0000000000000002,0.0,1.0,2.220446049250313e-16,-2.220446049250313e-16,0.0,-2.2204460492503128e-16,1.0000000000000002,3.3306690738754696e-16,0.0,0.0,0.0,0.0,1.0],"mesh":7,"name":"mesh7"},{"matrix":[2.220446049250314e-16,-3.330669073875469e-16,1.0000000000000002,0.0,1.0,2.220446049250313e-16,-2.220446049250313e-16,0.0,-2.2204460492503128e-16,1.0000000000000002,3.3306690738754696e-16,0.0,0.0,0.0,0.0,1.0],"mesh":8,"name":"mesh8"},{"matrix":[2.220446049250314e-16,-3.330669073875469e-16,1.0000000000000002,0.0,1.0,2.220446049250313e-16,-2.220446049250313e-16,0.0,-2.2204460492503128e-16,1.0000000000000002,3.3306690738754696e-16,0.0,0.0,0.0,0.0,1.0],"mesh":9,"name":"mesh9"},{"matrix":[2.220446049250314e-16,-3.330669073875469e-16,1.0000000000000002,0.0,1.0,2.220446049250313e-16,-2.220446049250313e-16,0.0,-2.2204460492503128e-16,1.0000000000000002,3.3306690738754696e-16,0.0,0.0,0.0,0.0,1.0],"mesh":10,"name":"mesh10"},{"matrix":[2.220446049250314e-16,-3.330669073875469e-16,1.0000000000000002,0.0,1.0,2.220446049250313e-16,-2.220446049250313e-16,0.0,-2.2204460492503128e-16,1.0000000000000002,3.3306690738754696e-16,0.0,0.0,0.0,0.0,1.0],"mesh":11,"name":"mesh11"},{"matrix":[2.220446049250314e-16,-3.330669073875469e-16,1.0000000000000002,0.0,1.0,2.220446049250313e-16,-2.220446049250313e-16,0.0,-2.2204460492503128e-16,1.0000000000000002,3.3306690738754696e-16,0.0,0.0,0.0,0.0,1.0],"mesh":12,"name":"mesh12"},{"matrix":[2.220446049250314e-16,-3.330669073875469e-16,1.0000000000000002,0.0,1.0,2.220446049250313e-16,-2.220446049250313e-16,0.0,-2.2204460492503128e-16,1.0000000000000002,3.3306690738754696e-16,0.0,0.0,0.0,0.0,1.0],"mesh":13,"name":"mesh13"},{"matrix":[2.220446049250314e-16,-3.330669073875469e-16,1.0000000000000002,0.0,1.0,2.220446049250313e-16,-2.220446049250313e-16,0.0,-2.2204460492503128e-16,1.0000000000000002,3.3306690738754696e-16,0.0,0.0,0.0,0.0,1.0],"mesh":14,"name":"mesh14"},{"camera":0,"matrix":[0.554700196225229,-0.8320502943378435,-7.113684555143346e-18,-0.0,0.3195993709027957,0.21306624726853046,0.9232870714969653,0.0,-0.7682212795973757,-0.5121475197315839,0.38411063979868787,-0.0,-13.6,-13.599999999999998,10.200000000000001,1.0],"name":"Camera Node"},{"children":[0,1,2,3,4,5,6,7,8,9,10,11,12,13,14,15],"name":"Renderer Node"}],"scene":0,"scenes":[{"name":"Layer 0","nodes":[16]}]}