{"accessors":[{"bufferView":0,"byteOffset":0,"componentType":5126,"count":600,"max":[14.50782225656163,2.125,-1.7921777434383692],"min":[13.49217774343837,1.7068781629982,-2.8078222565616304],"type":"VEC3"},{"bufferView":1,"byteOffset":0,"componentType":5125,"count":3312,"type":"SCALAR"},{"bufferView":2,"byteOffset":0,"componentType":5126,"count":600,"max":[14.50782225656163,-1.7059,-1.7921777434383692],"min":[13.49217774343837,-2.1240218370018,-2.8078222565616304],"type":"VEC3"},{"bufferView":3,"byteOffset":0,"componentType":5125,"count":3312,"type":"SCALAR"},{"bufferView":4,"byteOffset":0,"componentType":5126,"count":600,"max":[14.50782225656163,2.7941000000000003,-1.7921777434383692],"min":[13.49217774343837,2.3759781629982,-2.8078222565616304],"type":"VEC3"},{"bufferView":5,"byteOffset":0,"componentType":5125,"count":3312,"type":"SCALAR"},{"bufferView":6,"byteOffset":0,"componentType":5126,"count":600,"max":[14.50782225656163,-2.375,-1.7921777434383692],"min":[13.49217774343837,-2.7931218370018,-2.8078222565616304],"type":"VEC3"},{"bufferView":7,"byteOffset":0,"componentType":5125,"count":3312,"type":"SCALAR"},{"bufferView":8,"byteOffset":0,"componentType":5126,"count":600,"max":[3.4951222565616304,-0.125,-1.8048777434383694],"min":[2.5048777434383696,-0.4290886087285817,-2.7951222565616303],"type":"VEC3"},{"bufferView":9,"byteOffset":0,"componentType":5125,"count":3312,"type":"SCALAR"},{"bufferView":10,"byteOffset":0,"componentType":5126,"count":600,"max":[3.4951222565616304,0.42979999999999996,-1.8048777434383694],"min":[2.5048777434383696,0.12571139127141825,-2.7951222565616303],"type":"VEC3"},{"bufferView":11,"byteOffset":0,"componentType":5125,"count":3312,"type":"SCALAR"},{"bufferView":12,"byteOffset":0,"componentType":5126,"count":505,"max":[22.175133149033186,17.55,2.4215498422837167],"min":[10.543,0.0,-1.3231054749106628],"type":"VEC3"},{"bufferView":13,"byteOffset":0,"componentType":5125,"count":2397,"type":"SCALAR"},{"bufferView":14,"byteOffset":0,"componentType":5126,"count":505,"max":[22.175133149033186,-0.0,2.4215498422837167],"min":[10.543,-17.55,-1.3231054749106628],"type":"VEC3"},{"bufferView":15,"byteOffset":0,"componentType":5125,"count":2397,"type":"SCALAR"},{"bufferView":16,"byteOffset":0,"componentType":5126,"count":303,"max":[34.26377750655048,6.15,1.9593622089166614],"min":[28.852,0.0,1.1055291029562082],"type":"VEC3"},{"bufferView":17,"byteOffset":0,"componentType":5125,"count":1200,"type":"SCALAR"},{"bufferView":18,"byteOffset":0,"componentType":5126,"count":303,"max":[34.26377750655048,-0.0,1.9593622089166614],"min":[28.852,-6.15,1.1055291029562082],"type":"VEC3"},{"bufferView":19,"byteOffset":0,"componentType":5125,"count":1200,"type":"SCALAR"},{"bufferView":20,"byteOffset":0,"componentType":5126,"count":303,"max":[33.78584959582981,0.21976873067634212,8.3819],"min":[25.328,-0.21976873067634212,1.311],"type":"VEC3"},{"bufferView":21,"byteOffset":0,"componentType":5125,"count":1200,"type":"SCALAR"},{"bufferView":22,"byteOffset":0,"componentType":5126,"count":1440,"max":[34.9,1.75,2.6084731142360678],"min":[0.0,-1.7490432003466205,-1.092417114236068],"type":"VEC3"},{"bufferView":23,"byteOffset":0,"componentType":5125,"count":7410,"type":"SCALAR"},{"bufferView":24,"byteOffset":0,"componentType":5126,"count":1000,"max":[25.78849983215332,1.6763999462127686,0.45719999074935913],"min":[5.824100017547607,-1.6763999462127686,0.0],"type":"VEC3"},{"bufferView":25,"byteOffset":0,"componentType":5126,"count":1000,"type":"VEC3"},{"bufferView":26,"byteOffset":0,"componentType":5125,"count":4500,"type":"SCALAR"},{"bufferView":27,"byteOffset":0,"componentType":5126,"count":80,"max":[15.476099967956543,1.6763999462127686,0.45719999074935913],"min":[14.104499816894531,-1.6763999462127686,0.0],"type":"VEC3"},{"bufferView":28,"byteOffset":0,"componentType":5126,"count":80,"type":"VEC3"},{"bufferView":29,"byteOffset":0,"componentType":5125,"count":360,"type":"SCALAR"},{"bufferView":30,"byteOffset":0,"componentType":5126,"count":80,"max":[26.77910041809082,1.6763999462127686,0.45719999074935913],"min":[4.465199947357178,-1.6763999462127686,0.0],"type":"VEC3"},{"bufferView":31,"byteOffset":0,"componentType":5126,"count":80,"type":"VEC3"},{"bufferView":32,"byteOffset":0,"componentType":5125,"count":360,"type":"SCALAR"},{"bufferView":33,"byteOffset":0,"componentType":5126,"count":1248,"max":[10.15,5.435,-1.087],"min":[10.15,5.435,-1.087],"type":"VEC3"},{"bufferView":34,"byteOffset":0,"componentType":5126,"count":4896,"max":[13.408000000000001,6.710549038850113,0.18837467766464155],"min":[10.15,4.160148358223166,-2.3623746776646417],"type":"VEC3"},{"bufferView":35,"byteOffset":0,"componentType":5125,"count":28500,"type":"SCALAR"},{"bufferView":36,"byteOffset":0,"componentType":5126,"count":1248,"max":[10.15,-5.435,-1.087],"min":[10.15,-5.435,-1.087],"type":"VEC3"},{"bufferView":37,"byteOffset":0,"componentType":5126,"count":4896,"max":[13.408000000000001,-4.159450961149886,0.18837467766464155],"min":[10.15,-6.709851641776833,-2.3623746776646417],"type":"VEC3"},{"bufferView":38,"byteOffset":0,"componentType":5125,"count":28500,"type":"SCALAR"},{"bufferView":39,"byteOffset":0,"componentType":5126,"count":303,"max":[16.597958134463273,6.4584,0.45593898282908685],"min":[11.217568450138524,0.0,-1.3231054749106628],"type":"VEC3"},{"bufferView":40,"byteOffset":0,"componentType":5125,"count":849,"type":"SCALAR"},{"bufferView":41,"byteOffset":0,"componentType":5126,"count":303,"max":[16.597958134463273,-0.0,0.45593898282908685],"min":[11.217568450138524,-6.4584,-1.3231054749106628],"type":"VEC3"},{"bufferView":42,"byteOffset":0,"componentType":5125,"count":849,"type":"SCALAR"},{"bufferView":43,"byteOffset":0,"componentType":5126,"count":303,"max":[20.820281593409906,16.848,1.5197050464940467],"min":[14.470667220316557,6.4584,0.005097725512046181],"type":"VEC3"},{"bufferView":44,"byteOffset":0,"componentType":5125,"count":855,"type":"SCALAR"},{"bufferView":45,"byteOffset":0,"componentType":5126,"count":303,"max":[20.820281593409906,-6.4584,1.5197050464940467],"min":[14.470667220316557,-16.848,0.005097725512046181],"type":"VEC3"},{"bufferView":46,"byteOffset":0,"componentType":5125,"count":855,"type":"SCALAR"},{"bufferView":47,"byteOffset":0,"componentType":5126,"count":1728,"max":[27.0,0.0,-0.5],"min":[27.0,0.0,-0.5],"type":"VEC3"},{"bufferView":48,"byteOffset":0,"componentType":5126,"count":1728,"max":[27.0,-0.0,-0.5],"min":[27.0,-0.0,-0.5],"type":"VEC3"}],"asset":{"generator":"VTK","version":"2.0"},"bufferViews":[{"buffer":0,"byteLength":7200,"byteOffset":0,"target":34962},{"buffer":1,"byteLength":13248,"byteOffset":0,"target":34963},{"buffer":2,"byteLength":7200,"byteOffset":0,"target":34962},{"buffer":3,"byteLength":13248,"byteOffset":0,"target":34963},{"buffer":4,"byteLength":7200,"byteOffset":0,"target":34962},{"buffer":5,"byteLength":13248,"byteOffset":0,"target":34963},{"buffer":6,"byteLength":7200,"byteOffset":0,"target":34962},{"buffer":7,"byteLength":13248,"byteOffset":0,"target":34963},{"buffer":8,"byteLength":7200,"byteOffset":0,"target":34962},{"buffer":9,"byteLength":13248,"byteOffset":0,"target":34963},{"buffer":10,"byteLength":7200,"byteOffset":0,"target":34962},{"buffer":11,"byteLength":13248,"byteOffset":0,"target":34963},{"buffer":12,"byteLength":6060,"byteOffset":0,"target":34962},{"buffer":13,"byteLength":9588,"byteOffset":0,"target":34963},{"buffer":14,"byteLength":6060,"byteOffset":0,"target":34962},{"buffer":15,"byteLength":9588,"byteOffset":0,"target":34963},{"buffer":16,"byteLength":3636,"byteOffset":0,"target":34962},{"buffer":17,"byteLength":4800,"byteOffset":0,"target":34963},{"buffer":18,"byteLength":3636,"byteOffset":0,"target":34962},{"buffer":19,"byteLength":4800,"byteOffset":0,"target":34963},{"buffer":20,"byteLength":3636,"byteOffset":0,"target":34962},{"buffer":21,"byteLength":4800,"byteOffset":0,"target":34963},{"buffer":22,"byteLength":17280,"byteOffset":0,"target":34962},{"buffer":23,"byteLength":29640,"byteOffset":0,"target":34963},{"buffer":24,"byteLength":12000,"byteOffset":0,"target":34962},{"buffer":25,"byteLength":12000,"byteOffset":0,"target":34962},{"buffer":26,"byteLength":18000,"byteOffset":0,"target":34963},{"buffer":27,"byteLength":960,"byteOffset":0,"target":34962},{"buffer":28,"byteLength":960,"byteOffset":0,"target":34962},{"buffer":29,"byteLength":1440,"byteOffset":0,"target":34963},{"buffer":30,"byteLength":960,"byteOffset":0,"target":34962},{"buffer":31,"byteLength":960,"byteOffset":0,"target":34962},{"buffer":32,"byteLength":1440,"byteOffset":0,"target":34963},{"buffer":33,"byteLength":14976,"byteOffset":0,"target":34962},{"buffer":34,"byteLength":58752,"byteOffset":0,"target":34962},{"buffer":35,"byteLength":114000,"byteOffset":0,"target":34963},{"buffer":36,"byteLength":14976,"byteOffset":0,"target":34962},{"buffer":37,"byteLength":58752,"byteOffset":0,"target":34962},{"buffer":38,"byteLength":114000,"byteOffset":0,"target":34963},{"buffer":39,"byteLength":3636,"byteOffset":0,"target":34962},{"buffer":40,"byteLength":3396,"byteOffset":0,"target":34963},{"buffer":41,"byteLength":3636,"byteOffset":0,"target":34962},{"buffer":42,"byteLength":3396,"byteOffset":0,"target":34963},{"buffer":43,"byteLength":3636,"byteOffset":0,"target":34962},{"buffer":44,"byteLength":3420,"byteOffset":0,"target":34963},{"buffer":45,"byteLength":3636,"byteOffset":0,"target":34962},{"buffer":46,"byteLength":3420,"byteOffset":0,"target":34963},{"buffer":47,"byteLength":20736,"byteOffset":0,"target":34962},{"buffer":48,"byteLength":20736,"byteOffset":0,"target":34962}],"buffers":[{"byteLength":7200,"uri":"data:application/octet-stream;base64,"},{"byteLength":13248,"uri":"data:application/octet-stream;base64,"},{"byteLength":7200,"uri":"data:application/octet-stream;base64,"},{"byteLength":13248,"uri":"data:application/octet-stream;base64,"},{"byteLength":7200,"uri":"data:application/octet-stream;base64,"},{"byteLength":13248,"uri":"data:application/octet-stream;base64,"},{"byteLength":7200,"uri":"data:application/octet-stream;base64,"},{"byteLength":13248,"uri":"data:application/octet-stream;base64,"},{"byteLength":7200,"uri":"data:application/octet-stream;base64,"},{"byteLength":13248,"uri":"data:application/octet-stream;base64,"},{"byteLength":7200,"uri":"data:application/octet-stream;base64,"},{"byteLength":13248,"uri":"data:application/octet-stream;base64,"},{"byteLength":6060,"uri":"data:application/octet-stream;base64,"},{"byteLength":9588,"uri":"data:application/octet-stream;base64,"},{"byteLength":6060,"uri":"data:application/octet-stream;base64,"},{"byteLength":9588,"uri":"data:application/octet-stream;base64,"},{"byteLength":3636,"uri":"data:application/octet-stream;base64,"},{"byteLength":4800,"uri":"data:application/octet-stream;base64,"},{"byteLength":3636,"uri":"data:application/octet-stream;base64,"},{"byteLength":4800,"uri":"data:application/octet-stream;base64,"},{"byteLength":3636,"uri":"data:application/octet-stream;base64,"},{"byteLength":4800,"uri":"data:application/octet-stream;base64,"},{"byteLength":17280,"uri":"data:application/octet-stream;base64,"},{"byteLength":29640,"uri":"data:application/octet-stream;base64,"},{"byteLength":12000,"uri":"data:application/octet-stream;base64,"},{"byteLength":12000,"uri":"data:application/octet-stream;base64,"},{"byteLength":18000,"uri":"data:application/octet-stream;base64,"},{"byteLength":960,"uri":"data:application/octet-stream;base64,"},{"byteLength":960,"uri":"data:application/octet-stream;base64,"},{"byteLength":1440,"uri":"data:application/octet-stream;base64,"},{"byteLength":960,"uri":"data:application/octet-stream;base64,"},{"byteLength":960,"uri":"data:application/octet-stream;base64,"},{"byteLength":1440,"uri":"data:application/octet-stream;base64,"},{"byteLength":14976,"uri":"data:application/octet-stream;base64,"},{"byteLength":58752,"uri":"data:application/octet-stream;base64,"},{"byteLength":114000,"uri":"data:application/octet-stream;base64,"},{"byteLength":14976,"uri":"data:application/octet-stream;base64,"},{"byteLength":58752,"uri":"data:application/octet-stream;base64,"},{"byteLength":114000,"uri":"data:application/octet-stream;base64,"},{"byteLength":3636,"uri":"data:application/octet-stream;base64,"},{"byteLength":3396,"uri":"data:application/octet-stream;base64,"},{"byteLength":3636,"uri":"data:application/octet-stream;base64,"},{"byteLength":3396,"uri":"data:application/octet-stream;base64,"},{"byteLength":3636,"uri":"data:application/octet-stream;base64,"},{"byteLength":3420,"uri":"data:application/octet-stream;base64,"},{"byteLength":3636,"uri":"data:application/octet-stream;base64,"},{"byteLength":3420,"uri":"data:application/octet-stream;base64,"},{"byteLength":20736,"uri":"data:application/octet-stream;base64,"},{"byteLength":20736,"uri":"data:application/octet-stream;base64,"}],"cameras":[{"perspective":{"aspectRatio":1.0,"yfov":0.5235987755982988,"zfar":129.8778547558905,"znear":17.87374660323547},"type":"perspective"}],"materials":[{"pbrMetallicRoughness":{"baseColorFactor":[0.5019607843137255,0.5019607843137255,0.5019607843137255,1.0],"metallicFactor":0.0,"roughnessFactor":1.0}},{"pbrMetallicRoughness":{"baseColorFactor":[0.5019607843137255,0.5019607843137255,0.5019607843137255,1.0],"metallicFactor":0.0,"roughnessFactor":1.0}},{"pbrMetallicRoughness":{"baseColorFactor":[0.5019607843137255,0.5019607843137255,0.5019607843137255,1.0],"metallicFactor":0.0,"roughnessFactor":1.0}},{"pbrMetallicRoughness":{"baseColorFactor":[0.5019607843137255,0.5019607843137255,0.5019607843137255,1.0],"metallicFactor":0.0,"roughnessFactor":1.0}},{"pbrMetallicRoughness":{"baseColorFactor":[0.5019607843137255,0.5019607843137255,0.5019607843137255,1.0],"metallicFactor":0.0,"roughnessFactor":1.0}},{"pbrMetallicRoughness":{"baseColorFactor":[0.5019607843137255,0.5019607843137255,0.5019607843137255,1.0],"metallicFactor":0.0,"roughnessFactor":1.0}},{"pbrMetallicRoughness":{"baseColorFactor":[0.5019607843137255,0.5019607843137255,0.5019607843137255,0.5],"metallicFactor":0.0,"roughnessFactor":1.0}},{"pbrMetallicRoughness":{"baseColorFactor":[0.5019607843137255,0.5019607843137255,0.5019607843137255,0.5],"metallicFactor":0.0,"roughnessFactor":1.0}},{"pbrMetallicRoughness":{"baseColorFactor":[0.5019607843137255,0.5019607843137255,0.5019607843137255,0.5],"metallicFactor":0.0,"roughnessFactor":1.0}},{"pbrMetallicRoughness":{"baseColorFactor":[0.5019607843137255,0.5019607843137255,0.5019607843137255,0.5],"metallicFactor":0.0,"roughnessFactor":1.0}},{"pbrMetallicRoughness":{"baseColorFactor":[0.5019607843137255,0.5019607843137255,0.5019607843137255,0.5],"metallicFactor":0.0,"roughnessFactor":1.0}},{"pbrMetallicRoughness":{"baseColorFactor":[0.5019607843137255,0.5019607843137255,0.5019607843137255,0.5],"metallicFactor":0.0,"roughnessFactor":1.0}},{"pbrMetallicRoughness":{"baseColorFactor":[0.27450980392156865,0.5098039215686274,0.7058823529411765,1.0],"metallicFactor":0.0,"roughnessFactor":1.0}},{"pbrMetallicRoughness":{"baseColorFactor":[0.27450980392156865,0.5098039215686274,0.7058823529411765,1.0],"metallicFactor":0.0,"roughnessFactor":1.0}},{"pbrMetallicRoughness":{"baseColorFactor":[0.9568627450980393,0.6431372549019608,0.3764705882352941,1.0],"metallicFactor":0.0,"roughnessFactor":1.0}},{"pbrMetallicRoughness":{"baseColorFactor":[0.0,0.0,0.0,0.5],"metallicFactor":0.0,"roughnessFactor":1.0}},{"pbrMetallicRoughness":{"baseColorFactor":[0.5019607843137255,0.5019607843137255,0.5019607843137255,0.5],"metallicFactor":0.0,"roughnessFactor":1.0}},{"pbrMetallicRoughness":{"baseColorFactor":[0.0,0.0,0.0,0.5],"metallicFactor":0.0,"roughnessFactor":1.0}},{"pbrMetallicRoughness":{"baseColorFactor":[0.5019607843137255,0.5019607843137255,0.5019607843137255,0.5],"metallicFactor":0.0,"roughnessFactor":1.0}},{"pbrMetallicRoughness":{"baseColorFactor":[1.0,0.6470588235294118,0.0,0.5],"metallicFactor":0.0,"roughnessFactor":1.0}},{"pbrMetallicRoughness":{"baseColorFactor":[1.0,0.6470588235294118,0.0,0.5],"metallicFactor":0.0,"roughnessFactor":1.0}},{"pbrMetallicRoughness":{"baseColorFactor":[1.0,0.6470588235294118,0.0,0.5],"metallicFactor":0.0,"roughnessFactor":1.0}},{"pbrMetallicRoughness":{"baseColorFactor":[1.0,0.6470588235294118,0.0,0.5],"metallicFactor":0.0,"roughnessFactor":1.0}},{"pbrMetallicRoughness":{"baseColorFactor":[1.0,0.6470588235294118,0.0,0.5],"metallicFactor":0.0,"roughnessFactor":1.0}},{"pbrMetallicRoughness":{"baseColorFactor":[1.0,0.6470588235294118,0.0,0.5],"metallicFactor":0.0,"roughnessFactor":1.0}}],"meshes":[{"name":"mesh0","primitives":[{"attributes":{"POSITION":0},"indices":1,"material":0,"mode":4}]},{"name":"mesh1","primitives":[{"attributes":{"POSITION":2},"indices":3,"material":1,"mode":4}]},{"name":"mesh2","primitives":[{"attributes":{"POSITION":4},"indices":5,"material":2,"mode":4}]},{"name":"mesh3","primitives":[{"attributes":{"POSITION":6},"indices":7,"material":3,"mode":4}]},{"name":"mesh4","primitives":[{"attributes":{"POSITION":8},"indices":9,"material":4,"mode":4}]},{"name":"mesh5","primitives":[{"attributes":{"POSITION":10},"indices":11,"material":5,"mode":4}]},{"name":"mesh6","primitives":[{"attributes":{"POSITION":12},"indices":13,"material":6,"mode":4}]},{"name":"mesh7","primitives":[{"attributes":{"POSITION":14},"indices":15,"material":7,"mode":4}]},{"name":"mesh8","primitives":[{"attributes":{"POSITION":16},"indices":17,"material":8,"mode":4}]},{"name":"mesh9","primitives":[{"attributes":{"POSITION":18},"indices":19,"material":9,"mode":4}]},{"name":"mesh10","primitives":[{"attributes":{"POSITION":20},"indices":21,"material":10,"mode":4}]},{"name":"mesh11","primitives":[{"attributes":{"POSITION":22},"indices":23,"material":11,"mode":4}]},{"name":"mesh12","primitives":[{"attributes":{"NORMAL":25,"POSITION":24},"indices":26,"material":12,"mode":4}]},{"name":"mesh13","primitives":[{"attributes":{"NORMAL":28,"POSITION":27},"indices":29,"material":13,"mode":4}]},{"name":"mesh14","primitives":[{"attributes":{"NORMAL":31,"POSITION":30},"indices":32,"material":14,"mode":4}]},{"name":"mesh15","primitives":[{"material":15}]},{"name":"mesh16","primitives":[{"attributes":{"POSITION":34},"indices":35,"material":16,"mode":4}]},{"name":"mesh17","primitives":[{"material":17}]},{"name":"mesh18","primitives":[{"attributes":{"POSITION":37},"indices":38,"material":18,"mode":4}]},{"name":"mesh19","primitives":[{"attributes":{"POSITION":39},"indices":40,"material":19,"mode":4}]},{"name":"mesh20","primitives":[{"attributes":{"POSITION":41},"indices":42,"material":20,"mode":4}]},{"name":"mesh21","primitives":[{"attributes":{"POSITION":43},"indices":44,"material":21,"mode":4}]},{"name":"mesh22","primitives":[{"attributes":{"POSITION":45},"indices":46,"material":22,"mode":4}]},{"name":"mesh23","primitives":[{"material":23}]},{"name":"mesh24","primitives":[{"material":24}]}],"nodes":[{"matrix":[2.220446049250314e-16,-3.330669073875469e-16,1.0000000000000002,0.0,1.0,2.220446049250313e-16,-2.220446049250313e-16,0.0,-2.2204460492503128e-16,1.0000000000000002,3.3306690738754696e-16,0.0,0.0,0.0,0.0,1.0],"mesh":0,"name":"mesh0"},{"matrix":[2.220446049250314e-16,-3.330669073875469e-16,1.0000000000000002,0.0,1.0,2.220446049250313e-16,-2.220446049250313e-16,0.0,-2.2204460492503128e-16,1.0000000000000002,3.3306690738754696e-16,0.0,0.0,0.0,0.0,1.0],"mesh":1,"name":"mesh1"},{"matrix":[2.220446049250314e-16,-3.330669073875469e-16,1.0000000000000002,0.0,1.0,2.220446049250313e-16,-2.220446049250313e-16,0.0,-2.2204460492503128e-16,1.0000000000000002,3.3306690738754696e-16,0.0,0.0,0.0,0.0,1.0],"mesh":2,"name":"mesh2"},{"matrix":[2.220446049250314e-16,-3.330669073875469e-16,1.0000000000000002,0.0,1.0,2.220446049250313e-16,-2.220446049250313e-16,0.0,-2.2204460492503128e-16,1.0000000000000002,3.3306690738754696e-16,0.0,0.0,0.0,0.0,1.0],"mesh":3,"name":"mesh3"},{"matrix":[2.220446049250314e-16,-3.330669073875469e-16,1.0000000000000002,0.0,1.0,2.220446049250313e-16,-2.220446049250313e-16,0.0,-2.2204460492503128e-16,1.0000000000000002,3.3306690738754696e-16,0.0,0.0,0.0,0.0,1.0],"mesh":4,"name":"mesh4"},{"matrix":[2.220446049250314e-16,-3.330669073875469e-16,1.0000000000000002,0.0,1.0,2.220446049250313e-16,-2.220446049250313e-16,0.0,-2.2204460492503128e-16,1.0000000000000002,3.3306690738754696e-16,0.0,0.0,0.0,0.0,1.0],"mesh":5,"name":"mesh5"},{"matrix":[2.220446049250314e-16,-3.330669073875469e-16,1.0000000000000002,0.0,1.0,2.220446049250313e-16,-2.220446049250313e-16,0.0,-2.2204460492503128e-16,1.0000000000000002,3.3306690738754696e-16,0.0,0.0,0.0,0.0,1.0],"mesh":6,"name":"mesh6"},{"matrix":[2.220446049250314e-16,-3.330669073875469e-16,1.0000000000000002,0.0,1.0,2.220446049250313e-16,-2.220446049250313e-16,0.0,-2.2204460492503128e-16,1.0000000000000002,3.3306690738754696e-16,0.0,0.0,0.0,0.0,1.0],"mesh":7,"name":"mesh7"},{"matrix":[2.220446049250314e-16,-3.330669073875469e-16,1.0000000000000002,0.0,1.0,2.220446049250313e-16,-2.220446049250313e-16,0.0,-2.2204460492503128e-16,1.0000000000000002,3.3306690738754696e-16,0.0,0.0,0.0,0.0,1.0],"mesh":8,"name":"mesh8"},{"matrix":[2.220446049250314e-16,-3.330669073875469e-16,1.0000000000000002,0.0,1.0,2.220446049250313e-16,-2.220446049250313e-16,0.0,-2.2204460492503128e-16,1.0000000000000002,3.3306690738754696e-16,0.0,0.0,0.0,0.0,1.0],"mesh":9,"name":"mesh9"},{"matrix":[2.220446049250314e-16,-3.330669073875469e-16,1.0000000000000002,0.0,1.0,2.220446049250313e-16,-2.220446049250313e-16,0.0,-2.2204460492503128e-16,1.0000000000000002,3.3306690738754696e-16,0.0,0.0,0.0,0.0,1.0],"mesh":10,"name":"mesh10"},{"matrix":[2.220446049250314e-16,-3.330669073875469e-16,1.0000000000000002,0.0,1.0,2.220446049250313e-16,-2.220446049250313e-16,0.0,-2.2204460492503128e-16,1.0000000000000002,3.3306690738754696e-16,0.0,0.0,0.0,0.0,1.0],"mesh":11,"name":"mesh11"},{"matrix":[2.220446049250314e-16,-3.330669073875469e-16,1.0000000000000002,0.0,1.0,2.220446049250313e-16,-2.220446049250313e-16,0.0,-2.2204460492503128e-16,1.0000000000000002,3.3306690738754696e-16,0.0,0.0,0.0,0.0,1.0],"mesh":12,"name":"mesh12"},{"matrix":[2.220446049250314e-16,-3.330669073875469e-16,1.0000000000000002,0.0,1.0,2.220446049250313e-16,-2.220446049250313e-16,0.0,-2.2204460492503128e-16,1.0000000000000002,3.3306690738754696e-16,0.0,0.0,0.0,0.0,1.0],"mesh":13,"name":"mesh13"},{"matrix":[2.220446049250314e-16,-3.330669073875469e-16,1.0000000000000002,0.0,1.0,2.220446049250313e-16,-2.220446049250313e-16,0.0,-2.2204460492503128e-16,1.0000000000000002,3.3306690738754696e-16,0.0,0.0,0.0,0.0,1.0],"mesh":14,"name":"mesh14"},{"matrix":[2.220446049250314e-16,-3.330669073875469e-16,1.0000000000000002,0.0,1.0,2.220446049250313e-16,-2.220446049250313e-16,0.0,-2.2204460492503128e-16,1.0000000000000002,3.3306690738754696e-16,0.0,0.0,0.0,0.0,1.0],"mesh":15,"name":"mesh15"},{"matrix":[2.220446049250314e-16,-3.330669073875469e-16,1.0000000000000002,0.0,1.0,2.220446049250313e-16,-2.220446049250313e-16,0.0,-2.2204460492503128e-16,1.0000000000000002,3.3306690738754696e-16,0.0,0.0,0.0,0.0,1.0],"mesh":16,"name":"mesh16"},{"matrix":[2.220446049250314e-16,-3.330669073875469e-16,1.0000000000000002,0.0,1.0,2.220446049250313e-16,-2.220446049250313e-16,0.0,-2.2204460492503128e-16,1.0000000000000002,3.3306690738754696e-16,0.0,0.0,0.0,0.0,1.0],"mesh":17,"name":"mesh17"},{"matrix":[2.220446049250314e-16,-3.330669073875469e-16,1.0000000000000002,0.0,1.0,2.220446049250313e-16,-2.220446049250313e-16,0.0,-2.2204460492503128e-16,1.0000000000000002,3.3306690738754696e-16,0.0,0.0,0.0,0.0,1.0],"mesh":18,"name":"mesh18"},{"matrix":[2.220446049250314e-16,-3.330669073875469e-16,1.0000000000000002,0.0,1.0,2.220446049250313e-16,-2.220446049250313e-16,0.0,-2.2204460492503128e-16,1.0000000000000002,3.3306690738754696e-16,0.0,0.0,0.0,0.0,1.0],"mesh":19,"name":"mesh19"},{"matrix":[2.220446049250314e-16,-3.330669073875469e-16,1.0000000000000002,0.0,1.0,2.220446049250313e-16,-2.220446049250313e-16,0.0,-2.2204460492503128e-16,1.0000000000000002,3.3306690738754696e-16,0.0,0.0,0.0,0.0,1.0],"mesh":20,"name":"mesh20"},{"matrix":[2.220446049250314e-16,-3.330669073875469e-16,1.0000000000000002,0.0,1.0,2.220446049250313e-16,-2.220446049250313e-16,0.0,-2.2204460492503128e-16,1.0000000000000002,3.3306690738754696e-16,0.0,0.0,0.0,0.0,1.0],"mesh":21,"name":"mesh21"},{"matrix":[2.220446049250314e-16,-3.330669073875469e-16,1.0000000000000002,0.0,1.0,2.220446049250313e-16,-2.220446049250313e-16,0.0,-2.2204460492503128e-16,1.0000000000000002,3.3306690738754696e-16,0.0,0.0,0.0,0.0,1.0],"mesh":22,"name":"mesh22"},{"matrix":[2.220446049250314e-16,-3.330669073875469e-16,1.0000000000000002,0.0,1.0,2.220446049250313e-16,-2.220446049250313e-16,0.0,-2.2204460492503128e-16,1.0000000000000002,3.3306690738754696e-16,0.0,0.0,0.0,0.0,1.0],"mesh":23,"name":"mesh23"},{"matrix":[2.220446049250314e-16,-3.330669073875469e-16,1.0000000000000002,0.0,1.0,2.220446049250313e-16,-2.220446049250313e-16,0.0,-2.2204460492503128e-16,1.0000000000000002,3.3306690738754696e-16,0.0,0.0,0.0,0.0,1.0],"mesh":24,"name":"mesh24"},{"camera":0,"matrix":[0.554700196225229,-0.8320502943378437,1.2877206573322924e-18,-0.0,0.3195993709027958,0.21306624726853052,0.9232870714969657,0.0,-0.768221279597376,-0.5121475197315839,0.38411063979868804,-0.0,-35.099999999999994,-35.1,26.325000000000003,1.0],"name":"Camera Node"},{"children":[0,1,2,3,4,5,6,7,8,9,10,11,12,13,14,15,16,17,18,19,20,21,22,23,24,25],"name":"Renderer Node"}],"scene":0,"scenes":[{"name":"Layer 0","nodes":[26]}]}