{"accessors":[{"bufferView":0,"byteOffset":0,"componentType":5126,"count":600,"max":[15.342803722304216,2.125,-1.9571962776957834],"min":[14.657196277695784,1.9096039021505882,-2.6428037223042162],"type":"VEC3"},{"bufferView":1,"byteOffset":0,"componentType":5125,"count":3312,"type":"SCALAR"},{"bufferView":2,"byteOffset":0,"componentType":5126,"count":600,"max":[15.342803722304216,-1.9091000000000002,-1.9571962776957834],"min":[14.657196277695784,-2.1244960978494123,-2.6428037223042162],"type":"VEC3"},{"bufferView":3,"byteOffset":0,"componentType":5125,"count":3312,"type":"SCALAR"},{"bufferView":4,"byteOffset":0,"componentType":5126,"count":600,"max":[15.342803722304216,2.5908999999999995,-1.9571962776957834],"min":[14.657196277695784,2.3755039021505877,-2.6428037223042162],"type":"VEC3"},{"bufferView":5,"byteOffset":0,"componentType":5125,"count":3312,"type":"SCALAR"},{"bufferView":6,"byteOffset":0,"componentType":5126,"count":600,"max":[15.342803722304216,-2.375,-1.9571962776957834],"min":[14.657196277695784,-2.590396097849412,-2.6428037223042162],"type":"VEC3"},{"bufferView":7,"byteOffset":0,"componentType":5125,"count":3312,"type":"SCALAR"},{"bufferView":8,"byteOffset":0,"componentType":5126,"count":600,"max":[3.2475648312691145,-0.125,-2.0524351687308853],"min":[2.7524351687308855,-0.29604984240982724,-2.5475648312691144],"type":"VEC3"},{"bufferView":9,"byteOffset":0,"componentType":5125,"count":3312,"type":"SCALAR"},{"bufferView":10,"byteOffset":0,"componentType":5126,"count":600,"max":[3.2475648312691145,0.29645,-2.0524351687308853],"min":[2.7524351687308855,0.12540015759017276,-2.5475648312691144],"type":"VEC3"},{"bufferView":11,"byteOffset":0,"componentType":5125,"count":3312,"type":"SCALAR"},{"bufferView":12,"byteOffset":0,"componentType":5126,"count":505,"max":[22.267112909085398,11.625,1.2409765550127254],"min":[13.38,0.0,-0.9175857897838758],"type":"VEC3"},{"bufferView":13,"byteOffset":0,"componentType":5125,"count":2397,"type":"SCALAR"},{"bufferView":14,"byteOffset":0,"componentType":5126,"count":505,"max":[22.267112909085398,-0.0,1.2409765550127254],"min":[13.38,-11.625,-0.9175857897838758],"type":"VEC3"},{"bufferView":15,"byteOffset":0,"componentType":5125,"count":2397,"type":"SCALAR"},{"bufferView":16,"byteOffset":0,"componentType":5126,"count":303,"max":[32.53209525668108,4.27,4.675112859682995],"min":[28.5,0.0,4.218454567416706],"type":"VEC3"},{"bufferView":17,"byteOffset":0,"componentType":5125,"count":1203,"type":"SCALAR"},{"bufferView":18,"byteOffset":0,"componentType":5126,"count":303,"max":[32.53209525668108,-0.0,4.675112859682995],"min":[28.5,-4.27,4.218454567416706],"type":"VEC3"},{"bufferView":19,"byteOffset":0,"componentType":5125,"count":1203,"type":"SCALAR"},{"bufferView":20,"byteOffset":0,"componentType":5126,"count":505,"max":[31.031143146568265,0.2250475459349232,5.15],"min":[24.96247368166428,-0.2250475459349232,1.25],"type":"VEC3"},{"bufferView":21,"byteOffset":0,"componentType":5125,"count":2412,"type":"SCALAR"},{"bufferView":22,"byteOffset":0,"componentType":5126,"count":1248,"max":[29.68,1.345,2.0274561452148707],"min":[0.0,-1.3442646311235456,-0.6621761452148708],"type":"VEC3"},{"bufferView":23,"byteOffset":0,"componentType":5125,"count":6270,"type":"SCALAR"},{"bufferView":24,"byteOffset":0,"componentType":5126,"count":4896,"max":[25.4,-1.155005754599312,2.4948513999044426],"min":[21.5,-3.2444229024682407,0.4051486000955562],"type":"VEC3"},{"bufferView":25,"byteOffset":0,"componentType":5125,"count":28500,"type":"SCALAR"},{"bufferView":26,"byteOffset":0,"componentType":5126,"count":4896,"max":[25.4,3.2449942454006884,2.4948513999044426],"min":[21.5,1.1555770975317594,0.4051486000955562],"type":"VEC3"},{"bufferView":27,"byteOffset":0,"componentType":5125,"count":28500,"type":"SCALAR"},{"bufferView":28,"byteOffset":0,"componentType":5126,"count":303,"max":[17.852098981292006,4.65,-0.1558167274016396],"min":[13.856353018794634,0.0,-0.9175857897838758],"type":"VEC3"},{"bufferView":29,"byteOffset":0,"componentType":5125,"count":849,"type":"SCALAR"},{"bufferView":30,"byteOffset":0,"componentType":5126,"count":303,"max":[17.852098981292006,-0.0,-0.1558167274016396],"min":[13.856353018794634,-4.65,-0.9175857897838758],"type":"VEC3"},{"bufferView":31,"byteOffset":0,"componentType":5125,"count":849,"type":"SCALAR"},{"bufferView":32,"byteOffset":0,"componentType":5126,"count":303,"max":[20.85978645949232,11.3925,-0.008808958093620242],"min":[16.39705074948575,4.65,-0.4847320936625785],"type":"VEC3"},{"bufferView":33,"byteOffset":0,"componentType":5125,"count":855,"type":"SCALAR"},{"bufferView":34,"byteOffset":0,"componentType":5126,"count":303,"max":[20.85978645949232,-4.65,-0.008808958093620242],"min":[16.39705074948575,-11.3925,-0.4847320936625785],"type":"VEC3"},{"bufferView":35,"byteOffset":0,"componentType":5125,"count":855,"type":"SCALAR"}],"asset":{"generator":"VTK","version":"2.0"},"bufferViews":[{"buffer":0,"byteLength":7200,"byteOffset":0,"target":34962},{"buffer":1,"byteLength":13248,"byteOffset":0,"target":34963},{"buffer":2,"byteLength":7200,"byteOffset":0,"target":34962},{"buffer":3,"byteLength":13248,"byteOffset":0,"target":34963},{"buffer":4,"byteLength":7200,"byteOffset":0,"target":34962},{"buffer":5,"byteLength":13248,"byteOffset":0,"target":34963},{"buffer":6,"byteLength":7200,"byteOffset":0,"target":34962},{"buffer":7,"byteLength":13248,"byteOffset":0,"target":34963},{"buffer":8,"byteLength":7200,"byteOffset":0,"target":34962},{"buffer":9,"byteLength":13248,"byteOffset":0,"target":34963},{"buffer":10,"byteLength":7200,"byteOffset":0,"target":34962},{"buffer":11,"byteLength":13248,"byteOffset":0,"target":34963},{"buffer":12,"byteLength":6060,"byteOffset":0,"target":34962},{"buffer":13,"byteLength":9588,"byteOffset":0,"target":34963},{"buffer":14,"byteLength":6060,"byteOffset":0,"target":34962},{"buffer":15,"byteLength":9588,"byteOffset":0,"target":34963},{"buffer":16,"byteLength":3636,"byteOffset":0,"target":34962},{"buffer":17,"byteLength":4812,"byteOffset":0,"target":34963},{"buffer":18,"byteLength":3636,"byteOffset":0,"target":34962},{"buffer":19,"byteLength":4812,"byteOffset":0,"target":34963},{"buffer":20,"byteLength":6060,"byteOffset":0,"target":34962},{"buffer":21,"byteLength":9648,"byteOffset":0,"target":34963},{"buffer":22,"byteLength":14976,"byteOffset":0,"target":34962},{"buffer":23,"byteLength":25080,"byteOffset":0,"target":34963},{"buffer":24,"byteLength":58752,"byteOffset":0,"target":34962},{"buffer":25,"byteLength":114000,"byteOffset":0,"target":34963},{"buffer":26,"byteLength":58752,"byteOffset":0,"target":34962},{"buffer":27,"byteLength":114000,"byteOffset":0,"target":34963},{"buffer":28,"byteLength":3636,"byteOffset":0,"target":34962},{"buffer":29,"byteLength":3396,"byteOffset":0,"target":34963},{"buffer":30,"byteLength":3636,"byteOffset":0,"target":34962},{"buffer":31,"byteLength":3396,"byteOffset":0,"target":34963},{"buffer":32,"byteLength":3636,"byteOffset":0,"target":34962},{"buffer":33,"byteLength":3420,"byteOffset":0,"target":34963},{"buffer":34,"byteLength":3636,"byteOffset":0,"target":34962},{"buffer":35,"byteLength":3420,"byteOffset":0,"target":34963}],"buffers":[{"byteLength":7200,"uri":"data:application/octet-stream;base64,"},{"byteLength":13248,"uri":"data:application/octet-stream;base64,"},{"byteLength":7200,"uri":"data:application/octet-stream;base64,"},{"byteLength":13248,"uri":"data:application/octet-stream;base64,"},{"byteLength":7200,"uri":"data:application/octet-stream;base64,"},{"byteLength":13248,"uri":"data:application/octet-stream;base64,"},{"byteLength":7200,"uri":"data:application/octet-stream;base64,"},{"byteLength":13248,"uri":"data:application/octet-stream;base64,"},{"byteLength":7200,"uri":"data:application/octet-stream;base64,"},{"byteLength":13248,"uri":"data:application/octet-stream;base64,"},{"byteLength":7200,"uri":"data:application/octet-stream;base64,"},{"byteLength":13248,"uri":"data:application/octet-stream;base64,"},{"byteLength":6060,"uri":"data:application/octet-stream;base64,"},{"byteLength":9588,"uri":"data:application/octet-stream;base64,"},{"byteLength":6060,"uri":"data:application/octet-stream;base64,"},{"byteLength":9588,"uri":"data:application/octet-stream;base64,"},{"byteLength":3636,"uri":"data:application/octet-stream;base64,"},{"byteLength":4812,"uri":"data:application/octet-stream;base64,"},{"byteLength":3636,"uri":"data:application/octet-stream;base64,"},{"byteLength":4812,"uri":"data:application/octet-stream;base64,"},{"byteLength":6060,"uri":"data:application/octet-stream;base64,"},{"byteLength":9648,"uri":"data:application/octet-stream;base64,"},{"byteLength":14976,"uri":"data:application/octet-stream;base64,"},{"byteLength":25080,"uri":"data:application/octet-stream;base64,"},{"byteLength":58752,"uri":"data:application/octet-stream;base64,"},{"byteLength":114000,"uri":"data:application/octet-stream;base64,"},{"byteLength":58752,"uri":"data:application/octet-stream;base64,"},{"byteLength":114000,"uri":"data:application/octet-stream;base64,"},{"byteLength":3636,"uri":"data:application/octet-stream;base64,"},{"byteLength":3396,"uri":"data:application/octet-stream;base64,"},{"byteLength":3636,"uri":"data:application/octet-stream;base64,"},{"byteLength":3396,"uri":"data:application/octet-stream;base64,"},{"byteLength":3636,"uri":"data:application/octet-stream;base64,"},{"byteLength":3420,"uri":"data:application/octet-stream;base64,"},{"byteLength":3636,"uri":"data:application/octet-stream;base64,"},{"byteLength":3420,"uri":"data:application/octet-stream;base64,"}],"cameras":[{"perspective":{"aspectRatio":1.0,"yfov":0.5235987755982988,"zfar":109.4099952016094,"znear":18.28727820150259},"type":"perspective"}],"materials":[{"pbrMetallicRoughness":{"baseColorFactor":[0.5019607843137255,0.5019607843137255,0.5019607843137255,1.0],"metallicFactor":0.0,"roughnessFactor":1.0}},{"pbrMetallicRoughness":{"baseColorFactor":[0.5019607843137255,0.5019607843137255,0.5019607843137255,1.0],"metallicFactor":0.0,"roughnessFactor":1.0}},{"pbrMetallicRoughness":{"baseColorFactor":[0.5019607843137255,0.5019607843137255,0.5019607843137255,1.0],"metallicFactor":0.0,"roughnessFactor":1.0}},{"pbrMetallicRoughness":{"baseColorFactor":[0.5019607843137255,0.5019607843137255,0.5019607843137255,1.0],"metallicFactor":0.0,"roughnessFactor":1.0}},{"pbrMetallicRoughness":{"baseColorFactor":[0.5019607843137255,0.5019607843137255,0.5019607843137255,1.0],"metallicFactor":0.0,"roughnessFactor":1.0}},{"pbrMetallicRoughness":{"baseColorFactor":[0.5019607843137255,0.5019607843137255,0.5019607843137255,1.0],"metallicFactor":0.0,"roughnessFactor":1.0}},{"pbrMetallicRoughness":{"baseColorFactor":[0.5019607843137255,0.5019607843137255,0.5019607843137255,0.5],"metallicFactor":0.0,"roughnessFactor":1.0}},{"pbrMetallicRoughness":{"baseColorFactor":[0.5019607843137255,0.5019607843137255,0.5019607843137255,0.5],"metallicFactor":0.0,"roughnessFactor":1.0}},{"pbrMetallicRoughness":{"baseColorFactor":[0.5019607843137255,0.5019607843137255,0.5019607843137255,0.5],"metallicFactor":0.0,"roughnessFactor":1.0}},{"pbrMetallicRoughness":{"baseColorFactor":[0.5019607843137255,0.5019607843137255,0.5019607843137255,0.5],"metallicFactor":0.0,"roughnessFactor":1.0}},{"pbrMetallicRoughness":{"baseColorFactor":[0.5019607843137255,0.5019607843137255,0.5019607843137255,0.5],"metallicFactor":0.0,"roughnessFactor":1.0}},{"pbrMetallicRoughness":{"baseColorFactor":[0.5019607843137255,0.5019607843137255,0.5019607843137255,0.5],"metallicFactor":0.0,"roughnessFactor":1.0}},{"pbrMetallicRoughness":{"baseColorFactor":[0.5019607843137255,0.5019607843137255,0.5019607843137255,0.5],"metallicFactor":0.0,"roughnessFactor":1.0}},{"pbrMetallicRoughness":{"baseColorFactor":[0.5019607843137255,0.5019607843137255,0.5019607843137255,0.5],"metallicFactor":0.0,"roughnessFactor":1.0}},{"pbrMetallicRoughness":{"baseColorFactor":[1.0,0.6470588235294118,0.0,0.5],"metallicFactor":0.0,"roughnessFactor":1.0}},{"pbrMetallicRoughness":{"baseColorFactor":[1.0,0.6470588235294118,0.0,0.5],"metallicFactor":0.0,"roughnessFactor":1.0}},{"pbrMetallicRoughness":{"baseColorFactor":[1.0,0.6470588235294118,0.0,0.5],"metallicFactor":0.0,"roughnessFactor":1.0}},{"pbrMetallicRoughness":{"baseColorFactor":[1.0,0.6470588235294118,0.0,0.5],"metallicFactor":0.0,"roughnessFactor":1.0}}],"meshes":[{"name":"mesh0","primitives":[{"attributes":{"POSITION":0},"indices":1,"material":0,"mode":4}]},{"name":"mesh1","primitives":[{"attributes":{"POSITION":2},"indices":3,"material":1,"mode":4}]},{"name":"mesh2","primitives":[{"attributes":{"POSITION":4},"indices":5,"material":2,"mode":4}]},{"name":"mesh3","primitives":[{"attributes":{"POSITION":6},"indices":7,"material":3,"mode":4}]},{"name":"mesh4","primitives":[{"attributes":{"POSITION":8},"indices":9,"material":4,"mode":4}]},{"name":"mesh5","primitives":[{"attributes":{"POSITION":10},"indices":11,"material":5,"mode":4}]},{"name":"mesh6","primitives":[{"attributes":{"POSITION":12},"indices":13,"material":6,"mode":4}]},{"name":"mesh7","primitives":[{"attributes":{"POSITION":14},"indices":15,"material":7,"mode":4}]},{"name":"mesh8","primitives":[{"attributes":{"POSITION":16},"indices":17,"material":8,"mode":4}]},{"name":"mesh9","primitives":[{"attributes":{"POSITION":18},"indices":19,"material":9,"mode":4}]},{"name":"mesh10","primitives":[{"attributes":{"POSITION":20},"indices":21,"material":10,"mode":4}]},{"name":"mesh11","primitives":[{"attributes":{"POSITION":22},"indices":23,"material":11,"mode":4}]},{"name":"mesh12","primitives":[{"attributes":{"POSITION":24},"indices":25,"material":12,"mode":4}]},{"name":"mesh13","primitives":[{"attributes":{"POSITION":26},"indices":27,"material":13,"mode":4}]},{"name":"mesh14","primitives":[{"attributes":{"POSITION":28},"indices":29,"material":14,"mode":4}]},{"name":"mesh15","primitives":[{"attributes":{"POSITION":30},"indices":31,"material":15,"mode":4}]},{"name":"mesh16","primitives":[{"attributes":{"POSITION":32},"indices":33,"material":16,"mode":4}]},{"name":"mesh17","primitives":[{"attributes":{"POSITION":34},"indices":35,"material":17,"mode":4}]}],"nodes":[{"matrix":[2.220446049250314e-16,-3.330669073875469e-16,1.0000000000000002,0.0,1.0,2.220446049250313e-16,-2.220446049250313e-16,0.0,-2.2204460492503128e-16,1.0000000000000002,3.3306690738754696e-16,0.0,0.0,0.0,0.0,1.0],"mesh":0,"name":"mesh0"},{"matrix":[2.220446049250314e-16,-3.330669073875469e-16,1.0000000000000002,0.0,1.0,2.220446049250313e-16,-2.220446049250313e-16,0.0,-2.2204460492503128e-16,1.0000000000000002,3.3306690738754696e-16,0.0,0.0,0.0,0.0,1.0],"mesh":1,"name":"mesh1"},{"matrix":[2.220446049250314e-16,-3.330669073875469e-16,1.0000000000000002,0.0,1.0,2.220446049250313e-16,-2.220446049250313e-16,0.0,-2.2204460492503128e-16,1.0000000000000002,3.3306690738754696e-16,0.0,0.0,0.0,0.0,1.0],"mesh":2,"name":"mesh2"},{"matrix":[2.220446049250314e-16,-3.330669073875469e-16,1.0000000000000002,0.0,1.0,2.220446049250313e-16,-2.220446049250313e-16,0.0,-2.2204460492503128e-16,1.0000000000000002,3.3306690738754696e-16,0.0,0.0,0.0,0.0,1.0],"mesh":3,"name":"mesh3"},{"matrix":[2.220446049250314e-16,-3.330669073875469e-16,1.0000000000000002,0.0,1.0,2.220446049250313e-16,-2.220446049250313e-16,0.0,-2.2204460492503128e-16,1.0000000000000002,3.3306690738754696e-16,0.0,0.0,0.0,0.0,1.0],"mesh":4,"name":"mesh4"},{"matrix":[2.220446049250314e-16,-3.330669073875469e-16,1.0000000000000002,0.0,1.0,2.220446049250313e-16,-2.220446049250313e-16,0.0,-2.2204460492503128e-16,1.0000000000000002,3.3306690738754696e-16,0.0,0.0,0.0,0.0,1.0],"mesh":5,"name":"mesh5"},{"matrix":[2.220446049250314e-16,-3.330669073875469e-16,1.0000000000000002,0.0,1.0,2.220446049250313e-16,-2.220446049250313e-16,0.0,-2.2204460492503128e-16,1.0000000000000002,3.3306690738754696e-16,0.0,0.0,0.0,0.0,1.0],"mesh":6,"name":"mesh6"},{"matrix":[2.220446049250314e-16,-3.330669073875469e-16,1.0000000000000002,0.0,1.0,2.220446049250313e-16,-2.220446049250313e-16,0.0,-2.2204460492503128e-16,1.0000000000000002,3.3306690738754696e-16,0.0,0.0,0.0,0.0,1.0],"mesh":7,"name":"mesh7"},{"matrix":[2.220446049250314e-16,-3.330669073875469e-16,1.0000000000000002,0.0,1.0,2.220446049250313e-16,-2.220446049250313e-16,0.0,-2.2204460492503128e-16,1.0000000000000002,3.3306690738754696e-16,0.0,0.0,0.0,0.0,1.0],"mesh":8,"name":"mesh8"},{"matrix":[2.220446049250314e-16,-3.330669073875469e-16,1.0000000000000002,0.0,1.0,2.220446049250313e-16,-2.220446049250313e-16,0.0,-2.2204460492503128e-16,1.0000000000000002,3.3306690738754696e-16,0.0,0.0,0.0,0.0,1.0],"mesh":9,"name":"mesh9"},{"matrix":[2.220446049250314e-16,-3.330669073875469e-16,1.0000000000000002,0.0,1.0,2.220446049250313e-16,-2.220446049250313e-16,0.0,-2.2204460492503128e-16,1.0000000000000002,3.3306690738754696e-16,0.0,0.0,0.0,0.0,1.0],"mesh":10,"name":"mesh10"},{"matrix":[2.220446049250314e-16,-3.330669073875469e-16,1.0000000000000002,0.0,1.0,2.220446049250313e-16,-2.220446049250313e-16,0.0,-2.2204460492503128e-16,1.0000000000000002,3.3306690738754696e-16,0.0,0.0,0.0,0.0,1.0],"mesh":11,"name":"mesh11"},{"matrix":[2.220446049250314e-16,-3.330669073875469e-16,1.0000000000000002,0.0,1.0,2.220446049250313e-16,-2.220446049250313e-16,0.0,-2.2204460492503128e-16,1.0000000000000002,3.3306690738754696e-16,0.0,0.0,0.0,0.0,1.0],"mesh":12,"name":"mesh12"},{"matrix":[2.220446049250314e-16,-3.330669073875469e-16,1.0000000000000002,0.0,1.0,2.220446049250313e-16,-2.220446049250313e-16,0.0,-2.2204460492503128e-16,1.0000000000000002,3.3306690738754696e-16,0.0,0.0,0.0,0.0,1.0],"mesh":13,"name":"mesh13"},{"matrix":[2.220446049250314e-16,-3.330669073875469e-16,1.0000000000000002,0.0,1.0,2.220446049250313e-16,-2.220446049250313e-16,0.0,-2.2204460492503128e-16,1.0000000000000002,3.3306690738754696e-16,0.0,0.0,0.0,0.0,1.0],"mesh":14,"name":"mesh14"},{"matrix":[2.220446049250314e-16,-3.330669073875469e-16,1.0000000000000002,0.0,1.0,2.220446049250313e-16,-2.220446049250313e-16,0.0,-2.2204460492503128e-16,1.0000000000000002,3.3306690738754696e-16,0.0,0.0,0.0,0.0,1.0],"mesh":15,"name":"mesh15"},{"matrix":[2.220446049250314e-16,-3.330669073875469e-16,1.0000000000000002,0.0,1.0,2.220446049250313e-16,-2.220446049250313e-16,0.0,-2.2204460492503128e-16,1.0000000000000002,3.3306690738754696e-16,0.0,0.0,0.0,0.0,1.0],"mesh":16,"name":"mesh16"},{"matrix":[2.220446049250314e-16,-3.330669073875469e-16,1.0000000000000002,0.0,1.0,2.220446049250313e-16,-2.220446049250313e-16,0.0,-2.2204460492503128e-16,1.0000000000000002,3.3306690738754696e-16,0.0,0.0,0.0,0.0,1.0],"mesh":17,"name":"mesh17"},{"camera":0,"matrix":[0.554700196225229,-0.8320502943378435,-7.113684555143346e-18,-0.0,0.3195993709027957,0.21306624726853046,0.9232870714969653,0.0,-0.7682212795973757,-0.5121475197315839,0.38411063979868787,-0.0,-29.68,-29.679999999999996,22.26,1.0],"name":"Camera Node"},{"children":[0,1,2,3,4,5,6,7,8,9,10,11,12,13,14,15,16,17,18],"name":"Renderer Node"}],"scene":0,"scenes":[{"name":"Layer 0","nodes":[19]}]}