{"accessors":[{"bufferView":0,"byteOffset":0,"componentType":5126,"count":600,"max":[10.804711128280815,3.82,-0.8952888717191847],"min":[10.195288871719185,3.623609440196124,-1.5047111282808152],"type":"VEC3"},{"bufferView":1,"byteOffset":0,"componentType":5125,"count":3312,"type":"SCALAR"},{"bufferView":2,"byteOffset":0,"componentType":5126,"count":600,"max":[10.804711128280815,-3.6231499999999994,-0.8952888717191847],"min":[10.195288871719185,-3.819540559803875,-1.5047111282808152],"type":"VEC3"},{"bufferView":3,"byteOffset":0,"componentType":5125,"count":3312,"type":"SCALAR"},{"bufferView":4,"byteOffset":0,"componentType":5126,"count":600,"max":[10.804711128280815,4.26685,-0.8952888717191847],"min":[10.195288871719185,4.0704594401961245,-1.5047111282808152],"type":"VEC3"},{"bufferView":5,"byteOffset":0,"componentType":5125,"count":3312,"type":"SCALAR"},{"bufferView":6,"byteOffset":0,"componentType":5126,"count":600,"max":[10.804711128280815,-4.07,-0.8952888717191847],"min":[10.195288871719185,-4.266390559803876,-1.5047111282808152],"type":"VEC3"},{"bufferView":7,"byteOffset":0,"componentType":5125,"count":3312,"type":"SCALAR"},{"bufferView":8,"byteOffset":0,"componentType":5126,"count":600,"max":[3.2285259402340127,-0.125,-0.9714740597659872],"min":[2.7714740597659873,-0.2897146630613151,-1.4285259402340127],"type":"VEC3"},{"bufferView":9,"byteOffset":0,"componentType":5125,"count":3312,"type":"SCALAR"},{"bufferView":10,"byteOffset":0,"componentType":5126,"count":600,"max":[3.2285259402340127,0.2901,-0.9714740597659872],"min":[2.7714740597659873,0.1253853369386849,-1.4285259402340127],"type":"VEC3"},{"bufferView":11,"byteOffset":0,"componentType":5125,"count":3312,"type":"SCALAR"},{"bufferView":12,"byteOffset":0,"componentType":5126,"count":404,"max":[10.947,12.785,2.4419743708276536],"min":[8.197,0.0,1.9137906206866846],"type":"VEC3"},{"bufferView":13,"byteOffset":0,"componentType":5125,"count":1797,"type":"SCALAR"},{"bufferView":14,"byteOffset":0,"componentType":5126,"count":404,"max":[10.947,-0.0,2.4419743708276536],"min":[8.197,-12.785,1.9137906206866846],"type":"VEC3"},{"bufferView":15,"byteOffset":0,"componentType":5125,"count":1797,"type":"SCALAR"},{"bufferView":16,"byteOffset":0,"componentType":5126,"count":303,"max":[22.03658183136318,4.07,6.3499393044039385],"min":[19.877,0.0,6.1340606955960615],"type":"VEC3"},{"bufferView":17,"byteOffset":0,"componentType":5125,"count":1200,"type":"SCALAR"},{"bufferView":18,"byteOffset":0,"componentType":5126,"count":303,"max":[22.03658183136318,-0.0,6.3499393044039385],"min":[19.877,-4.07,6.1340606955960615],"type":"VEC3"},{"bufferView":19,"byteOffset":0,"componentType":5125,"count":1200,"type":"SCALAR"},{"bufferView":20,"byteOffset":0,"componentType":5126,"count":404,"max":[22.655551423443427,0.2538036212488301,6.29],"min":[10.603,-0.2538036212488301,1.81],"type":"VEC3"},{"bufferView":21,"byteOffset":0,"componentType":5125,"count":1806,"type":"SCALAR"},{"bufferView":22,"byteOffset":0,"componentType":5126,"count":1344,"max":[20.78,1.375,2.2117092791150217],"min":[0.0,-1.3742482288437734,-0.4947677038721626],"type":"VEC3"},{"bufferView":23,"byteOffset":0,"componentType":5125,"count":6840,"type":"SCALAR"},{"bufferView":24,"byteOffset":0,"componentType":5126,"count":288,"max":[12.605899810791016,1.3905999660491943,0.9318000078201294],"min":[5.8495001792907715,-1.3905999660491943,0.5],"type":"VEC3"},{"bufferView":25,"byteOffset":0,"componentType":5126,"count":288,"type":"VEC3"},{"bufferView":26,"byteOffset":0,"componentType":5125,"count":1296,"type":"SCALAR"},{"bufferView":27,"byteOffset":0,"componentType":5126,"count":32,"max":[5.2779998779296875,1.3905999660491943,0.9318000078201294],"min":[4.465199947357178,-1.3905999660491943,0.5],"type":"VEC3"},{"bufferView":28,"byteOffset":0,"componentType":5126,"count":32,"type":"VEC3"},{"bufferView":29,"byteOffset":0,"componentType":5125,"count":144,"type":"SCALAR"},{"bufferView":30,"byteOffset":0,"componentType":5126,"count":24,"max":[7.0,0.7,0.0],"min":[4.5,-0.7,-0.5],"type":"VEC3"},{"bufferView":31,"byteOffset":0,"componentType":5125,"count":72,"type":"SCALAR"},{"bufferView":32,"byteOffset":0,"componentType":5126,"count":24,"max":[16.5,0.7,0.85],"min":[13.5,-0.7,0.15000000000000002],"type":"VEC3"},{"bufferView":33,"byteOffset":0,"componentType":5125,"count":72,"type":"SCALAR"},{"bufferView":34,"byteOffset":0,"componentType":5126,"count":768,"max":[12.780000000000001,4.405,2.397016111794276],"min":[5.78,3.485251501623174,0.8772238882057233],"type":"VEC3"},{"bufferView":35,"byteOffset":0,"componentType":5125,"count":3420,"type":"SCALAR"},{"bufferView":36,"byteOffset":0,"componentType":5126,"count":100,"max":[6.400000095367432,5.921092987060547,3.8400001525878906],"min":[6.400000095367432,1.9689069986343384,-0.12000000476837158],"type":"VEC3"},{"bufferView":37,"byteOffset":0,"componentType":5125,"count":300,"type":"SCALAR"},{"bufferView":38,"byteOffset":0,"componentType":5126,"count":768,"max":[12.780000000000001,-3.485,2.397016111794276],"min":[5.78,-4.404748498376826,0.8772238882057233],"type":"VEC3"},{"bufferView":39,"byteOffset":0,"componentType":5125,"count":3420,"type":"SCALAR"},{"bufferView":40,"byteOffset":0,"componentType":5126,"count":100,"max":[6.400000095367432,-1.9689069986343384,3.8400001525878906],"min":[6.400000095367432,-5.921092987060547,-0.12000000476837158],"type":"VEC3"},{"bufferView":41,"byteOffset":0,"componentType":5125,"count":300,"type":"SCALAR"}],"asset":{"generator":"VTK","version":"2.0"},"bufferViews":[{"buffer":0,"byteLength":7200,"byteOffset":0,"target":34962},{"buffer":1,"byteLength":13248,"byteOffset":0,"target":34963},{"buffer":2,"byteLength":7200,"byteOffset":0,"target":34962},{"buffer":3,"byteLength":13248,"byteOffset":0,"target":34963},{"buffer":4,"byteLength":7200,"byteOffset":0,"target":34962},{"buffer":5,"byteLength":13248,"byteOffset":0,"target":34963},{"buffer":6,"byteLength":7200,"byteOffset":0,"target":34962},{"buffer":7,"byteLength":13248,"byteOffset":0,"target":34963},{"buffer":8,"byteLength":7200,"byteOffset":0,"target":34962},{"buffer":9,"byteLength":13248,"byteOffset":0,"target":34963},{"buffer":10,"byteLength":7200,"byteOffset":0,"target":34962},{"buffer":11,"byteLength":13248,"byteOffset":0,"target":34963},{"buffer":12,"byteLength":4848,"byteOffset":0,"target":34962},{"buffer":13,"byteLength":7188,"byteOffset":0,"target":34963},{"buffer":14,"byteLength":4848,"byteOffset":0,"target":34962},{"buffer":15,"byteLength":7188,"byteOffset":0,"target":34963},{"buffer":16,"byteLength":3636,"byteOffset":0,"target":34962},{"buffer":17,"byteLength":4800,"byteOffset":0,"target":34963},{"buffer":18,"byteLength":3636,"byteOffset":0,"target":34962},{"buffer":19,"byteLength":4800,"byteOffset":0,"target":34963},{"buffer":20,"byteLength":4848,"byteOffset":0,"target":34962},{"buffer":21,"byteLength":7224,"byteOffset":0,"target":34963},{"buffer":22,"byteLength":16128,"byteOffset":0,"target":34962},{"buffer":23,"byteLength":27360,"byteOffset":0,"target":34963},{"buffer":24,"byteLength":3456,"byteOffset":0,"target":34962},{"buffer":25,"byteLength":3456,"byteOffset":0,"target":34962},{"buffer":26,"byteLength":5184,"byteOffset":0,"target":34963},{"buffer":27,"byteLength":384,"byteOffset":0,"target":34962},{"buffer":28,"byteLength":384,"byteOffset":0,"target":34962},{"buffer":29,"byteLength":576,"byteOffset":0,"target":34963},{"buffer":30,"byteLength":288,"byteOffset":0,"target":34962},{"buffer":31,"byteLength":288,"byteOffset":0,"target":34963},{"buffer":32,"byteLength":288,"byteOffset":0,"target":34962},{"buffer":33,"byteLength":288,"byteOffset":0,"target":34963},{"buffer":34,"byteLength":9216,"byteOffset":0,"target":34962},{"buffer":35,"byteLength":13680,"byteOffset":0,"target":34963},{"buffer":36,"byteLength":1200,"byteOffset":0,"target":34962},{"buffer":37,"byteLength":1200,"byteOffset":0,"target":34963},{"buffer":38,"byteLength":9216,"byteOffset":0,"target":34962},{"buffer":39,"byteLength":13680,"byteOffset":0,"target":34963},{"buffer":40,"byteLength":1200,"byteOffset":0,"target":34962},{"buffer":41,"byteLength":1200,"byteOffset":0,"target":34963}],"buffers":[{"byteLength":7200,"uri":"data:application/octet-stream;base64,"},{"byteLength":13248,"uri":"data:application/octet-stream;base64,"},{"byteLength":7200,"uri":"data:application/octet-stream;base64,"},{"byteLength":13248,"uri":"data:application/octet-stream;base64,"},{"byteLength":7200,"uri":"data:application/octet-stream;base64,"},{"byteLength":13248,"uri":"data:application/octet-stream;base64,"},{"byteLength":7200,"uri":"data:application/octet-stream;base64,"},{"byteLength":13248,"uri":"data:application/octet-stream;base64,"},{"byteLength":7200,"uri":"data:application/octet-stream;base64,"},{"byteLength":13248,"uri":"data:application/octet-stream;base64,"},{"byteLength":7200,"uri":"data:application/octet-stream;base64,"},{"byteLength":13248,"uri":"data:application/octet-stream;base64,"},{"byteLength":4848,"uri":"data:application/octet-stream;base64,"},{"byteLength":7188,"uri":"data:application/octet-stream;base64,"},{"byteLength":4848,"uri":"data:application/octet-stream;base64,"},{"byteLength":7188,"uri":"data:application/octet-stream;base64,"},{"byteLength":3636,"uri":"data:application/octet-stream;base64,"},{"byteLength":4800,"uri":"data:application/octet-stream;base64,"},{"byteLength":3636,"uri":"data:application/octet-stream;base64,"},{"byteLength":4800,"uri":"data:application/octet-stream;base64,"},{"byteLength":4848,"uri":"data:application/octet-stream;base64,"},{"byteLength":7224,"uri":"data:application/octet-stream;base64,"},{"byteLength":16128,"uri":"data:application/octet-stream;base64,"},{"byteLength":27360,"uri":"data:application/octet-stream;base64,"},{"byteLength":3456,"uri":"data:application/octet-stream;base64,"},{"byteLength":3456,"uri":"data:application/octet-stream;base64,"},{"byteLength":5184,"uri":"data:application/octet-stream;base64,"},{"byteLength":384,"uri":"data:application/octet-stream;base64,"},{"byteLength":384,"uri":"data:application/octet-stream;base64,"},{"byteLength":576,"uri":"data:application/octet-stream;base64,"},{"byteLength":288,"uri":"data:application/octet-stream;base64,"},{"byteLength":288,"uri":"data:application/octet-stream;base64,"},{"byteLength":288,"uri":"data:application/octet-stream;base64,"},{"byteLength":288,"uri":"data:application/octet-stream;base64,"},{"byteLength":9216,"uri":"data:application/octet-stream;base64,"},{"byteLength":13680,"uri":"data:application/octet-stream;base64,"},{"byteLength":1200,"uri":"data:application/octet-stream;base64,"},{"byteLength":1200,"uri":"data:application/octet-stream;base64,"},{"byteLength":9216,"uri":"data:application/octet-stream;base64,"},{"byteLength":13680,"uri":"data:application/octet-stream;base64,"},{"byteLength":1200,"uri":"data:application/octet-stream;base64,"},{"byteLength":1200,"uri":"data:application/octet-stream;base64,"}],"cameras":[{"perspective":{"aspectRatio":1.0,"yfov":0.5235987755982988,"zfar":90.57537581884121,"znear":14.048670644299934},"type":"perspective"}],"materials":[{"pbrMetallicRoughness":{"baseColorFactor":[0.5019607843137255,0.5019607843137255,0.5019607843137255,1.0],"metallicFactor":0.0,"roughnessFactor":1.0}},{"pbrMetallicRoughness":{"baseColorFactor":[0.5019607843137255,0.5019607843137255,0.5019607843137255,1.0],"metallicFactor":0.0,"roughnessFactor":1.0}},{"pbrMetallicRoughness":{"baseColorFactor":[0.5019607843137255,0.5019607843137255,0.5019607843137255,1.0],"metallicFactor":0.0,"roughnessFactor":1.0}},{"pbrMetallicRoughness":{"baseColorFactor":[0.5019607843137255,0.5019607843137255,0.5019607843137255,1.0],"metallicFactor":0.0,"roughnessFactor":1.0}},{"pbrMetallicRoughness":{"baseColorFactor":[0.5019607843137255,0.5019607843137255,0.5019607843137255,1.0],"metallicFactor":0.0,"roughnessFactor":1.0}},{"pbrMetallicRoughness":{"baseColorFactor":[0.5019607843137255,0.5019607843137255,0.5019607843137255,1.0],"metallicFactor":0.0,"roughnessFactor":1.0}},{"pbrMetallicRoughness":{"baseColorFactor":[0.5019607843137255,0.5019607843137255,0.5019607843137255,0.5],"metallicFactor":0.0,"roughnessFactor":1.0}},{"pbrMetallicRoughness":{"baseColorFactor":[0.5019607843137255,0.5019607843137255,0.5019607843137255,0.5],"metallicFactor":0.0,"roughnessFactor":1.0}},{"pbrMetallicRoughness":{"baseColorFactor":[0.5019607843137255,0.5019607843137255,0.5019607843137255,0.5],"metallicFactor":0.0,"roughnessFactor":1.0}},{"pbrMetallicRoughness":{"baseColorFactor":[0.5019607843137255,0.5019607843137255,0.5019607843137255,0.5],"metallicFactor":0.0,"roughnessFactor":1.0}},{"pbrMetallicRoughness":{"baseColorFactor":[0.5019607843137255,0.5019607843137255,0.5019607843137255,0.5],"metallicFactor":0.0,"roughnessFactor":1.0}},{"pbrMetallicRoughness":{"baseColorFactor":[0.5019607843137255,0.5019607843137255,0.5019607843137255,0.5],"metallicFactor":0.0,"roughnessFactor":1.0}},{"pbrMetallicRoughness":{"baseColorFactor":[0.27450980392156865,0.5098039215686274,0.7058823529411765,1.0],"metallicFactor":0.0,"roughnessFactor":1.0}},{"pbrMetallicRoughness":{"baseColorFactor":[0.9568627450980393,0.6431372549019608,0.3764705882352941,1.0],"metallicFactor":0.0,"roughnessFactor":1.0}},{"pbrMetallicRoughness":{"baseColorFactor":[0.0,0.0,1.0,0.6],"metallicFactor":0.0,"roughnessFactor":1.0}},{"pbrMetallicRoughness":{"baseColorFactor":[0.0,0.0,1.0,0.6],"metallicFactor":0.0,"roughnessFactor":1.0}},{"pbrMetallicRoughness":{"baseColorFactor":[0.5019607843137255,0.5019607843137255,0.5019607843137255,0.5],"metallicFactor":0.0,"roughnessFactor":1.0}},{"pbrMetallicRoughness":{"baseColorFactor":[0.0,0.0,0.0,0.6],"metallicFactor":0.0,"roughnessFactor":1.0}},{"pbrMetallicRoughness":{"baseColorFactor":[0.5019607843137255,0.5019607843137255,0.5019607843137255,0.5],"metallicFactor":0.0,"roughnessFactor":1.0}},{"pbrMetallicRoughness":{"baseColorFactor":[0.0,0.0,0.0,0.6],"metallicFactor":0.0,"roughnessFactor":1.0}}],"meshes":[{"name":"mesh0","primitives":[{"attributes":{"POSITION":0},"indices":1,"material":0,"mode":4}]},{"name":"mesh1","primitives":[{"attributes":{"POSITION":2},"indices":3,"material":1,"mode":4}]},{"name":"mesh2","primitives":[{"attributes":{"POSITION":4},"indices":5,"material":2,"mode":4}]},{"name":"mesh3","primitives":[{"attributes":{"POSITION":6},"indices":7,"material":3,"mode":4}]},{"name":"mesh4","primitives":[{"attributes":{"POSITION":8},"indices":9,"material":4,"mode":4}]},{"name":"mesh5","primitives":[{"attributes":{"POSITION":10},"indices":11,"material":5,"mode":4}]},{"name":"mesh6","primitives":[{"attributes":{"POSITION":12},"indices":13,"material":6,"mode":4}]},{"name":"mesh7","primitives":[{"attributes":{"POSITION":14},"indices":15,"material":7,"mode":4}]},{"name":"mesh8","primitives":[{"attributes":{"POSITION":16},"indices":17,"material":8,"mode":4}]},{"name":"mesh9","primitives":[{"attributes":{"POSITION":18},"indices":19,"material":9,"mode":4}]},{"name":"mesh10","primitives":[{"attributes":{"POSITION":20},"indices":21,"material":10,"mode":4}]},{"name":"mesh11","primitives":[{"attributes":{"POSITION":22},"indices":23,"material":11,"mode":4}]},{"name":"mesh12","primitives":[{"attributes":{"NORMAL":25,"POSITION":24},"indices":26,"material":12,"mode":4}]},{"name":"mesh13","primitives":[{"attributes":{"NORMAL":28,"POSITION":27},"indices":29,"material":13,"mode":4}]},{"name":"mesh14","primitives":[{"attributes":{"POSITION":30},"indices":31,"material":14,"mode":4}]},{"name":"mesh15","primitives":[{"attributes":{"POSITION":32},"indices":33,"material":15,"mode":4}]},{"name":"mesh16","primitives":[{"attributes":{"POSITION":34},"indices":35,"material":16,"mode":4}]},{"name":"mesh17","primitives":[{"attributes":{"POSITION":36},"indices":37,"material":17,"mode":4}]},{"name":"mesh18","primitives":[{"attributes":{"POSITION":38},"indices":39,"material":18,"mode":4}]},{"name":"mesh19","primitives":[{"attributes":{"POSITION":40},"indices":41,"material":19,"mode":4}]}],"nodes":[{"matrix":[2.220446049250314e-16,-3.330669073875469e-16,1.0000000000000002,0.0,1.0,2.220446049250313e-16,-2.220446049250313e-16,0.0,-2.2204460492503128e-16,1.0000000000000002,3.3306690738754696e-16,0.0,0.0,0.0,0.0,1.0],"mesh":0,"name":"mesh0"},{"matrix":[2.220446049250314e-16,-3.330669073875469e-16,1.0000000000000002,0.0,1.0,2.220446049250313e-16,-2.220446049250313e-16,0.0,-2.2204460492503128e-16,1.0000000000000002,3.3306690738754696e-16,0.0,0.0,0.0,0.0,1.0],"mesh":1,"name":"mesh1"},{"matrix":[2.220446049250314e-16,-3.330669073875469e-16,1.0000000000000002,0.0,1.0,2.220446049250313e-16,-2.220446049250313e-16,0.0,-2.2204460492503128e-16,1.0000000000000002,3.3306690738754696e-16,0.0,0.0,0.0,0.0,1.0],"mesh":2,"name":"mesh2"},{"matrix":[2.220446049250314e-16,-3.330669073875469e-16,1.0000000000000002,0.0,1.0,2.220446049250313e-16,-2.220446049250313e-16,0.0,-2.2204460492503128e-16,1.0000000000000002,3.3306690738754696e-16,0.0,0.0,0.0,0.0,1.0],"mesh":3,"name":"mesh3"},{"matrix":[2.220446049250314e-16,-3.330669073875469e-16,1.0000000000000002,0.0,1.0,2.220446049250313e-16,-2.220446049250313e-16,0.0,-2.2204460492503128e-16,1.0000000000000002,3.3306690738754696e-16,0.0,0.0,0.0,0.0,1.0],"mesh":4,"name":"mesh4"},{"matrix":[2.220446049250314e-16,-3.330669073875469e-16,1.0000000000000002,0.0,1.0,2.220446049250313e-16,-2.220446049250313e-16,0.0,-2.2204460492503128e-16,1.0000000000000002,3.3306690738754696e-16,0.0,0.0,0.0,0.0,1.0],"mesh":5,"name":"mesh5"},{"matrix":[2.220446049250314e-16,-3.330669073875469e-16,1.0000000000000002,0.0,1.0,2.220446049250313e-16,-2.220446049250313e-16,0.0,-2.2204460492503128e-16,1.0000000000000002,3.3306690738754696e-16,0.0,0.0,0.0,0.0,1.0],"mesh":6,"name":"mesh6"},{"matrix":[2.220446049250314e-16,-3.330669073875469e-16,1.0000000000000002,0.0,1.0,2.220446049250313e-16,-2.220446049250313e-16,0.0,-2.2204460492503128e-16,1.0000000000000002,3.3306690738754696e-16,0.0,0.0,0.0,0.0,1.0],"mesh":7,"name":"mesh7"},{"matrix":[2.220446049250314e-16,-3.330669073875469e-16,1.0000000000000002,0.0,1.0,2.220446049250313e-16,-2.220446049250313e-16,0.0,-2.2204460492503128e-16,1.0000000000000002,3.3306690738754696e-16,0.0,0.0,0.0,0.0,1.0],"mesh":8,"name":"mesh8"},{"matrix":[2.220446049250314e-16,-3.330669073875469e-16,1.0000000000000002,0.0,1.0,2.220446049250313e-16,-2.220446049250313e-16,0.0,-2.2204460492503128e-16,1.0000000000000002,3.3306690738754696e-16,0.0,0.0,0.0,0.0,1.0],"mesh":9,"name":"mesh9"},{"matrix":[2.220446049250314e-16,-3.330669073875469e-16,1.0000000000000002,0.0,1.0,2.220446049250313e-16,-2.220446049250313e-16,0.0,-2.2204460492503128e-16,1.0000000000000002,3.3306690738754696e-16,0.0,0.0,0.0,0.0,1.0],"mesh":10,"name":"mesh10"},{"matrix":[2.220446049250314e-16,-3.330669073875469e-16,1.0000000000000002,0.0,1.0,2.220446049250313e-16,-2.220446049250313e-16,0.0,-2.2204460492503128e-16,1.0000000000000002,3.3306690738754696e-16,0.0,0.0,0.0,0.0,1.0],"mesh":11,"name":"mesh11"},{"matrix":[2.220446049250314e-16,-3.330669073875469e-16,1.0000000000000002,0.0,1.0,2.220446049250313e-16,-2.220446049250313e-16,0.0,-2.2204460492503128e-16,1.0000000000000002,3.3306690738754696e-16,0.0,0.0,0.0,0.0,1.0],"mesh":12,"name":"mesh12"},{"matrix":[2.220446049250314e-16,-3.330669073875469e-16,1.0000000000000002,0.0,1.0,2.220446049250313e-16,-2.220446049250313e-16,0.0,-2.2204460492503128e-16,1.0000000000000002,3.3306690738754696e-16,0.0,0.0,0.0,0.0,1.0],"mesh":13,"name":"mesh13"},{"matrix":[2.220446049250314e-16,-3.330669073875469e-16,1.0000000000000002,0.0,1.0,2.220446049250313e-16,-2.220446049250313e-16,0.0,-2.2204460492503128e-16,1.0000000000000002,3.3306690738754696e-16,0.0,0.0,0.0,0.0,1.0],"mesh":14,"name":"mesh14"},{"matrix":[2.220446049250314e-16,-3.330669073875469e-16,1.0000000000000002,0.0,1.0,2.220446049250313e-16,-2.220446049250313e-16,0.0,-2.2204460492503128e-16,1.0000000000000002,3.3306690738754696e-16,0.0,0.0,0.0,0.0,1.0],"mesh":15,"name":"mesh15"},{"matrix":[2.220446049250314e-16,-3.330669073875469e-16,1.0000000000000002,0.0,1.0,2.220446049250313e-16,-2.220446049250313e-16,0.0,-2.2204460492503128e-16,1.0000000000000002,3.3306690738754696e-16,0.0,0.0,0.0,0.0,1.0],"mesh":16,"name":"mesh16"},{"matrix":[2.220446049250314e-16,-3.330669073875469e-16,1.0000000000000002,0.0,1.0,2.220446049250313e-16,-2.220446049250313e-16,0.0,-2.2204460492503128e-16,1.0000000000000002,3.3306690738754696e-16,0.0,0.0,0.0,0.0,1.0],"mesh":17,"name":"mesh17"},{"matrix":[2.220446049250314e-16,-3.330669073875469e-16,1.0000000000000002,0.0,1.0,2.220446049250313e-16,-2.220446049250313e-16,0.0,-2.2204460492503128e-16,1.0000000000000002,3.3306690738754696e-16,0.0,0.0,0.0,0.0,1.0],"mesh":18,"name":"mesh18"},{"matrix":[2.220446049250314e-16,-3.330669073875469e-16,1.0000000000000002,0.0,1.0,2.220446049250313e-16,-2.220446049250313e-16,0.0,-2.2204460492503128e-16,1.0000000000000002,3.3306690738754696e-16,0.0,0.0,0.0,0.0,1.0],"mesh":19,"name":"mesh19"},{"camera":0,"matrix":[0.554700196225229,-0.8320502943378437,1.2877206573322924e-18,-0.0,0.3195993709027958,0.21306624726853052,0.9232870714969657,0.0,-0.768221279597376,-0.5121475197315839,0.38411063979868804,-0.0,-25.57,-25.569999999999997,19.1775,1.0],"name":"Camera Node"},{"children":[0,1,2,3,4,5,6,7,8,9,10,11,12,13,14,15,16,17,18,19,20],"name":"Renderer Node"}],"scene":0,"scenes":[{"name":"Layer 0","nodes":[21]}]}