{"accessors":[{"bufferView":0,"byteOffset":0,"componentType":5126,"count":600,"max":[9.855496316327617,2.1397,-0.5589036836723824],"min":[9.144503683672383,1.8609521086654668,-1.2698963163276178],"type":"VEC3"},{"bufferView":1,"byteOffset":0,"componentType":5125,"count":3312,"type":"SCALAR"},{"bufferView":2,"byteOffset":0,"componentType":5126,"count":600,"max":[9.855496316327617,-1.8603,-0.5589036836723824],"min":[9.144503683672383,-2.1390478913345334,-1.2698963163276178],"type":"VEC3"},{"bufferView":3,"byteOffset":0,"componentType":5125,"count":3312,"type":"SCALAR"},{"bufferView":4,"byteOffset":0,"componentType":5126,"count":600,"max":[2.779311128280815,-0.125,-0.3302888717191848],"min":[2.220688871719185,-0.2897146630613151,-0.8889111282808153],"type":"VEC3"},{"bufferView":5,"byteOffset":0,"componentType":5125,"count":3312,"type":"SCALAR"},{"bufferView":6,"byteOffset":0,"componentType":5126,"count":600,"max":[2.779311128280815,0.2901,-0.3302888717191848],"min":[2.220688871719185,0.1253853369386849,-0.8889111282808153],"type":"VEC3"},{"bufferView":7,"byteOffset":0,"componentType":5125,"count":3312,"type":"SCALAR"},{"bufferView":8,"byteOffset":0,"componentType":5126,"count":808,"max":[15.550087201506987,6.94604,0.6288826661979824],"min":[4.631,0.0,0.11390542231561257],"type":"VEC3"},{"bufferView":9,"byteOffset":0,"componentType":5125,"count":4224,"type":"SCALAR"},{"bufferView":10,"byteOffset":0,"componentType":5126,"count":808,"max":[15.550087201506987,-0.0,0.6288826661979824],"min":[4.631,-6.94604,0.11390542231561257],"type":"VEC3"},{"bufferView":11,"byteOffset":0,"componentType":5125,"count":4224,"type":"SCALAR"},{"bufferView":12,"byteOffset":0,"componentType":5126,"count":505,"max":[18.88586456662864,4.553755,0.557871668943498],"min":[15.0,1.424,0.42298550752434927],"type":"VEC3"},{"bufferView":13,"byteOffset":0,"componentType":5125,"count":2412,"type":"SCALAR"},{"bufferView":14,"byteOffset":0,"componentType":5126,"count":505,"max":[18.88586456662864,-1.424,0.557871668943498],"min":[15.0,-4.553755,0.42298550752434927],"type":"VEC3"},{"bufferView":15,"byteOffset":0,"componentType":5125,"count":2412,"type":"SCALAR"},{"bufferView":16,"byteOffset":0,"componentType":5126,"count":303,"max":[16.3071,2.75,2.8145704590213287],"min":[13.196,1.45,0.48119802195140626],"type":"VEC3"},{"bufferView":17,"byteOffset":0,"componentType":5125,"count":1200,"type":"SCALAR"},{"bufferView":18,"byteOffset":0,"componentType":5126,"count":303,"max":[16.3071,-1.45,2.8145704590213287],"min":[13.196,-2.75,0.48119802195140626],"type":"VEC3"},{"bufferView":19,"byteOffset":0,"componentType":5125,"count":1200,"type":"SCALAR"},{"bufferView":20,"byteOffset":0,"componentType":5126,"count":960,"max":[17.52,0.87,1.5714307246808616],"min":[0.0,-0.869048927840167,-0.6877570090037634],"type":"VEC3"},{"bufferView":21,"byteOffset":0,"componentType":5125,"count":4560,"type":"SCALAR"},{"bufferView":22,"byteOffset":0,"componentType":5126,"count":576,"max":[12.8,-2.7,0.08993165249623453],"min":[6.8,-3.6997266286704633,-0.9099316524962344],"type":"VEC3"},{"bufferView":23,"byteOffset":0,"componentType":5125,"count":2280,"type":"SCALAR"},{"bufferView":24,"byteOffset":0,"componentType":5126,"count":576,"max":[12.8,3.7,0.08993165249623453],"min":[6.8,2.700273371329537,-0.9099316524962344],"type":"VEC3"},{"bufferView":25,"byteOffset":0,"componentType":5125,"count":2280,"type":"SCALAR"},{"bufferView":26,"byteOffset":0,"componentType":5126,"count":1248,"max":[20.978,1.65,0.6499111482451049],"min":[16.0,0.35035538272839806,-0.6499111482451049],"type":"VEC3"},{"bufferView":27,"byteOffset":0,"componentType":5125,"count":6270,"type":"SCALAR"},{"bufferView":28,"byteOffset":0,"componentType":5126,"count":384,"max":[16.908,1.852066,0.5800199279018216],"min":[4.799060468726761,0.17661918411414956,-0.7364880982478288],"type":"VEC3"},{"bufferView":29,"byteOffset":0,"componentType":5125,"count":1710,"type":"SCALAR"},{"bufferView":30,"byteOffset":0,"componentType":5126,"count":1248,"max":[20.978,-0.35,0.6499111482451049],"min":[16.0,-1.649644617271602,-0.6499111482451049],"type":"VEC3"},{"bufferView":31,"byteOffset":0,"componentType":5125,"count":6270,"type":"SCALAR"},{"bufferView":32,"byteOffset":0,"componentType":5126,"count":384,"max":[16.908,-0.17649559999999997,0.5800199279018216],"min":[4.798955735950716,-1.8519164960318208,-0.7364880982478288],"type":"VEC3"},{"bufferView":33,"byteOffset":0,"componentType":5125,"count":1710,"type":"SCALAR"}],"asset":{"generator":"VTK","version":"2.0"},"bufferViews":[{"buffer":0,"byteLength":7200,"byteOffset":0,"target":34962},{"buffer":1,"byteLength":13248,"byteOffset":0,"target":34963},{"buffer":2,"byteLength":7200,"byteOffset":0,"target":34962},{"buffer":3,"byteLength":13248,"byteOffset":0,"target":34963},{"buffer":4,"byteLength":7200,"byteOffset":0,"target":34962},{"buffer":5,"byteLength":13248,"byteOffset":0,"target":34963},{"buffer":6,"byteLength":7200,"byteOffset":0,"target":34962},{"buffer":7,"byteLength":13248,"byteOffset":0,"target":34963},{"buffer":8,"byteLength":9696,"byteOffset":0,"target":34962},{"buffer":9,"byteLength":16896,"byteOffset":0,"target":34963},{"buffer":10,"byteLength":9696,"byteOffset":0,"target":34962},{"buffer":11,"byteLength":16896,"byteOffset":0,"target":34963},{"buffer":12,"byteLength":6060,"byteOffset":0,"target":34962},{"buffer":13,"byteLength":9648,"byteOffset":0,"target":34963},{"buffer":14,"byteLength":6060,"byteOffset":0,"target":34962},{"buffer":15,"byteLength":9648,"byteOffset":0,"target":34963},{"buffer":16,"byteLength":3636,"byteOffset":0,"target":34962},{"buffer":17,"byteLength":4800,"byteOffset":0,"target":34963},{"buffer":18,"byteLength":3636,"byteOffset":0,"target":34962},{"buffer":19,"byteLength":4800,"byteOffset":0,"target":34963},{"buffer":20,"byteLength":11520,"byteOffset":0,"target":34962},{"buffer":21,"byteLength":18240,"byteOffset":0,"target":34963},{"buffer":22,"byteLength":6912,"byteOffset":0,"target":34962},{"buffer":23,"byteLength":9120,"byteOffset":0,"target":34963},{"buffer":24,"byteLength":6912,"byteOffset":0,"target":34962},{"buffer":25,"byteLength":9120,"byteOffset":0,"target":34963},{"buffer":26,"byteLength":14976,"byteOffset":0,"target":34962},{"buffer":27,"byteLength":25080,"byteOffset":0,"target":34963},{"buffer":28,"byteLength":4608,"byteOffset":0,"target":34962},{"buffer":29,"byteLength":6840,"byteOffset":0,"target":34963},{"buffer":30,"byteLength":14976,"byteOffset":0,"target":34962},{"buffer":31,"byteLength":25080,"byteOffset":0,"target":34963},{"buffer":32,"byteLength":4608,"byteOffset":0,"target":34962},{"buffer":33,"byteLength":6840,"byteOffset":0,"target":34963}],"buffers":[{"byteLength":7200,"uri":"data:application/octet-stream;base64,"},{"byteLength":13248,"uri":"data:application/octet-stream;base64,"},{"byteLength":7200,"uri":"data:application/octet-stream;base64,"},{"byteLength":13248,"uri":"data:application/octet-stream;base64,"},{"byteLength":7200,"uri":"data:application/octet-stream;base64,"},{"byteLength":13248,"uri":"data:application/octet-stream;base64,"},{"byteLength":7200,"uri":"data:application/octet-stream;base64,"},{"byteLength":13248,"uri":"data:application/octet-stream;base64,"},{"byteLength":9696,"uri":"data:application/octet-stream;base64,"},{"byteLength":16896,"uri":"data:application/octet-stream;base64,"},{"byteLength":9696,"uri":"data:application/octet-stream;base64,"},{"byteLength":16896,"uri":"data:application/octet-stream;base64,"},{"byteLength":6060,"uri":"data:application/octet-stream;base64,"},{"byteLength":9648,"uri":"data:application/octet-stream;base64,"},{"byteLength":6060,"uri":"data:application/octet-stream;base64,"},{"byteLength":9648,"uri":"data:application/octet-stream;base64,"},{"byteLength":3636,"uri":"data:application/octet-stream;base64,"},{"byteLength":4800,"uri":"data:application/octet-stream;base64,"},{"byteLength":3636,"uri":"data:application/octet-stream;base64,"},{"byteLength":4800,"uri":"data:application/octet-stream;base64,"},{"byteLength":11520,"uri":"data:application/octet-stream;base64,"},{"byteLength":18240,"uri":"data:application/octet-stream;base64,"},{"byteLength":6912,"uri":"data:application/octet-stream;base64,"},{"byteLength":9120,"uri":"data:application/octet-stream;base64,"},{"byteLength":6912,"uri":"data:application/octet-stream;base64,"},{"byteLength":9120,"uri":"data:application/octet-stream;base64,"},{"byteLength":14976,"uri":"data:application/octet-stream;base64,"},{"byteLength":25080,"uri":"data:application/octet-stream;base64,"},{"byteLength":4608,"uri":"data:application/octet-stream;base64,"},{"byteLength":6840,"uri":"data:application/octet-stream;base64,"},{"byteLength":14976,"uri":"data:application/octet-stream;base64,"},{"byteLength":25080,"uri":"data:application/octet-stream;base64,"},{"byteLength":4608,"uri":"data:application/octet-stream;base64,"},{"byteLength":6840,"uri":"data:application/octet-stream;base64,"}],"cameras":[{"perspective":{"aspectRatio":1.0,"yfov":0.5235987755982988,"zfar":66.8303754662658,"znear":10.212650105122773},"type":"perspective"}],"materials":[{"pbrMetallicRoughness":{"baseColorFactor":[0.5019607843137255,0.5019607843137255,0.5019607843137255,1.0],"metallicFactor":0.0,"roughnessFactor":1.0}},{"pbrMetallicRoughness":{"baseColorFactor":[0.5019607843137255,0.5019607843137255,0.5019607843137255,1.0],"metallicFactor":0.0,"roughnessFactor":1.0}},{"pbrMetallicRoughness":{"baseColorFactor":[0.5019607843137255,0.5019607843137255,0.5019607843137255,1.0],"metallicFactor":0.0,"roughnessFactor":1.0}},{"pbrMetallicRoughness":{"baseColorFactor":[0.5019607843137255,0.5019607843137255,0.5019607843137255,1.0],"metallicFactor":0.0,"roughnessFactor":1.0}},{"pbrMetallicRoughness":{"baseColorFactor":[0.5019607843137255,0.5019607843137255,0.5019607843137255,0.5],"metallicFactor":0.0,"roughnessFactor":1.0}},{"pbrMetallicRoughness":{"baseColorFactor":[0.5019607843137255,0.5019607843137255,0.5019607843137255,0.5],"metallicFactor":0.0,"roughnessFactor":1.0}},{"pbrMetallicRoughness":{"baseColorFactor":[0.5019607843137255,0.5019607843137255,0.5019607843137255,0.5],"metallicFactor":0.0,"roughnessFactor":1.0}},{"pbrMetallicRoughness":{"baseColorFactor":[0.5019607843137255,0.5019607843137255,0.5019607843137255,0.5],"metallicFactor":0.0,"roughnessFactor":1.0}},{"pbrMetallicRoughness":{"baseColorFactor":[0.5019607843137255,0.5019607843137255,0.5019607843137255,0.5],"metallicFactor":0.0,"roughnessFactor":1.0}},{"pbrMetallicRoughness":{"baseColorFactor":[0.5019607843137255,0.5019607843137255,0.5019607843137255,0.5],"metallicFactor":0.0,"roughnessFactor":1.0}},{"pbrMetallicRoughness":{"baseColorFactor":[0.5019607843137255,0.5019607843137255,0.5019607843137255,0.5],"metallicFactor":0.0,"roughnessFactor":1.0}},{"pbrMetallicRoughness":{"baseColorFactor":[0.5019607843137255,0.5019607843137255,0.5019607843137255,0.5],"metallicFactor":0.0,"roughnessFactor":1.0}},{"pbrMetallicRoughness":{"baseColorFactor":[0.5019607843137255,0.5019607843137255,0.5019607843137255,0.5],"metallicFactor":0.0,"roughnessFactor":1.0}},{"pbrMetallicRoughness":{"baseColorFactor":[0.0,0.0,0.0,0.5],"metallicFactor":0.0,"roughnessFactor":1.0}},{"pbrMetallicRoughness":{"baseColorFactor":[0.5019607843137255,0.5019607843137255,0.5019607843137255,0.5],"metallicFactor":0.0,"roughnessFactor":1.0}},{"pbrMetallicRoughness":{"baseColorFactor":[0.0,0.0,0.0,0.5],"metallicFactor":0.0,"roughnessFactor":1.0}},{"pbrMetallicRoughness":{"baseColorFactor":[0.5019607843137255,0.5019607843137255,0.5019607843137255,0.5],"metallicFactor":0.0,"roughnessFactor":1.0}}],"meshes":[{"name":"mesh0","primitives":[{"attributes":{"POSITION":0},"indices":1,"material":0,"mode":4}]},{"name":"mesh1","primitives":[{"attributes":{"POSITION":2},"indices":3,"material":1,"mode":4}]},{"name":"mesh2","primitives":[{"attributes":{"POSITION":4},"indices":5,"material":2,"mode":4}]},{"name":"mesh3","primitives":[{"attributes":{"POSITION":6},"indices":7,"material":3,"mode":4}]},{"name":"mesh4","primitives":[{"attributes":{"POSITION":8},"indices":9,"material":4,"mode":4}]},{"name":"mesh5","primitives":[{"attributes":{"POSITION":10},"indices":11,"material":5,"mode":4}]},{"name":"mesh6","primitives":[{"attributes":{"POSITION":12},"indices":13,"material":6,"mode":4}]},{"name":"mesh7","primitives":[{"attributes":{"POSITION":14},"indices":15,"material":7,"mode":4}]},{"name":"mesh8","primitives":[{"attributes":{"POSITION":16},"indices":17,"material":8,"mode":4}]},{"name":"mesh9","primitives":[{"attributes":{"POSITION":18},"indices":19,"material":9,"mode":4}]},{"name":"mesh10","primitives":[{"attributes":{"POSITION":20},"indices":21,"material":10,"mode":4}]},{"name":"mesh11","primitives":[{"attributes":{"POSITION":22},"indices":23,"material":11,"mode":4}]},{"name":"mesh12","primitives":[{"attributes":{"POSITION":24},"indices":25,"material":12,"mode":4}]},{"name":"mesh13","primitives":[{"attributes":{"POSITION":26},"indices":27,"material":13,"mode":4}]},{"name":"mesh14","primitives":[{"attributes":{"POSITION":28},"indices":29,"material":14,"mode":4}]},{"name":"mesh15","primitives":[{"attributes":{"POSITION":30},"indices":31,"material":15,"mode":4}]},{"name":"mesh16","primitives":[{"attributes":{"POSITION":32},"indices":33,"material":16,"mode":4}]}],"nodes":[{"matrix":[2.220446049250314e-16,-3.330669073875469e-16,1.0000000000000002,0.0,1.0,2.220446049250313e-16,-2.220446049250313e-16,0.0,-2.2204460492503128e-16,1.0000000000000002,3.3306690738754696e-16,0.0,0.0,0.0,0.0,1.0],"mesh":0,"name":"mesh0"},{"matrix":[2.220446049250314e-16,-3.330669073875469e-16,1.0000000000000002,0.0,1.0,2.220446049250313e-16,-2.220446049250313e-16,0.0,-2.2204460492503128e-16,1.0000000000000002,3.3306690738754696e-16,0.0,0.0,0.0,0.0,1.0],"mesh":1,"name":"mesh1"},{"matrix":[2.220446049250314e-16,-3.330669073875469e-16,1.0000000000000002,0.0,1.0,2.220446049250313e-16,-2.220446049250313e-16,0.0,-2.2204460492503128e-16,1.0000000000000002,3.3306690738754696e-16,0.0,0.0,0.0,0.0,1.0],"mesh":2,"name":"mesh2"},{"matrix":[2.220446049250314e-16,-3.330669073875469e-16,1.0000000000000002,0.0,1.0,2.220446049250313e-16,-2.220446049250313e-16,0.0,-2.2204460492503128e-16,1.0000000000000002,3.3306690738754696e-16,0.0,0.0,0.0,0.0,1.0],"mesh":3,"name":"mesh3"},{"matrix":[2.220446049250314e-16,-3.330669073875469e-16,1.0000000000000002,0.0,1.0,2.220446049250313e-16,-2.220446049250313e-16,0.0,-2.2204460492503128e-16,1.0000000000000002,3.3306690738754696e-16,0.0,0.0,0.0,0.0,1.0],"mesh":4,"name":"mesh4"},{"matrix":[2.220446049250314e-16,-3.330669073875469e-16,1.0000000000000002,0.0,1.0,2.220446049250313e-16,-2.220446049250313e-16,0.0,-2.2204460492503128e-16,1.0000000000000002,3.3306690738754696e-16,0.0,0.0,0.0,0.0,1.0],"mesh":5,"name":"mesh5"},{"matrix":[2.220446049250314e-16,-3.330669073875469e-16,1.0000000000000002,0.0,1.0,2.220446049250313e-16,-2.220446049250313e-16,0.0,-2.2204460492503128e-16,1.0000000000000002,3.3306690738754696e-16,0.0,0.0,0.0,0.0,1.0],"mesh":6,"name":"mesh6"},{"matrix":[2.220446049250314e-16,-3.330669073875469e-16,1.0000000000000002,0.0,1.0,2.220446049250313e-16,-2.220446049250313e-16,0.0,-2.2204460492503128e-16,1.0000000000000002,3.3306690738754696e-16,0.0,0.0,0.0,0.0,1.0],"mesh":7,"name":"mesh7"},{"matrix":[2.220446049250314e-16,-3.330669073875469e-16,1.0000000000000002,0.0,1.0,2.220446049250313e-16,-2.220446049250313e-16,0.0,-2.2204460492503128e-16,1.0000000000000002,3.3306690738754696e-16,0.0,0.0,0.0,0.0,1.0],"mesh":8,"name":"mesh8"},{"matrix":[2.220446049250314e-16,-3.330669073875469e-16,1.0000000000000002,0.0,1.0,2.220446049250313e-16,-2.220446049250313e-16,0.0,-2.2204460492503128e-16,1.0000000000000002,3.3306690738754696e-16,0.0,0.0,0.0,0.0,1.0],"mesh":9,"name":"mesh9"},{"matrix":[2.220446049250314e-16,-3.330669073875469e-16,1.0000000000000002,0.0,1.0,2.220446049250313e-16,-2.220446049250313e-16,0.0,-2.2204460492503128e-16,1.0000000000000002,3.3306690738754696e-16,0.0,0.0,0.0,0.0,1.0],"mesh":10,"name":"mesh10"},{"matrix":[2.220446049250314e-16,-3.330669073875469e-16,1.0000000000000002,0.0,1.0,2.220446049250313e-16,-2.220446049250313e-16,0.0,-2.2204460492503128e-16,1.0000000000000002,3.3306690738754696e-16,0.0,0.0,0.0,0.0,1.0],"mesh":11,"name":"mesh11"},{"matrix":[2.220446049250314e-16,-3.330669073875469e-16,1.0000000000000002,0.0,1.0,2.220446049250313e-16,-2.220446049250313e-16,0.0,-2.2204460492503128e-16,1.0000000000000002,3.3306690738754696e-16,0.0,0.0,0.0,0.0,1.0],"mesh":12,"name":"mesh12"},{"matrix":[2.220446049250314e-16,-3.330669073875469e-16,1.0000000000000002,0.0,1.0,2.220446049250313e-16,-2.220446049250313e-16,0.0,-2.2204460492503128e-16,1.0000000000000002,3.3306690738754696e-16,0.0,0.0,0.0,0.0,1.0],"mesh":13,"name":"mesh13"},{"matrix":[2.220446049250314e-16,-3.330669073875469e-16,1.0000000000000002,0.0,1.0,2.220446049250313e-16,-2.220446049250313e-16,0.0,-2.2204460492503128e-16,1.0000000000000002,3.3306690738754696e-16,0.0,0.0,0.0,0.0,1.0],"mesh":14,"name":"mesh14"},{"matrix":[2.220446049250314e-16,-3.330669073875469e-16,1.0000000000000002,0.0,1.0,2.220446049250313e-16,-2.220446049250313e-16,0.0,-2.2204460492503128e-16,1.0000000000000002,3.3306690738754696e-16,0.0,0.0,0.0,0.0,1.0],"mesh":15,"name":"mesh15"},{"matrix":[2.220446049250314e-16,-3.330669073875469e-16,1.0000000000000002,0.0,1.0,2.220446049250313e-16,-2.220446049250313e-16,0.0,-2.2204460492503128e-16,1.0000000000000002,3.3306690738754696e-16,0.0,0.0,0.0,0.0,1.0],"mesh":16,"name":"mesh16"},{"camera":0,"matrix":[0.554700196225229,-0.8320502943378435,-7.113684555143346e-18,-0.0,0.3195993709027957,0.21306624726853046,0.9232870714969653,0.0,-0.7682212795973757,-0.5121475197315839,0.38411063979868787,-0.0,-17.519999999999996,-17.519999999999996,13.139999999999999,1.0],"name":"Camera Node"},{"children":[0,1,2,3,4,5,6,7,8,9,10,11,12,13,14,15,16,17],"name":"Renderer Node"}],"scene":0,"scenes":[{"name":"Layer 0","nodes":[18]}]}