{"accessors":[{"bufferView":0,"byteOffset":0,"componentType":5126,"count":505,"max":[4.389033552814297,5.7,1.4556932191958376],"min":[2.912978931015045,0.0,0.921800631309585],"type":"VEC3"},{"bufferView":1,"byteOffset":0,"componentType":5125,"count":2406,"type":"SCALAR"},{"bufferView":2,"byteOffset":0,"componentType":5126,"count":505,"max":[4.389033552814297,-0.0,1.4556932191958376],"min":[2.912978931015045,-5.7,0.921800631309585],"type":"VEC3"},{"bufferView":3,"byteOffset":0,"componentType":5125,"count":2406,"type":"SCALAR"},{"bufferView":4,"byteOffset":0,"componentType":5126,"count":303,"max":[8.46969696969697,1.65,0.2961915771050267],"min":[7.7,0.0,0.20380842289497333],"type":"VEC3"},{"bufferView":5,"byteOffset":0,"componentType":5125,"count":1200,"type":"SCALAR"},{"bufferView":6,"byteOffset":0,"componentType":5126,"count":303,"max":[8.46969696969697,-0.0,0.2961915771050267],"min":[7.7,-1.65,0.20380842289497333],"type":"VEC3"},{"bufferView":7,"byteOffset":0,"componentType":5125,"count":1200,"type":"SCALAR"},{"bufferView":8,"byteOffset":0,"componentType":5126,"count":303,"max":[8.832441625835333,0.10374046831019935,2.354],"min":[6.75,-0.10374046831019935,0.5],"type":"VEC3"},{"bufferView":9,"byteOffset":0,"componentType":5125,"count":1200,"type":"SCALAR"},{"bufferView":10,"byteOffset":0,"componentType":5126,"count":1152,"max":[8.43788,0.5915291275,1.1680393245997462],"min":[0.0,-0.591205713291911,-0.2913965802520335],"type":"VEC3"},{"bufferView":11,"byteOffset":0,"componentType":5125,"count":6270,"type":"SCALAR"},{"bufferView":12,"byteOffset":0,"componentType":5126,"count":48,"max":[4.2606000900268555,0.5333999991416931,0.45719999074935913],"min":[2.177799940109253,-0.5333999991416931,0.0],"type":"VEC3"},{"bufferView":13,"byteOffset":0,"componentType":5126,"count":48,"type":"VEC3"},{"bufferView":14,"byteOffset":0,"componentType":5125,"count":216,"type":"SCALAR"},{"bufferView":15,"byteOffset":0,"componentType":5126,"count":672,"max":[4.5,2.1,1.259964459298042],"min":[2.5,1.400191359930676,0.7400355407019579],"type":"VEC3"},{"bufferView":16,"byteOffset":0,"componentType":5125,"count":2850,"type":"SCALAR"},{"bufferView":17,"byteOffset":0,"componentType":5126,"count":2020,"max":[2.5740568537909074,1.8193027749142872,1.7797],"min":[2.4154703165383595,1.6740367914036076,1.204],"type":"VEC3"},{"bufferView":18,"byteOffset":0,"componentType":5125,"count":11514,"type":"SCALAR"},{"bufferView":19,"byteOffset":0,"componentType":5126,"count":2020,"max":[2.574056853790908,1.56464878609745,0.8830179636285276],"min":[2.4154703165383595,1.0200670741447357,0.5337899505668267],"type":"VEC3"},{"bufferView":20,"byteOffset":0,"componentType":5125,"count":11514,"type":"SCALAR"},{"bufferView":21,"byteOffset":0,"componentType":5126,"count":2020,"max":[2.574056853790908,2.4693265024263025,0.8829622802762166],"min":[2.4154703165383595,1.9353190651041037,0.5154190863012763],"type":"VEC3"},{"bufferView":22,"byteOffset":0,"componentType":5125,"count":11514,"type":"SCALAR"},{"bufferView":23,"byteOffset":0,"componentType":5126,"count":672,"max":[4.5,-1.4,1.259964459298042],"min":[2.5,-2.099808640069324,0.7400355407019579],"type":"VEC3"},{"bufferView":24,"byteOffset":0,"componentType":5125,"count":2850,"type":"SCALAR"},{"bufferView":25,"byteOffset":0,"componentType":5126,"count":2020,"max":[2.5740568537909074,-1.6806972250857128,1.7797],"min":[2.4154703165383595,-1.8259632085963924,1.204],"type":"VEC3"},{"bufferView":26,"byteOffset":0,"componentType":5125,"count":11514,"type":"SCALAR"},{"bufferView":27,"byteOffset":0,"componentType":5126,"count":2020,"max":[2.574056853790908,-1.93535121390255,0.8830179636285276],"min":[2.4154703165383595,-2.4799329258552643,0.5337899505668267],"type":"VEC3"},{"bufferView":28,"byteOffset":0,"componentType":5125,"count":11514,"type":"SCALAR"},{"bufferView":29,"byteOffset":0,"componentType":5126,"count":2020,"max":[2.574056853790908,-1.0306734975736975,0.8829622802762166],"min":[2.4154703165383595,-1.5646809348958963,0.5154190863012763],"type":"VEC3"},{"bufferView":30,"byteOffset":0,"componentType":5125,"count":11514,"type":"SCALAR"},{"bufferView":31,"byteOffset":0,"componentType":5126,"count":16,"max":[0.40425,0.8085000000000001,0.10284750000000001],"min":[0.0,-0.8085000000000001,-0.10284750000000001],"type":"VEC3"},{"bufferView":32,"byteOffset":0,"componentType":5125,"count":48,"type":"SCALAR"},{"bufferView":33,"byteOffset":0,"componentType":5126,"count":16,"max":[0.40425,0.8085000000000001,0.10284750000000001],"min":[0.0,-0.8085000000000001,-0.10284750000000001],"type":"VEC3"},{"bufferView":34,"byteOffset":0,"componentType":5125,"count":48,"type":"SCALAR"},{"bufferView":35,"byteOffset":0,"componentType":5126,"count":16,"max":[0.40425,0.8085000000000001,0.10284750000000001],"min":[0.0,-0.8085000000000001,-0.10284750000000001],"type":"VEC3"},{"bufferView":36,"byteOffset":0,"componentType":5125,"count":48,"type":"SCALAR"},{"bufferView":37,"byteOffset":0,"componentType":5126,"count":16,"max":[0.40425,0.8085000000000001,0.10284750000000001],"min":[0.0,-0.8085000000000001,-0.10284750000000001],"type":"VEC3"},{"bufferView":38,"byteOffset":0,"componentType":5125,"count":48,"type":"SCALAR"},{"bufferView":39,"byteOffset":0,"componentType":5126,"count":16,"max":[0.40425,0.8085000000000001,0.10284750000000001],"min":[0.0,-0.8085000000000001,-0.10284750000000001],"type":"VEC3"},{"bufferView":40,"byteOffset":0,"componentType":5125,"count":48,"type":"SCALAR"},{"bufferView":41,"byteOffset":0,"componentType":5126,"count":16,"max":[0.40425,0.8085000000000001,0.10284750000000001],"min":[0.0,-0.8085000000000001,-0.10284750000000001],"type":"VEC3"},{"bufferView":42,"byteOffset":0,"componentType":5125,"count":48,"type":"SCALAR"},{"bufferView":43,"byteOffset":0,"componentType":5126,"count":16,"max":[0.40425,0.8085000000000001,0.10284750000000001],"min":[0.0,-0.8085000000000001,-0.10284750000000001],"type":"VEC3"},{"bufferView":44,"byteOffset":0,"componentType":5125,"count":48,"type":"SCALAR"},{"bufferView":45,"byteOffset":0,"componentType":5126,"count":16,"max":[0.40425,0.8085000000000001,0.10284750000000001],"min":[0.0,-0.8085000000000001,-0.10284750000000001],"type":"VEC3"},{"bufferView":46,"byteOffset":0,"componentType":5125,"count":48,"type":"SCALAR"}],"asset":{"generator":"VTK","version":"2.0"},"bufferViews":[{"buffer":0,"byteLength":6060,"byteOffset":0,"target":34962},{"buffer":1,"byteLength":9624,"byteOffset":0,"target":34963},{"buffer":2,"byteLength":6060,"byteOffset":0,"target":34962},{"buffer":3,"byteLength":9624,"byteOffset":0,"target":34963},{"buffer":4,"byteLength":3636,"byteOffset":0,"target":34962},{"buffer":5,"byteLength":4800,"byteOffset":0,"target":34963},{"buffer":6,"byteLength":3636,"byteOffset":0,"target":34962},{"buffer":7,"byteLength":4800,"byteOffset":0,"target":34963},{"buffer":8,"byteLength":3636,"byteOffset":0,"target":34962},{"buffer":9,"byteLength":4800,"byteOffset":0,"target":34963},{"buffer":10,"byteLength":13824,"byteOffset":0,"target":34962},{"buffer":11,"byteLength":25080,"byteOffset":0,"target":34963},{"buffer":12,"byteLength":576,"byteOffset":0,"target":34962},{"buffer":13,"byteLength":576,"byteOffset":0,"target":34962},{"buffer":14,"byteLength":864,"byteOffset":0,"target":34963},{"buffer":15,"byteLength":8064,"byteOffset":0,"target":34962},{"buffer":16,"byteLength":11400,"byteOffset":0,"target":34963},{"buffer":17,"byteLength":24240,"byteOffset":0,"target":34962},{"buffer":18,"byteLength":46056,"byteOffset":0,"target":34963},{"buffer":19,"byteLength":24240,"byteOffset":0,"target":34962},{"buffer":20,"byteLength":46056,"byteOffset":0,"target":34963},{"buffer":21,"byteLength":24240,"byteOffset":0,"target":34962},{"buffer":22,"byteLength":46056,"byteOffset":0,"target":34963},{"buffer":23,"byteLength":8064,"byteOffset":0,"target":34962},{"buffer":24,"byteLength":11400,"byteOffset":0,"target":34963},{"buffer":25,"byteLength":24240,"byteOffset":0,"target":34962},{"buffer":26,"byteLength":46056,"byteOffset":0,"target":34963},{"buffer":27,"byteLength":24240,"byteOffset":0,"target":34962},{"buffer":28,"byteLength":46056,"byteOffset":0,"target":34963},{"buffer":29,"byteLength":24240,"byteOffset":0,"target":34962},{"buffer":30,"byteLength":46056,"byteOffset":0,"target":34963},{"buffer":31,"byteLength":192,"byteOffset":0,"target":34962},{"buffer":32,"byteLength":192,"byteOffset":0,"target":34963},{"buffer":33,"byteLength":192,"byteOffset":0,"target":34962},{"buffer":34,"byteLength":192,"byteOffset":0,"target":34963},{"buffer":35,"byteLength":192,"byteOffset":0,"target":34962},{"buffer":36,"byteLength":192,"byteOffset":0,"target":34963},{"buffer":37,"byteLength":192,"byteOffset":0,"target":34962},{"buffer":38,"byteLength":192,"byteOffset":0,"target":34963},{"buffer":39,"byteLength":192,"byteOffset":0,"target":34962},{"buffer":40,"byteLength":192,"byteOffset":0,"target":34963},{"buffer":41,"byteLength":192,"byteOffset":0,"target":34962},{"buffer":42,"byteLength":192,"byteOffset":0,"target":34963},{"buffer":43,"byteLength":192,"byteOffset":0,"target":34962},{"buffer":44,"byteLength":192,"byteOffset":0,"target":34963},{"buffer":45,"byteLength":192,"byteOffset":0,"target":34962},{"buffer":46,"byteLength":192,"byteOffset":0,"target":34963}],"buffers":[{"byteLength":6060,"uri":"data:application/octet-stream;base64,"},{"byteLength":9624,"uri":"data:application/octet-stream;base64,"},{"byteLength":6060,"uri":"data:application/octet-stream;base64,"},{"byteLength":9624,"uri":"data:application/octet-stream;base64,"},{"byteLength":3636,"uri":"data:application/octet-stream;base64,"},{"byteLength":4800,"uri":"data:application/octet-stream;base64,"},{"byteLength":3636,"uri":"data:application/octet-stream;base64,"},{"byteLength":4800,"uri":"data:application/octet-stream;base64,"},{"byteLength":3636,"uri":"data:application/octet-stream;base64,"},{"byteLength":4800,"uri":"data:application/octet-stream;base64,"},{"byteLength":13824,"uri":"data:application/octet-stream;base64,"},{"byteLength":25080,"uri":"data:application/octet-stream;base64,"},{"byteLength":576,"uri":"data:application/octet-stream;base64,"},{"byteLength":576,"uri":"data:application/octet-stream;base64,"},{"byteLength":864,"uri":"data:application/octet-stream;base64,"},{"byteLength":8064,"uri":"data:application/octet-stream;base64,"},{"byteLength":11400,"uri":"data:application/octet-stream;base64,"},{"byteLength":24240,"uri":"data:application/octet-stream;base64,"},{"byteLength":46056,"uri":"data:application/octet-stream;base64,"},{"byteLength":24240,"uri":"data:application/octet-stream;base64,"},{"byteLength":46056,"uri":"data:application/octet-stream;base64,"},{"byteLength":24240,"uri":"data:application/octet-stream;base64,"},{"byteLength":46056,"uri":"data:application/octet-stream;base64,"},{"byteLength":8064,"uri":"data:application/octet-stream;base64,"},{"byteLength":11400,"uri":"data:application/octet-stream;base64,"},{"byteLength":24240,"uri":"data:application/octet-stream;base64,"},{"byteLength":46056,"uri":"data:application/octet-stream;base64,"},{"byteLength":24240,"uri":"data:application/octet-stream;base64,"},{"byteLength":46056,"uri":"data:application/octet-stream;base64,"},{"byteLength":24240,"uri":"data:application/octet-stream;base64,"},{"byteLength":46056,"uri":"data:application/octet-stream;base64,"},{"byteLength":192,"uri":"data:application/octet-stream;base64,"},{"byteLength":192,"uri":"data:application/octet-stream;base64,"},{"byteLength":192,"uri":"data:application/octet-stream;base64,"},{"byteLength":192,"uri":"data:application/octet-stream;base64,"},{"byteLength":192,"uri":"data:application/octet-stream;base64,"},{"byteLength":192,"uri":"data:application/octet-stream;base64,"},{"byteLength":192,"uri":"data:application/octet-stream;base64,"},{"byteLength":192,"uri":"data:application/octet-stream;base64,"},{"byteLength":192,"uri":"data:application/octet-stream;base64,"},{"byteLength":192,"uri":"data:application/octet-stream;base64,"},{"byteLength":192,"uri":"data:application/octet-stream;base64,"},{"byteLength":192,"uri":"data:application/octet-stream;base64,"},{"byteLength":192,"uri":"data:application/octet-stream;base64,"},{"byteLength":192,"uri":"data:application/octet-stream;base64,"},{"byteLength":192,"uri":"data:application/octet-stream;base64,"},{"byteLength":192,"uri":"data:application/octet-stream;base64,"}],"cameras":[{"perspective":{"aspectRatio":1.0,"yfov":0.5235987755982988,"zfar":38.27394896666355,"znear":7.096405691496918},"type":"perspective"}],"materials":[{"pbrMetallicRoughness":{"baseColorFactor":[0.5019607843137255,0.5019607843137255,0.5019607843137255,0.5],"metallicFactor":0.0,"roughnessFactor":1.0}},{"pbrMetallicRoughness":{"baseColorFactor":[0.5019607843137255,0.5019607843137255,0.5019607843137255,0.5],"metallicFactor":0.0,"roughnessFactor":1.0}},{"pbrMetallicRoughness":{"baseColorFactor":[0.5019607843137255,0.5019607843137255,0.5019607843137255,0.5],"metallicFactor":0.0,"roughnessFactor":1.0}},{"pbrMetallicRoughness":{"baseColorFactor":[0.5019607843137255,0.5019607843137255,0.5019607843137255,0.5],"metallicFactor":0.0,"roughnessFactor":1.0}},{"pbrMetallicRoughness":{"baseColorFactor":[0.5019607843137255,0.5019607843137255,0.5019607843137255,0.5],"metallicFactor":0.0,"roughnessFactor":1.0}},{"pbrMetallicRoughness":{"baseColorFactor":[0.5019607843137255,0.5019607843137255,0.5019607843137255,0.5],"metallicFactor":0.0,"roughnessFactor":1.0}},{"pbrMetallicRoughness":{"baseColorFactor":[0.27450980392156865,0.5098039215686274,0.7058823529411765,1.0],"metallicFactor":0.0,"roughnessFactor":1.0}},{"pbrMetallicRoughness":{"baseColorFactor":[0.5019607843137255,0.5019607843137255,0.5019607843137255,0.5],"metallicFactor":0.0,"roughnessFactor":1.0}},{"pbrMetallicRoughness":{"baseColorFactor":[0.0,0.0,0.0,0.6],"metallicFactor":0.0,"roughnessFactor":1.0}},{"pbrMetallicRoughness":{"baseColorFactor":[0.0,0.0,0.0,0.6],"metallicFactor":0.0,"roughnessFactor":1.0}},{"pbrMetallicRoughness":{"baseColorFactor":[0.0,0.0,0.0,0.6],"metallicFactor":0.0,"roughnessFactor":1.0}},{"pbrMetallicRoughness":{"baseColorFactor":[0.5019607843137255,0.5019607843137255,0.5019607843137255,0.5],"metallicFactor":0.0,"roughnessFactor":1.0}},{"pbrMetallicRoughness":{"baseColorFactor":[0.0,0.0,0.0,0.6],"metallicFactor":0.0,"roughnessFactor":1.0}},{"pbrMetallicRoughness":{"baseColorFactor":[0.0,0.0,0.0,0.6],"metallicFactor":0.0,"roughnessFactor":1.0}},{"pbrMetallicRoughness":{"baseColorFactor":[0.0,0.0,0.0,0.6],"metallicFactor":0.0,"roughnessFactor":1.0}},{"pbrMetallicRoughness":{"baseColorFactor":[0.0,0.5019607843137255,0.0,1.0],"metallicFactor":0.0,"roughnessFactor":1.0}},{"pbrMetallicRoughness":{"baseColorFactor":[0.0,0.5019607843137255,0.0,1.0],"metallicFactor":0.0,"roughnessFactor":1.0}},{"pbrMetallicRoughness":{"baseColorFactor":[0.0,0.5019607843137255,0.0,1.0],"metallicFactor":0.0,"roughnessFactor":1.0}},{"pbrMetallicRoughness":{"baseColorFactor":[0.0,0.5019607843137255,0.0,1.0],"metallicFactor":0.0,"roughnessFactor":1.0}},{"pbrMetallicRoughness":{"baseColorFactor":[0.0,0.5019607843137255,0.0,1.0],"metallicFactor":0.0,"roughnessFactor":1.0}},{"pbrMetallicRoughness":{"baseColorFactor":[0.0,0.5019607843137255,0.0,1.0],"metallicFactor":0.0,"roughnessFactor":1.0}},{"pbrMetallicRoughness":{"baseColorFactor":[0.0,0.5019607843137255,0.0,1.0],"metallicFactor":0.0,"roughnessFactor":1.0}},{"pbrMetallicRoughness":{"baseColorFactor":[0.0,0.5019607843137255,0.0,1.0],"metallicFactor":0.0,"roughnessFactor":1.0}}],"meshes":[{"name":"mesh0","primitives":[{"attributes":{"POSITION":0},"indices":1,"material":0,"mode":4}]},{"name":"mesh1","primitives":[{"attributes":{"POSITION":2},"indices":3,"material":1,"mode":4}]},{"name":"mesh2","primitives":[{"attributes":{"POSITION":4},"indices":5,"material":2,"mode":4}]},{"name":"mesh3","primitives":[{"attributes":{"POSITION":6},"indices":7,"material":3,"mode":4}]},{"name":"mesh4","primitives":[{"attributes":{"POSITION":8},"indices":9,"material":4,"mode":4}]},{"name":"mesh5","primitives":[{"attributes":{"POSITION":10},"indices":11,"material":5,"mode":4}]},{"name":"mesh6","primitives":[{"attributes":{"NORMAL":13,"POSITION":12},"indices":14,"material":6,"mode":4}]},{"name":"mesh7","primitives":[{"attributes":{"POSITION":15},"indices":16,"material":7,"mode":4}]},{"name":"mesh8","primitives":[{"attributes":{"POSITION":17},"indices":18,"material":8,"mode":4}]},{"name":"mesh9","primitives":[{"attributes":{"POSITION":19},"indices":20,"material":9,"mode":4}]},{"name":"mesh10","primitives":[{"attributes":{"POSITION":21},"indices":22,"material":10,"mode":4}]},{"name":"mesh11","primitives":[{"attributes":{"POSITION":23},"indices":24,"material":11,"mode":4}]},{"name":"mesh12","primitives":[{"attributes":{"POSITION":25},"indices":26,"material":12,"mode":4}]},{"name":"mesh13","primitives":[{"attributes":{"POSITION":27},"indices":28,"material":13,"mode":4}]},{"name":"mesh14","primitives":[{"attributes":{"POSITION":29},"indices":30,"material":14,"mode":4}]},{"name":"mesh15","primitives":[{"attributes":{"POSITION":31},"indices":32,"material":15,"mode":4}]},{"name":"mesh16","primitives":[{"attributes":{"POSITION":33},"indices":34,"material":16,"mode":4}]},{"name":"mesh17","primitives":[{"attributes":{"POSITION":35},"indices":36,"material":17,"mode":4}]},{"name":"mesh18","primitives":[{"attributes":{"POSITION":37},"indices":38,"material":18,"mode":4}]},{"name":"mesh19","primitives":[{"attributes":{"POSITION":39},"indices":40,"material":19,"mode":4}]},{"name":"mesh20","primitives":[{"attributes":{"POSITION":41},"indices":42,"material":20,"mode":4}]},{"name":"mesh21","primitives":[{"attributes":{"POSITION":43},"indices":44,"material":21,"mode":4}]},{"name":"mesh22","primitives":[{"attributes":{"POSITION":45},"indices":46,"material":22,"mode":4}]}],"nodes":[{"matrix":[2.220446049250314e-16,-3.330669073875469e-16,1.0000000000000002,0.0,1.0,2.220446049250313e-16,-2.220446049250313e-16,0.0,-2.2204460492503128e-16,1.0000000000000002,3.3306690738754696e-16,0.0,0.0,0.0,0.0,1.0],"mesh":0,"name":"mesh0"},{"matrix":[2.220446049250314e-16,-3.330669073875469e-16,1.0000000000000002,0.0,1.0,2.220446049250313e-16,-2.220446049250313e-16,0.0,-2.2204460492503128e-16,1.0000000000000002,3.3306690738754696e-16,0.0,0.0,0.0,0.0,1.0],"mesh":1,"name":"mesh1"},{"matrix":[2.220446049250314e-16,-3.330669073875469e-16,1.0000000000000002,0.0,1.0,2.220446049250313e-16,-2.220446049250313e-16,0.0,-2.2204460492503128e-16,1.0000000000000002,3.3306690738754696e-16,0.0,0.0,0.0,0.0,1.0],"mesh":2,"name":"mesh2"},{"matrix":[2.220446049250314e-16,-3.330669073875469e-16,1.0000000000000002,0.0,1.0,2.220446049250313e-16,-2.220446049250313e-16,0.0,-2.2204460492503128e-16,1.0000000000000002,3.3306690738754696e-16,0.0,0.0,0.0,0.0,1.0],"mesh":3,"name":"mesh3"},{"matrix":[2.220446049250314e-16,-3.330669073875469e-16,1.0000000000000002,0.0,1.0,2.220446049250313e-16,-2.220446049250313e-16,0.0,-2.2204460492503128e-16,1.0000000000000002,3.3306690738754696e-16,0.0,0.0,0.0,0.0,1.0],"mesh":4,"name":"mesh4"},{"matrix":[2.220446049250314e-16,-3.330669073875469e-16,1.0000000000000002,0.0,1.0,2.220446049250313e-16,-2.220446049250313e-16,0.0,-2.2204460492503128e-16,1.0000000000000002,3.3306690738754696e-16,0.0,0.0,0.0,0.0,1.0],"mesh":5,"name":"mesh5"},{"matrix":[2.220446049250314e-16,-3.330669073875469e-16,1.0000000000000002,0.0,1.0,2.220446049250313e-16,-2.220446049250313e-16,0.0,-2.2204460492503128e-16,1.0000000000000002,3.3306690738754696e-16,0.0,0.0,0.0,0.0,1.0],"mesh":6,"name":"mesh6"},{"matrix":[2.220446049250314e-16,-3.330669073875469e-16,1.0000000000000002,0.0,1.0,2.220446049250313e-16,-2.220446049250313e-16,0.0,-2.2204460492503128e-16,1.0000000000000002,3.3306690738754696e-16,0.0,0.0,0.0,0.0,1.0],"mesh":7,"name":"mesh7"},{"matrix":[2.220446049250314e-16,-3.330669073875469e-16,1.0000000000000002,0.0,1.0,2.220446049250313e-16,-2.220446049250313e-16,0.0,-2.2204460492503128e-16,1.0000000000000002,3.3306690738754696e-16,0.0,0.0,0.0,0.0,1.0],"mesh":8,"name":"mesh8"},{"matrix":[2.220446049250314e-16,-3.330669073875469e-16,1.0000000000000002,0.0,1.0,2.220446049250313e-16,-2.220446049250313e-16,0.0,-2.2204460492503128e-16,1.0000000000000002,3.3306690738754696e-16,0.0,0.0,0.0,0.0,1.0],"mesh":9,"name":"mesh9"},{"matrix":[2.220446049250314e-16,-3.330669073875469e-16,1.0000000000000002,0.0,1.0,2.220446049250313e-16,-2.220446049250313e-16,0.0,-2.2204460492503128e-16,1.0000000000000002,3.3306690738754696e-16,0.0,0.0,0.0,0.0,1.0],"mesh":10,"name":"mesh10"},{"matrix":[2.220446049250314e-16,-3.330669073875469e-16,1.0000000000000002,0.0,1.0,2.220446049250313e-16,-2.220446049250313e-16,0.0,-2.2204460492503128e-16,1.0000000000000002,3.3306690738754696e-16,0.0,0.0,0.0,0.0,1.0],"mesh":11,"name":"mesh11"},{"matrix":[2.220446049250314e-16,-3.330669073875469e-16,1.0000000000000002,0.0,1.0,2.220446049250313e-16,-2.220446049250313e-16,0.0,-2.2204460492503128e-16,1.0000000000000002,3.3306690738754696e-16,0.0,0.0,0.0,0.0,1.0],"mesh":12,"name":"mesh12"},{"matrix":[2.220446049250314e-16,-3.330669073875469e-16,1.0000000000000002,0.0,1.0,2.220446049250313e-16,-2.220446049250313e-16,0.0,-2.2204460492503128e-16,1.0000000000000002,3.3306690738754696e-16,0.0,0.0,0.0,0.0,1.0],"mesh":13,"name":"mesh13"},{"matrix":[2.220446049250314e-16,-3.330669073875469e-16,1.0000000000000002,0.0,1.0,2.220446049250313e-16,-2.220446049250313e-16,0.0,-2.2204460492503128e-16,1.0000000000000002,3.3306690738754696e-16,0.0,0.0,0.0,0.0,1.0],"mesh":14,"name":"mesh14"},{"matrix":[2.220446049250314e-16,-3.330669073875469e-16,1.0000000000000002,0.0,1.0,2.220446049250313e-16,-2.220446049250313e-16,0.0,-2.2204460492503128e-16,1.0000000000000002,3.3306690738754696e-16,0.0,0.0,0.0,0.0,1.0],"mesh":15,"name":"mesh15"},{"matrix":[2.220446049250314e-16,-3.330669073875469e-16,1.0000000000000002,0.0,1.0,2.220446049250313e-16,-2.220446049250313e-16,0.0,-2.2204460492503128e-16,1.0000000000000002,3.3306690738754696e-16,0.0,0.0,0.0,0.0,1.0],"mesh":16,"name":"mesh16"},{"matrix":[2.220446049250314e-16,-3.330669073875469e-16,1.0000000000000002,0.0,1.0,2.220446049250313e-16,-2.220446049250313e-16,0.0,-2.2204460492503128e-16,1.0000000000000002,3.3306690738754696e-16,0.0,0.0,0.0,0.0,1.0],"mesh":17,"name":"mesh17"},{"matrix":[2.220446049250314e-16,-3.330669073875469e-16,1.0000000000000002,0.0,1.0,2.220446049250313e-16,-2.220446049250313e-16,0.0,-2.2204460492503128e-16,1.0000000000000002,3.3306690738754696e-16,0.0,0.0,0.0,0.0,1.0],"mesh":18,"name":"mesh18"},{"matrix":[2.220446049250314e-16,-3.330669073875469e-16,1.0000000000000002,0.0,1.0,2.220446049250313e-16,-2.220446049250313e-16,0.0,-2.2204460492503128e-16,1.0000000000000002,3.3306690738754696e-16,0.0,0.0,0.0,0.0,1.0],"mesh":19,"name":"mesh19"},{"matrix":[2.220446049250314e-16,-3.330669073875469e-16,1.0000000000000002,0.0,1.0,2.220446049250313e-16,-2.220446049250313e-16,0.0,-2.2204460492503128e-16,1.0000000000000002,3.3306690738754696e-16,0.0,0.0,0.0,0.0,1.0],"mesh":20,"name":"mesh20"},{"matrix":[2.220446049250314e-16,-3.330669073875469e-16,1.0000000000000002,0.0,1.0,2.220446049250313e-16,-2.220446049250313e-16,0.0,-2.2204460492503128e-16,1.0000000000000002,3.3306690738754696e-16,0.0,0.0,0.0,0.0,1.0],"mesh":21,"name":"mesh21"},{"matrix":[2.220446049250314e-16,-3.330669073875469e-16,1.0000000000000002,0.0,1.0,2.220446049250313e-16,-2.220446049250313e-16,0.0,-2.2204460492503128e-16,1.0000000000000002,3.3306690738754696e-16,0.0,0.0,0.0,0.0,1.0],"mesh":22,"name":"mesh22"},{"camera":0,"matrix":[0.554700196225229,-0.8320502943378435,-7.113684555143346e-18,-0.0,0.3195993709027957,0.21306624726853046,0.9232870714969653,0.0,-0.7682212795973757,-0.5121475197315839,0.38411063979868787,-0.0,-11.399999999999999,-11.399999999999999,8.549999999999999,1.0],"name":"Camera Node"},{"children":[0,1,2,3,4,5,6,7,8,9,10,11,12,13,14,15,16,17,18,19,20,21,22,23],"name":"Renderer Node"}],"scene":0,"scenes":[{"name":"Layer 0","nodes":[24]}]}