{"accessors":[{"bufferView":0,"byteOffset":0,"componentType":5126,"count":600,"max":[13.38088150437442,1.9249999999999998,-1.1191184956255795],"min":[12.61911849562558,1.677928005408027,-1.8808815043744205],"type":"VEC3"},{"bufferView":1,"byteOffset":0,"componentType":5125,"count":3312,"type":"SCALAR"},{"bufferView":2,"byteOffset":0,"componentType":5126,"count":600,"max":[13.38088150437442,-1.6773499999999997,-1.1191184956255795],"min":[12.61911849562558,-1.9244219945919725,-1.8808815043744205],"type":"VEC3"},{"bufferView":3,"byteOffset":0,"componentType":5125,"count":3312,"type":"SCALAR"},{"bufferView":4,"byteOffset":0,"componentType":5126,"count":600,"max":[13.38088150437442,2.42265,-1.1191184956255795],"min":[12.61911849562558,2.175578005408027,-1.8808815043744205],"type":"VEC3"},{"bufferView":5,"byteOffset":0,"componentType":5125,"count":3312,"type":"SCALAR"},{"bufferView":6,"byteOffset":0,"componentType":5126,"count":600,"max":[13.38088150437442,-2.175,-1.1191184956255795],"min":[12.61911849562558,-2.4220719945919726,-1.8808815043744205],"type":"VEC3"},{"bufferView":7,"byteOffset":0,"componentType":5125,"count":3312,"type":"SCALAR"},{"bufferView":8,"byteOffset":0,"componentType":5126,"count":600,"max":[5.228525940234013,-0.125,-1.2714740597659873],"min":[4.771474059765987,-0.26437394566726663,-1.7285259402340127],"type":"VEC3"},{"bufferView":9,"byteOffset":0,"componentType":5125,"count":3312,"type":"SCALAR"},{"bufferView":10,"byteOffset":0,"componentType":5126,"count":600,"max":[5.228525940234013,0.2647,-1.2714740597659873],"min":[4.771474059765987,0.12532605433273336,-1.7285259402340127],"type":"VEC3"},{"bufferView":11,"byteOffset":0,"componentType":5125,"count":3312,"type":"SCALAR"},{"bufferView":12,"byteOffset":0,"componentType":5126,"count":404,"max":[14.22756129,13.559999999999999,2.211859157341431],"min":[11.52756129,0.0,1.8067735746585694],"type":"VEC3"},{"bufferView":13,"byteOffset":0,"componentType":5125,"count":1806,"type":"SCALAR"},{"bufferView":14,"byteOffset":0,"componentType":5126,"count":404,"max":[14.22756129,-0.0,2.211859157341431],"min":[11.52756129,-13.559999999999999,1.8067735746585694],"type":"VEC3"},{"bufferView":15,"byteOffset":0,"componentType":5125,"count":1806,"type":"SCALAR"},{"bufferView":16,"byteOffset":0,"componentType":5126,"count":303,"max":[27.578852352620594,3.61,5.601086490072521],"min":[25.505088,0.0,5.328476943717451],"type":"VEC3"},{"bufferView":17,"byteOffset":0,"componentType":5125,"count":1203,"type":"SCALAR"},{"bufferView":18,"byteOffset":0,"componentType":5126,"count":303,"max":[27.578852352620594,-0.0,5.601086490072521],"min":[25.505088,-3.61,5.328476943717451],"type":"VEC3"},{"bufferView":19,"byteOffset":0,"componentType":5125,"count":1203,"type":"SCALAR"},{"bufferView":20,"byteOffset":0,"componentType":5126,"count":606,"max":[27.678645281577552,0.2625554702574104,5.8],"min":[17.34807199,-0.2625554702574104,1.3],"type":"VEC3"},{"bufferView":21,"byteOffset":0,"componentType":5125,"count":3018,"type":"SCALAR"},{"bufferView":22,"byteOffset":0,"componentType":5126,"count":1440,"max":[27.12,1.492546907,2.065692088480188],"min":[0.0,-1.491730867935274,-0.8763790104867214],"type":"VEC3"},{"bufferView":23,"byteOffset":0,"componentType":5125,"count":7695,"type":"SCALAR"},{"bufferView":24,"byteOffset":0,"componentType":5126,"count":303,"max":[15.0,1.4179195616499998,1.8134586033499998],"min":[2.59009412,-1.4179195616499998,0.0],"type":"VEC3"},{"bufferView":25,"byteOffset":0,"componentType":5125,"count":1200,"type":"SCALAR"},{"bufferView":26,"byteOffset":0,"componentType":5126,"count":384,"max":[13.760199546813965,1.4223999977111816,0.45719999074935913],"min":[4.362199783325195,-1.4223999977111816,0.0],"type":"VEC3"},{"bufferView":27,"byteOffset":0,"componentType":5126,"count":384,"type":"VEC3"},{"bufferView":28,"byteOffset":0,"componentType":5125,"count":1728,"type":"SCALAR"},{"bufferView":29,"byteOffset":0,"componentType":5126,"count":64,"max":[14.750800132751465,1.4223999977111816,0.45719999074935913],"min":[2.9651999473571777,-1.4223999977111816,0.0],"type":"VEC3"},{"bufferView":30,"byteOffset":0,"componentType":5126,"count":64,"type":"VEC3"},{"bufferView":31,"byteOffset":0,"componentType":5125,"count":288,"type":"SCALAR"},{"bufferView":32,"byteOffset":0,"componentType":5126,"count":480,"max":[18.0,1.75,0.19991114824510486],"min":[4.0,-1.7490432003466205,-1.099911148245105],"type":"VEC3"},{"bufferView":33,"byteOffset":0,"componentType":5125,"count":2280,"type":"SCALAR"},{"bufferView":34,"byteOffset":0,"componentType":5126,"count":768,"max":[13.941625295,4.644315295,2.0161009300801918],"min":[8.941625295,3.7944314936999217,1.0161692799198074],"type":"VEC3"},{"bufferView":35,"byteOffset":0,"componentType":5125,"count":3705,"type":"SCALAR"},{"bufferView":36,"byteOffset":0,"componentType":5126,"count":100,"max":[9.559106826782227,5.616552829742432,3.0161352157592773],"min":[9.559106826782227,2.822078227996826,0.2161351442337036],"type":"VEC3"},{"bufferView":37,"byteOffset":0,"componentType":5125,"count":300,"type":"SCALAR"},{"bufferView":38,"byteOffset":0,"componentType":5126,"count":768,"max":[13.941625295,-3.7943152950000005,2.0161009300801918],"min":[8.941625295,-4.644199096300079,1.0161692799198074],"type":"VEC3"},{"bufferView":39,"byteOffset":0,"componentType":5125,"count":3705,"type":"SCALAR"},{"bufferView":40,"byteOffset":0,"componentType":5126,"count":100,"max":[9.559106826782227,-2.822078227996826,3.0161352157592773],"min":[9.559106826782227,-5.616552829742432,0.2161351442337036],"type":"VEC3"},{"bufferView":41,"byteOffset":0,"componentType":5125,"count":300,"type":"SCALAR"},{"bufferView":42,"byteOffset":0,"componentType":5126,"count":303,"max":[13.41756129,4.39344,2.211859157341431],"min":[11.797561289999999,0.0,1.8067735746585694],"type":"VEC3"},{"bufferView":43,"byteOffset":0,"componentType":5125,"count":906,"type":"SCALAR"},{"bufferView":44,"byteOffset":0,"componentType":5126,"count":303,"max":[13.41756129,-0.0,2.211859157341431],"min":[11.797561289999999,-4.39344,1.8067735746585694],"type":"VEC3"},{"bufferView":45,"byteOffset":0,"componentType":5125,"count":906,"type":"SCALAR"},{"bufferView":46,"byteOffset":0,"componentType":5126,"count":303,"max":[13.41756129,13.559999999999999,2.18485345182924],"min":[11.797561289999999,4.39344,1.83377928017076],"type":"VEC3"},{"bufferView":47,"byteOffset":0,"componentType":5125,"count":906,"type":"SCALAR"},{"bufferView":48,"byteOffset":0,"componentType":5126,"count":303,"max":[13.41756129,-4.39344,2.18485345182924],"min":[11.797561289999999,-13.559999999999999,1.83377928017076],"type":"VEC3"},{"bufferView":49,"byteOffset":0,"componentType":5125,"count":906,"type":"SCALAR"},{"bufferView":50,"byteOffset":0,"componentType":5126,"count":1728,"max":[19.5,1.0,1.749863304992469],"min":[15.5,-0.999453257340926,-0.249863304992469],"type":"VEC3"},{"bufferView":51,"byteOffset":0,"componentType":5125,"count":9120,"type":"SCALAR"},{"bufferView":52,"byteOffset":0,"componentType":5126,"count":1728,"max":[19.5,0.999453257340926,1.749863304992469],"min":[15.5,-1.0,-0.249863304992469],"type":"VEC3"},{"bufferView":53,"byteOffset":0,"componentType":5125,"count":9120,"type":"SCALAR"},{"bufferView":54,"byteOffset":0,"componentType":5126,"count":16,"max":[7.56595,1.21275,-0.157175],"min":[7.0,-1.21275,-0.8428249999999999],"type":"VEC3"},{"bufferView":55,"byteOffset":0,"componentType":5125,"count":48,"type":"SCALAR"},{"bufferView":56,"byteOffset":0,"componentType":5126,"count":16,"max":[8.21595,1.21275,-0.157175],"min":[7.65,-1.21275,-0.8428249999999999],"type":"VEC3"},{"bufferView":57,"byteOffset":0,"componentType":5125,"count":48,"type":"SCALAR"},{"bufferView":58,"byteOffset":0,"componentType":5126,"count":16,"max":[8.865950000000002,1.21275,-0.157175],"min":[8.3,-1.21275,-0.8428249999999999],"type":"VEC3"},{"bufferView":59,"byteOffset":0,"componentType":5125,"count":48,"type":"SCALAR"},{"bufferView":60,"byteOffset":0,"componentType":5126,"count":16,"max":[9.51595,1.21275,-0.157175],"min":[8.95,-1.21275,-0.8428249999999999],"type":"VEC3"},{"bufferView":61,"byteOffset":0,"componentType":5125,"count":48,"type":"SCALAR"},{"bufferView":62,"byteOffset":0,"componentType":5126,"count":16,"max":[10.165949999999999,1.21275,-0.157175],"min":[9.6,-1.21275,-0.8428249999999999],"type":"VEC3"},{"bufferView":63,"byteOffset":0,"componentType":5125,"count":48,"type":"SCALAR"},{"bufferView":64,"byteOffset":0,"componentType":5126,"count":16,"max":[10.81595,1.21275,-0.157175],"min":[10.25,-1.21275,-0.8428249999999999],"type":"VEC3"},{"bufferView":65,"byteOffset":0,"componentType":5125,"count":48,"type":"SCALAR"},{"bufferView":66,"byteOffset":0,"componentType":5126,"count":16,"max":[11.46595,1.21275,-0.157175],"min":[10.9,-1.21275,-0.8428249999999999],"type":"VEC3"},{"bufferView":67,"byteOffset":0,"componentType":5125,"count":48,"type":"SCALAR"},{"bufferView":68,"byteOffset":0,"componentType":5126,"count":16,"max":[12.115950000000002,1.21275,-0.157175],"min":[11.55,-1.21275,-0.8428249999999999],"type":"VEC3"},{"bufferView":69,"byteOffset":0,"componentType":5125,"count":48,"type":"SCALAR"},{"bufferView":70,"byteOffset":0,"componentType":5126,"count":16,"max":[12.76595,1.21275,-0.157175],"min":[12.2,-1.21275,-0.8428249999999999],"type":"VEC3"},{"bufferView":71,"byteOffset":0,"componentType":5125,"count":48,"type":"SCALAR"},{"bufferView":72,"byteOffset":0,"componentType":5126,"count":16,"max":[13.415950000000002,1.21275,-0.157175],"min":[12.850000000000001,-1.21275,-0.8428249999999999],"type":"VEC3"},{"bufferView":73,"byteOffset":0,"componentType":5125,"count":48,"type":"SCALAR"},{"bufferView":74,"byteOffset":0,"componentType":5126,"count":16,"max":[14.06595,1.21275,-0.157175],"min":[13.5,-1.21275,-0.8428249999999999],"type":"VEC3"},{"bufferView":75,"byteOffset":0,"componentType":5125,"count":48,"type":"SCALAR"},{"bufferView":76,"byteOffset":0,"componentType":5126,"count":16,"max":[14.71595,1.21275,-0.157175],"min":[14.15,-1.21275,-0.8428249999999999],"type":"VEC3"},{"bufferView":77,"byteOffset":0,"componentType":5125,"count":48,"type":"SCALAR"},{"bufferView":78,"byteOffset":0,"componentType":5126,"count":16,"max":[7.56595,1.21275,-0.157175],"min":[7.0,-1.21275,-0.8428249999999999],"type":"VEC3"},{"bufferView":79,"byteOffset":0,"componentType":5125,"count":48,"type":"SCALAR"},{"bufferView":80,"byteOffset":0,"componentType":5126,"count":16,"max":[8.21595,1.21275,-0.157175],"min":[7.65,-1.21275,-0.8428249999999999],"type":"VEC3"},{"bufferView":81,"byteOffset":0,"componentType":5125,"count":48,"type":"SCALAR"},{"bufferView":82,"byteOffset":0,"componentType":5126,"count":16,"max":[8.865950000000002,1.21275,-0.157175],"min":[8.3,-1.21275,-0.8428249999999999],"type":"VEC3"},{"bufferView":83,"byteOffset":0,"componentType":5125,"count":48,"type":"SCALAR"},{"bufferView":84,"byteOffset":0,"componentType":5126,"count":16,"max":[9.51595,1.21275,-0.157175],"min":[8.95,-1.21275,-0.8428249999999999],"type":"VEC3"},{"bufferView":85,"byteOffset":0,"componentType":5125,"count":48,"type":"SCALAR"},{"bufferView":86,"byteOffset":0,"componentType":5126,"count":16,"max":[10.165949999999999,1.21275,-0.157175],"min":[9.6,-1.21275,-0.8428249999999999],"type":"VEC3"},{"bufferView":87,"byteOffset":0,"componentType":5125,"count":48,"type":"SCALAR"},{"bufferView":88,"byteOffset":0,"componentType":5126,"count":16,"max":[10.81595,1.21275,-0.157175],"min":[10.25,-1.21275,-0.8428249999999999],"type":"VEC3"},{"bufferView":89,"byteOffset":0,"componentType":5125,"count":48,"type":"SCALAR"},{"bufferView":90,"byteOffset":0,"componentType":5126,"count":16,"max":[11.46595,1.21275,-0.157175],"min":[10.9,-1.21275,-0.8428249999999999],"type":"VEC3"},{"bufferView":91,"byteOffset":0,"componentType":5125,"count":48,"type":"SCALAR"},{"bufferView":92,"byteOffset":0,"componentType":5126,"count":16,"max":[12.115950000000002,1.21275,-0.157175],"min":[11.55,-1.21275,-0.8428249999999999],"type":"VEC3"},{"bufferView":93,"byteOffset":0,"componentType":5125,"count":48,"type":"SCALAR"},{"bufferView":94,"byteOffset":0,"componentType":5126,"count":16,"max":[12.76595,1.21275,-0.157175],"min":[12.2,-1.21275,-0.8428249999999999],"type":"VEC3"},{"bufferView":95,"byteOffset":0,"componentType":5125,"count":48,"type":"SCALAR"},{"bufferView":96,"byteOffset":0,"componentType":5126,"count":16,"max":[13.415950000000002,1.21275,-0.157175],"min":[12.850000000000001,-1.21275,-0.8428249999999999],"type":"VEC3"},{"bufferView":97,"byteOffset":0,"componentType":5125,"count":48,"type":"SCALAR"},{"bufferView":98,"byteOffset":0,"componentType":5126,"count":16,"max":[14.06595,1.21275,-0.157175],"min":[13.5,-1.21275,-0.8428249999999999],"type":"VEC3"},{"bufferView":99,"byteOffset":0,"componentType":5125,"count":48,"type":"SCALAR"},{"bufferView":100,"byteOffset":0,"componentType":5126,"count":16,"max":[14.71595,1.21275,-0.157175],"min":[14.15,-1.21275,-0.8428249999999999],"type":"VEC3"},{"bufferView":101,"byteOffset":0,"componentType":5125,"count":48,"type":"SCALAR"}],"asset":{"generator":"VTK","version":"2.0"},"bufferViews":[{"buffer":0,"byteLength":7200,"byteOffset":0,"target":34962},{"buffer":1,"byteLength":13248,"byteOffset":0,"target":34963},{"buffer":2,"byteLength":7200,"byteOffset":0,"target":34962},{"buffer":3,"byteLength":13248,"byteOffset":0,"target":34963},{"buffer":4,"byteLength":7200,"byteOffset":0,"target":34962},{"buffer":5,"byteLength":13248,"byteOffset":0,"target":34963},{"buffer":6,"byteLength":7200,"byteOffset":0,"target":34962},{"buffer":7,"byteLength":13248,"byteOffset":0,"target":34963},{"buffer":8,"byteLength":7200,"byteOffset":0,"target":34962},{"buffer":9,"byteLength":13248,"byteOffset":0,"target":34963},{"buffer":10,"byteLength":7200,"byteOffset":0,"target":34962},{"buffer":11,"byteLength":13248,"byteOffset":0,"target":34963},{"buffer":12,"byteLength":4848,"byteOffset":0,"target":34962},{"buffer":13,"byteLength":7224,"byteOffset":0,"target":34963},{"buffer":14,"byteLength":4848,"byteOffset":0,"target":34962},{"buffer":15,"byteLength":7224,"byteOffset":0,"target":34963},{"buffer":16,"byteLength":3636,"byteOffset":0,"target":34962},{"buffer":17,"byteLength":4812,"byteOffset":0,"target":34963},{"buffer":18,"byteLength":3636,"byteOffset":0,"target":34962},{"buffer":19,"byteLength":4812,"byteOffset":0,"target":34963},{"buffer":20,"byteLength":7272,"byteOffset":0,"target":34962},{"buffer":21,"byteLength":12072,"byteOffset":0,"target":34963},{"buffer":22,"byteLength":17280,"byteOffset":0,"target":34962},{"buffer":23,"byteLength":30780,"byteOffset":0,"target":34963},{"buffer":24,"byteLength":3636,"byteOffset":0,"target":34962},{"buffer":25,"byteLength":4800,"byteOffset":0,"target":34963},{"buffer":26,"byteLength":4608,"byteOffset":0,"target":34962},{"buffer":27,"byteLength":4608,"byteOffset":0,"target":34962},{"buffer":28,"byteLength":6912,"byteOffset":0,"target":34963},{"buffer":29,"byteLength":768,"byteOffset":0,"target":34962},{"buffer":30,"byteLength":768,"byteOffset":0,"target":34962},{"buffer":31,"byteLength":1152,"byteOffset":0,"target":34963},{"buffer":32,"byteLength":5760,"byteOffset":0,"target":34962},{"buffer":33,"byteLength":9120,"byteOffset":0,"target":34963},{"buffer":34,"byteLength":9216,"byteOffset":0,"target":34962},{"buffer":35,"byteLength":14820,"byteOffset":0,"target":34963},{"buffer":36,"byteLength":1200,"byteOffset":0,"target":34962},{"buffer":37,"byteLength":1200,"byteOffset":0,"target":34963},{"buffer":38,"byteLength":9216,"byteOffset":0,"target":34962},{"buffer":39,"byteLength":14820,"byteOffset":0,"target":34963},{"buffer":40,"byteLength":1200,"byteOffset":0,"target":34962},{"buffer":41,"byteLength":1200,"byteOffset":0,"target":34963},{"buffer":42,"byteLength":3636,"byteOffset":0,"target":34962},{"buffer":43,"byteLength":3624,"byteOffset":0,"target":34963},{"buffer":44,"byteLength":3636,"byteOffset":0,"target":34962},{"buffer":45,"byteLength":3624,"byteOffset":0,"target":34963},{"buffer":46,"byteLength":3636,"byteOffset":0,"target":34962},{"buffer":47,"byteLength":3624,"byteOffset":0,"target":34963},{"buffer":48,"byteLength":3636,"byteOffset":0,"target":34962},{"buffer":49,"byteLength":3624,"byteOffset":0,"target":34963},{"buffer":50,"byteLength":20736,"byteOffset":0,"target":34962},{"buffer":51,"byteLength":36480,"byteOffset":0,"target":34963},{"buffer":52,"byteLength":20736,"byteOffset":0,"target":34962},{"buffer":53,"byteLength":36480,"byteOffset":0,"target":34963},{"buffer":54,"byteLength":192,"byteOffset":0,"target":34962},{"buffer":55,"byteLength":192,"byteOffset":0,"target":34963},{"buffer":56,"byteLength":192,"byteOffset":0,"target":34962},{"buffer":57,"byteLength":192,"byteOffset":0,"target":34963},{"buffer":58,"byteLength":192,"byteOffset":0,"target":34962},{"buffer":59,"byteLength":192,"byteOffset":0,"target":34963},{"buffer":60,"byteLength":192,"byteOffset":0,"target":34962},{"buffer":61,"byteLength":192,"byteOffset":0,"target":34963},{"buffer":62,"byteLength":192,"byteOffset":0,"target":34962},{"buffer":63,"byteLength":192,"byteOffset":0,"target":34963},{"buffer":64,"byteLength":192,"byteOffset":0,"target":34962},{"buffer":65,"byteLength":192,"byteOffset":0,"target":34963},{"buffer":66,"byteLength":192,"byteOffset":0,"target":34962},{"buffer":67,"byteLength":192,"byteOffset":0,"target":34963},{"buffer":68,"byteLength":192,"byteOffset":0,"target":34962},{"buffer":69,"byteLength":192,"byteOffset":0,"target":34963},{"buffer":70,"byteLength":192,"byteOffset":0,"target":34962},{"buffer":71,"byteLength":192,"byteOffset":0,"target":34963},{"buffer":72,"byteLength":192,"byteOffset":0,"target":34962},{"buffer":73,"byteLength":192,"byteOffset":0,"target":34963},{"buffer":74,"byteLength":192,"byteOffset":0,"target":34962},{"buffer":75,"byteLength":192,"byteOffset":0,"target":34963},{"buffer":76,"byteLength":192,"byteOffset":0,"target":34962},{"buffer":77,"byteLength":192,"byteOffset":0,"target":34963},{"buffer":78,"byteLength":192,"byteOffset":0,"target":34962},{"buffer":79,"byteLength":192,"byteOffset":0,"target":34963},{"buffer":80,"byteLength":192,"byteOffset":0,"target":34962},{"buffer":81,"byteLength":192,"byteOffset":0,"target":34963},{"buffer":82,"byteLength":192,"byteOffset":0,"target":34962},{"buffer":83,"byteLength":192,"byteOffset":0,"target":34963},{"buffer":84,"byteLength":192,"byteOffset":0,"target":34962},{"buffer":85,"byteLength":192,"byteOffset":0,"target":34963},{"buffer":86,"byteLength":192,"byteOffset":0,"target":34962},{"buffer":87,"byteLength":192,"byteOffset":0,"target":34963},{"buffer":88,"byteLength":192,"byteOffset":0,"target":34962},{"buffer":89,"byteLength":192,"byteOffset":0,"target":34963},{"buffer":90,"byteLength":192,"byteOffset":0,"target":34962},{"buffer":91,"byteLength":192,"byteOffset":0,"target":34963},{"buffer":92,"byteLength":192,"byteOffset":0,"target":34962},{"buffer":93,"byteLength":192,"byteOffset":0,"target":34963},{"buffer":94,"byteLength":192,"byteOffset":0,"target":34962},{"buffer":95,"byteLength":192,"byteOffset":0,"target":34963},{"buffer":96,"byteLength":192,"byteOffset":0,"target":34962},{"buffer":97,"byteLength":192,"byteOffset":0,"target":34963},{"buffer":98,"byteLength":192,"byteOffset":0,"target":34962},{"buffer":99,"byteLength":192,"byteOffset":0,"target":34963},{"buffer":100,"byteLength":192,"byteOffset":0,"target":34962},{"buffer":101,"byteLength":192,"byteOffset":0,"target":34963}],"buffers":[{"byteLength":7200,"uri":"data:application/octet-stream;base64,"},{"byteLength":13248,"uri":"data:application/octet-stream;base64,"},{"byteLength":7200,"uri":"data:application/octet-stream;base64,"},{"byteLength":13248,"uri":"data:application/octet-stream;base64,"},{"byteLength":7200,"uri":"data:application/octet-stream;base64,"},{"byteLength":13248,"uri":"data:application/octet-stream;base64,"},{"byteLength":7200,"uri":"data:application/octet-stream;base64,"},{"byteLength":13248,"uri":"data:application/octet-stream;base64,"},{"byteLength":7200,"uri":"data:application/octet-stream;base64,"},{"byteLength":13248,"uri":"data:application/octet-stream;base64,"},{"byteLength":7200,"uri":"data:application/octet-stream;base64,"},{"byteLength":13248,"uri":"data:application/octet-stream;base64,"},{"byteLength":4848,"uri":"data:application/octet-stream;base64,"},{"byteLength":7224,"uri":"data:application/octet-stream;base64,"},{"byteLength":4848,"uri":"data:application/octet-stream;base64,"},{"byteLength":7224,"uri":"data:application/octet-stream;base64,"},{"byteLength":3636,"uri":"data:application/octet-stream;base64,"},{"byteLength":4812,"uri":"data:application/octet-stream;base64,"},{"byteLength":3636,"uri":"data:application/octet-stream;base64,"},{"byteLength":4812,"uri":"data:application/octet-stream;base64,"},{"byteLength":7272,"uri":"data:application/octet-stream;base64,"},{"byteLength":12072,"uri":"data:application/octet-stream;base64,"},{"byteLength":17280,"uri":"data:application/octet-stream;base64,"},{"byteLength":30780,"uri":"data:application/octet-stream;base64,"},{"byteLength":3636,"uri":"data:application/octet-stream;base64,"},{"byteLength":4800,"uri":"data:application/octet-stream;base64,"},{"byteLength":4608,"uri":"data:application/octet-stream;base64,"},{"byteLength":4608,"uri":"data:application/octet-stream;base64,"},{"byteLength":6912,"uri":"data:application/octet-stream;base64,"},{"byteLength":768,"uri":"data:application/octet-stream;base64,"},{"byteLength":768,"uri":"data:application/octet-stream;base64,"},{"byteLength":1152,"uri":"data:application/octet-stream;base64,"},{"byteLength":5760,"uri":"data:application/octet-stream;base64,"},{"byteLength":9120,"uri":"data:application/octet-stream;base64,"},{"byteLength":9216,"uri":"data:application/octet-stream;base64,"},{"byteLength":14820,"uri":"data:application/octet-stream;base64,"},{"byteLength":1200,"uri":"data:application/octet-stream;base64,"},{"byteLength":1200,"uri":"data:application/octet-stream;base64,"},{"byteLength":9216,"uri":"data:application/octet-stream;base64,"},{"byteLength":14820,"uri":"data:application/octet-stream;base64,"},{"byteLength":1200,"uri":"data:application/octet-stream;base64,"},{"byteLength":1200,"uri":"data:application/octet-stream;base64,"},{"byteLength":3636,"uri":"data:application/octet-stream;base64,"},{"byteLength":3624,"uri":"data:application/octet-stream;base64,"},{"byteLength":3636,"uri":"data:application/octet-stream;base64,"},{"byteLength":3624,"uri":"data:application/octet-stream;base64,"},{"byteLength":3636,"uri":"data:application/octet-stream;base64,"},{"byteLength":3624,"uri":"data:application/octet-stream;base64,"},{"byteLength":3636,"uri":"data:application/octet-stream;base64,"},{"byteLength":3624,"uri":"data:application/octet-stream;base64,"},{"byteLength":20736,"uri":"data:application/octet-stream;base64,"},{"byteLength":36480,"uri":"data:application/octet-stream;base64,"},{"byteLength":20736,"uri":"data:application/octet-stream;base64,"},{"byteLength":36480,"uri":"data:application/octet-stream;base64,"},{"byteLength":192,"uri":"data:application/octet-stream;base64,"},{"byteLength":192,"uri":"data:application/octet-stream;base64,"},{"byteLength":192,"uri":"data:application/octet-stream;base64,"},{"byteLength":192,"uri":"data:application/octet-stream;base64,"},{"byteLength":192,"uri":"data:application/octet-stream;base64,"},{"byteLength":192,"uri":"data:application/octet-stream;base64,"},{"byteLength":192,"uri":"data:application/octet-stream;base64,"},{"byteLength":192,"uri":"data:application/octet-stream;base64,"},{"byteLength":192,"uri":"data:application/octet-stream;base64,"},{"byteLength":192,"uri":"data:application/octet-stream;base64,"},{"byteLength":192,"uri":"data:application/octet-stream;base64,"},{"byteLength":192,"uri":"data:application/octet-stream;base64,"},{"byteLength":192,"uri":"data:application/octet-stream;base64,"},{"byteLength":192,"uri":"data:application/octet-stream;base64,"},{"byteLength":192,"uri":"data:application/octet-stream;base64,"},{"byteLength":192,"uri":"data:application/octet-stream;base64,"},{"byteLength":192,"uri":"data:application/octet-stream;base64,"},{"byteLength":192,"uri":"data:application/octet-stream;base64,"},{"byteLength":192,"uri":"data:application/octet-stream;base64,"},{"byteLength":192,"uri":"data:application/octet-stream;base64,"},{"byteLength":192,"uri":"data:application/octet-stream;base64,"},{"byteLength":192,"uri":"data:application/octet-stream;base64,"},{"byteLength":192,"uri":"data:application/octet-stream;base64,"},{"byteLength":192,"uri":"data:application/octet-stream;base64,"},{"byteLength":192,"uri":"data:application/octet-stream;base64,"},{"byteLength":192,"uri":"data:application/octet-stream;base64,"},{"byteLength":192,"uri":"data:application/octet-stream;base64,"},{"byteLength":192,"uri":"data:application/octet-stream;base64,"},{"byteLength":192,"uri":"data:application/octet-stream;base64,"},{"byteLength":192,"uri":"data:application/octet-stream;base64,"},{"byteLength":192,"uri":"data:application/octet-stream;base64,"},{"byteLength":192,"uri":"data:application/octet-stream;base64,"},{"byteLength":192,"uri":"data:application/octet-stream;base64,"},{"byteLength":192,"uri":"data:application/octet-stream;base64,"},{"byteLength":192,"uri":"data:application/octet-stream;base64,"},{"byteLength":192,"uri":"data:application/octet-stream;base64,"},{"byteLength":192,"uri":"data:application/octet-stream;base64,"},{"byteLength":192,"uri":"data:application/octet-stream;base64,"},{"byteLength":192,"uri":"data:application/octet-stream;base64,"},{"byteLength":192,"uri":"data:application/octet-stream;base64,"},{"byteLength":192,"uri":"data:application/octet-stream;base64,"},{"byteLength":192,"uri":"data:application/octet-stream;base64,"},{"byteLength":192,"uri":"data:application/octet-stream;base64,"},{"byteLength":192,"uri":"data:application/octet-stream;base64,"},{"byteLength":192,"uri":"data:application/octet-stream;base64,"},{"byteLength":192,"uri":"data:application/octet-stream;base64,"},{"byteLength":192,"uri":"data:application/octet-stream;base64,"},{"byteLength":192,"uri":"data:application/octet-stream;base64,"}],"cameras":[{"perspective":{"aspectRatio":1.0,"yfov":0.5235987755982988,"zfar":100.92571700341335,"znear":13.978675001325346},"type":"perspective"}],"materials":[{"pbrMetallicRoughness":{"baseColorFactor":[0.5019607843137255,0.5019607843137255,0.5019607843137255,1.0],"metallicFactor":0.0,"roughnessFactor":1.0}},{"pbrMetallicRoughness":{"baseColorFactor":[0.5019607843137255,0.5019607843137255,0.5019607843137255,1.0],"metallicFactor":0.0,"roughnessFactor":1.0}},{"pbrMetallicRoughness":{"baseColorFactor":[0.5019607843137255,0.5019607843137255,0.5019607843137255,1.0],"metallicFactor":0.0,"roughnessFactor":1.0}},{"pbrMetallicRoughness":{"baseColorFactor":[0.5019607843137255,0.5019607843137255,0.5019607843137255,1.0],"metallicFactor":0.0,"roughnessFactor":1.0}},{"pbrMetallicRoughness":{"baseColorFactor":[0.5019607843137255,0.5019607843137255,0.5019607843137255,1.0],"metallicFactor":0.0,"roughnessFactor":1.0}},{"pbrMetallicRoughness":{"baseColorFactor":[0.5019607843137255,0.5019607843137255,0.5019607843137255,1.0],"metallicFactor":0.0,"roughnessFactor":1.0}},{"pbrMetallicRoughness":{"baseColorFactor":[0.5019607843137255,0.5019607843137255,0.5019607843137255,0.5],"metallicFactor":0.0,"roughnessFactor":1.0}},{"pbrMetallicRoughness":{"baseColorFactor":[0.5019607843137255,0.5019607843137255,0.5019607843137255,0.5],"metallicFactor":0.0,"roughnessFactor":1.0}},{"pbrMetallicRoughness":{"baseColorFactor":[0.5019607843137255,0.5019607843137255,0.5019607843137255,0.5],"metallicFactor":0.0,"roughnessFactor":1.0}},{"pbrMetallicRoughness":{"baseColorFactor":[0.5019607843137255,0.5019607843137255,0.5019607843137255,0.5],"metallicFactor":0.0,"roughnessFactor":1.0}},{"pbrMetallicRoughness":{"baseColorFactor":[0.5019607843137255,0.5019607843137255,0.5019607843137255,0.5],"metallicFactor":0.0,"roughnessFactor":1.0}},{"pbrMetallicRoughness":{"baseColorFactor":[0.5019607843137255,0.5019607843137255,0.5019607843137255,0.5],"metallicFactor":0.0,"roughnessFactor":1.0}},{"pbrMetallicRoughness":{"baseColorFactor":[0.5019607843137255,0.5019607843137255,0.5019607843137255,0.75],"metallicFactor":0.0,"roughnessFactor":1.0}},{"pbrMetallicRoughness":{"baseColorFactor":[0.27450980392156865,0.5098039215686274,0.7058823529411765,1.0],"metallicFactor":0.0,"roughnessFactor":1.0}},{"pbrMetallicRoughness":{"baseColorFactor":[0.9568627450980393,0.6431372549019608,0.3764705882352941,1.0],"metallicFactor":0.0,"roughnessFactor":1.0}},{"pbrMetallicRoughness":{"baseColorFactor":[0.5019607843137255,0.5019607843137255,0.5019607843137255,0.5],"metallicFactor":0.0,"roughnessFactor":1.0}},{"pbrMetallicRoughness":{"baseColorFactor":[0.5019607843137255,0.5019607843137255,0.5019607843137255,0.5],"metallicFactor":0.0,"roughnessFactor":1.0}},{"pbrMetallicRoughness":{"baseColorFactor":[0.0,0.0,0.0,0.6],"metallicFactor":0.0,"roughnessFactor":1.0}},{"pbrMetallicRoughness":{"baseColorFactor":[0.5019607843137255,0.5019607843137255,0.5019607843137255,0.5],"metallicFactor":0.0,"roughnessFactor":1.0}},{"pbrMetallicRoughness":{"baseColorFactor":[0.0,0.0,0.0,0.6],"metallicFactor":0.0,"roughnessFactor":1.0}},{"pbrMetallicRoughness":{"baseColorFactor":[1.0,0.6470588235294118,0.0,0.5],"metallicFactor":0.0,"roughnessFactor":1.0}},{"pbrMetallicRoughness":{"baseColorFactor":[1.0,0.6470588235294118,0.0,0.5],"metallicFactor":0.0,"roughnessFactor":1.0}},{"pbrMetallicRoughness":{"baseColorFactor":[1.0,0.6470588235294118,0.0,0.5],"metallicFactor":0.0,"roughnessFactor":1.0}},{"pbrMetallicRoughness":{"baseColorFactor":[1.0,0.6470588235294118,0.0,0.5],"metallicFactor":0.0,"roughnessFactor":1.0}},{"pbrMetallicRoughness":{"baseColorFactor":[1.0,0.6470588235294118,0.0,0.5],"metallicFactor":0.0,"roughnessFactor":1.0}},{"pbrMetallicRoughness":{"baseColorFactor":[1.0,0.6470588235294118,0.0,0.5],"metallicFactor":0.0,"roughnessFactor":1.0}},{"pbrMetallicRoughness":{"baseColorFactor":[0.0,0.5019607843137255,0.0,1.0],"metallicFactor":0.0,"roughnessFactor":1.0}},{"pbrMetallicRoughness":{"baseColorFactor":[0.0,0.5019607843137255,0.0,1.0],"metallicFactor":0.0,"roughnessFactor":1.0}},{"pbrMetallicRoughness":{"baseColorFactor":[0.0,0.5019607843137255,0.0,1.0],"metallicFactor":0.0,"roughnessFactor":1.0}},{"pbrMetallicRoughness":{"baseColorFactor":[0.0,0.5019607843137255,0.0,1.0],"metallicFactor":0.0,"roughnessFactor":1.0}},{"pbrMetallicRoughness":{"baseColorFactor":[0.0,0.5019607843137255,0.0,1.0],"metallicFactor":0.0,"roughnessFactor":1.0}},{"pbrMetallicRoughness":{"baseColorFactor":[0.0,0.5019607843137255,0.0,1.0],"metallicFactor":0.0,"roughnessFactor":1.0}},{"pbrMetallicRoughness":{"baseColorFactor":[0.0,0.5019607843137255,0.0,1.0],"metallicFactor":0.0,"roughnessFactor":1.0}},{"pbrMetallicRoughness":{"baseColorFactor":[0.0,0.5019607843137255,0.0,1.0],"metallicFactor":0.0,"roughnessFactor":1.0}},{"pbrMetallicRoughness":{"baseColorFactor":[0.0,0.5019607843137255,0.0,1.0],"metallicFactor":0.0,"roughnessFactor":1.0}},{"pbrMetallicRoughness":{"baseColorFactor":[0.0,0.5019607843137255,0.0,1.0],"metallicFactor":0.0,"roughnessFactor":1.0}},{"pbrMetallicRoughness":{"baseColorFactor":[0.0,0.5019607843137255,0.0,1.0],"metallicFactor":0.0,"roughnessFactor":1.0}},{"pbrMetallicRoughness":{"baseColorFactor":[0.0,0.5019607843137255,0.0,1.0],"metallicFactor":0.0,"roughnessFactor":1.0}},{"pbrMetallicRoughness":{"baseColorFactor":[0.0,0.5019607843137255,0.0,1.0],"metallicFactor":0.0,"roughnessFactor":1.0}},{"pbrMetallicRoughness":{"baseColorFactor":[0.0,0.5019607843137255,0.0,1.0],"metallicFactor":0.0,"roughnessFactor":1.0}},{"pbrMetallicRoughness":{"baseColorFactor":[0.0,0.5019607843137255,0.0,1.0],"metallicFactor":0.0,"roughnessFactor":1.0}},{"pbrMetallicRoughness":{"baseColorFactor":[0.0,0.5019607843137255,0.0,1.0],"metallicFactor":0.0,"roughnessFactor":1.0}},{"pbrMetallicRoughness":{"baseColorFactor":[0.0,0.5019607843137255,0.0,1.0],"metallicFactor":0.0,"roughnessFactor":1.0}},{"pbrMetallicRoughness":{"baseColorFactor":[0.0,0.5019607843137255,0.0,1.0],"metallicFactor":0.0,"roughnessFactor":1.0}},{"pbrMetallicRoughness":{"baseColorFactor":[0.0,0.5019607843137255,0.0,1.0],"metallicFactor":0.0,"roughnessFactor":1.0}},{"pbrMetallicRoughness":{"baseColorFactor":[0.0,0.5019607843137255,0.0,1.0],"metallicFactor":0.0,"roughnessFactor":1.0}},{"pbrMetallicRoughness":{"baseColorFactor":[0.0,0.5019607843137255,0.0,1.0],"metallicFactor":0.0,"roughnessFactor":1.0}},{"pbrMetallicRoughness":{"baseColorFactor":[0.0,0.5019607843137255,0.0,1.0],"metallicFactor":0.0,"roughnessFactor":1.0}},{"pbrMetallicRoughness":{"baseColorFactor":[0.0,0.5019607843137255,0.0,1.0],"metallicFactor":0.0,"roughnessFactor":1.0}},{"pbrMetallicRoughness":{"baseColorFactor":[0.0,0.5019607843137255,0.0,1.0],"metallicFactor":0.0,"roughnessFactor":1.0}}],"meshes":[{"name":"mesh0","primitives":[{"attributes":{"POSITION":0},"indices":1,"material":0,"mode":4}]},{"name":"mesh1","primitives":[{"attributes":{"POSITION":2},"indices":3,"material":1,"mode":4}]},{"name":"mesh2","primitives":[{"attributes":{"POSITION":4},"indices":5,"material":2,"mode":4}]},{"name":"mesh3","primitives":[{"attributes":{"POSITION":6},"indices":7,"material":3,"mode":4}]},{"name":"mesh4","primitives":[{"attributes":{"POSITION":8},"indices":9,"material":4,"mode":4}]},{"name":"mesh5","primitives":[{"attributes":{"POSITION":10},"indices":11,"material":5,"mode":4}]},{"name":"mesh6","primitives":[{"attributes":{"POSITION":12},"indices":13,"material":6,"mode":4}]},{"name":"mesh7","primitives":[{"attributes":{"POSITION":14},"indices":15,"material":7,"mode":4}]},{"name":"mesh8","primitives":[{"attributes":{"POSITION":16},"indices":17,"material":8,"mode":4}]},{"name":"mesh9","primitives":[{"attributes":{"POSITION":18},"indices":19,"material":9,"mode":4}]},{"name":"mesh10","primitives":[{"attributes":{"POSITION":20},"indices":21,"material":10,"mode":4}]},{"name":"mesh11","primitives":[{"attributes":{"POSITION":22},"indices":23,"material":11,"mode":4}]},{"name":"mesh12","primitives":[{"attributes":{"POSITION":24},"indices":25,"material":12,"mode":4}]},{"name":"mesh13","primitives":[{"attributes":{"NORMAL":27,"POSITION":26},"indices":28,"material":13,"mode":4}]},{"name":"mesh14","primitives":[{"attributes":{"NORMAL":30,"POSITION":29},"indices":31,"material":14,"mode":4}]},{"name":"mesh15","primitives":[{"attributes":{"POSITION":32},"indices":33,"material":15,"mode":4}]},{"name":"mesh16","primitives":[{"attributes":{"POSITION":34},"indices":35,"material":16,"mode":4}]},{"name":"mesh17","primitives":[{"attributes":{"POSITION":36},"indices":37,"material":17,"mode":4}]},{"name":"mesh18","primitives":[{"attributes":{"POSITION":38},"indices":39,"material":18,"mode":4}]},{"name":"mesh19","primitives":[{"attributes":{"POSITION":40},"indices":41,"material":19,"mode":4}]},{"name":"mesh20","primitives":[{"attributes":{"POSITION":42},"indices":43,"material":20,"mode":4}]},{"name":"mesh21","primitives":[{"attributes":{"POSITION":44},"indices":45,"material":21,"mode":4}]},{"name":"mesh22","primitives":[{"attributes":{"POSITION":46},"indices":47,"material":22,"mode":4}]},{"name":"mesh23","primitives":[{"attributes":{"POSITION":48},"indices":49,"material":23,"mode":4}]},{"name":"mesh24","primitives":[{"attributes":{"POSITION":50},"indices":51,"material":24,"mode":4}]},{"name":"mesh25","primitives":[{"attributes":{"POSITION":52},"indices":53,"material":25,"mode":4}]},{"name":"mesh26","primitives":[{"attributes":{"POSITION":54},"indices":55,"material":26,"mode":4}]},{"name":"mesh27","primitives":[{"attributes":{"POSITION":56},"indices":57,"material":27,"mode":4}]},{"name":"mesh28","primitives":[{"attributes":{"POSITION":58},"indices":59,"material":28,"mode":4}]},{"name":"mesh29","primitives":[{"attributes":{"POSITION":60},"indices":61,"material":29,"mode":4}]},{"name":"mesh30","primitives":[{"attributes":{"POSITION":62},"indices":63,"material":30,"mode":4}]},{"name":"mesh31","primitives":[{"attributes":{"POSITION":64},"indices":65,"material":31,"mode":4}]},{"name":"mesh32","primitives":[{"attributes":{"POSITION":66},"indices":67,"material":32,"mode":4}]},{"name":"mesh33","primitives":[{"attributes":{"POSITION":68},"indices":69,"material":33,"mode":4}]},{"name":"mesh34","primitives":[{"attributes":{"POSITION":70},"indices":71,"material":34,"mode":4}]},{"name":"mesh35","primitives":[{"attributes":{"POSITION":72},"indices":73,"material":35,"mode":4}]},{"name":"mesh36","primitives":[{"attributes":{"POSITION":74},"indices":75,"material":36,"mode":4}]},{"name":"mesh37","primitives":[{"attributes":{"POSITION":76},"indices":77,"material":37,"mode":4}]},{"name":"mesh38","primitives":[{"attributes":{"POSITION":78},"indices":79,"material":38,"mode":4}]},{"name":"mesh39","primitives":[{"attributes":{"POSITION":80},"indices":81,"material":39,"mode":4}]},{"name":"mesh40","primitives":[{"attributes":{"POSITION":82},"indices":83,"material":40,"mode":4}]},{"name":"mesh41","primitives":[{"attributes":{"POSITION":84},"indices":85,"material":41,"mode":4}]},{"name":"mesh42","primitives":[{"attributes":{"POSITION":86},"indices":87,"material":42,"mode":4}]},{"name":"mesh43","primitives":[{"attributes":{"POSITION":88},"indices":89,"material":43,"mode":4}]},{"name":"mesh44","primitives":[{"attributes":{"POSITION":90},"indices":91,"material":44,"mode":4}]},{"name":"mesh45","primitives":[{"attributes":{"POSITION":92},"indices":93,"material":45,"mode":4}]},{"name":"mesh46","primitives":[{"attributes":{"POSITION":94},"indices":95,"material":46,"mode":4}]},{"name":"mesh47","primitives":[{"attributes":{"POSITION":96},"indices":97,"material":47,"mode":4}]},{"name":"mesh48","primitives":[{"attributes":{"POSITION":98},"indices":99,"material":48,"mode":4}]},{"name":"mesh49","primitives":[{"attributes":{"POSITION":100},"indices":101,"material":49,"mode":4}]}],"nodes":[{"matrix":[2.220446049250314e-16,-3.330669073875469e-16,1.0000000000000002,0.0,1.0,2.220446049250313e-16,-2.220446049250313e-16,0.0,-2.2204460492503128e-16,1.0000000000000002,3.3306690738754696e-16,0.0,0.0,0.0,0.0,1.0],"mesh":0,"name":"mesh0"},{"matrix":[2.220446049250314e-16,-3.330669073875469e-16,1.0000000000000002,0.0,1.0,2.220446049250313e-16,-2.220446049250313e-16,0.0,-2.2204460492503128e-16,1.0000000000000002,3.3306690738754696e-16,0.0,0.0,0.0,0.0,1.0],"mesh":1,"name":"mesh1"},{"matrix":[2.220446049250314e-16,-3.330669073875469e-16,1.0000000000000002,0.0,1.0,2.220446049250313e-16,-2.220446049250313e-16,0.0,-2.2204460492503128e-16,1.0000000000000002,3.3306690738754696e-16,0.0,0.0,0.0,0.0,1.0],"mesh":2,"name":"mesh2"},{"matrix":[2.220446049250314e-16,-3.330669073875469e-16,1.0000000000000002,0.0,1.0,2.220446049250313e-16,-2.220446049250313e-16,0.0,-2.2204460492503128e-16,1.0000000000000002,3.3306690738754696e-16,0.0,0.0,0.0,0.0,1.0],"mesh":3,"name":"mesh3"},{"matrix":[2.220446049250314e-16,-3.330669073875469e-16,1.0000000000000002,0.0,1.0,2.220446049250313e-16,-2.220446049250313e-16,0.0,-2.2204460492503128e-16,1.0000000000000002,3.3306690738754696e-16,0.0,0.0,0.0,0.0,1.0],"mesh":4,"name":"mesh4"},{"matrix":[2.220446049250314e-16,-3.330669073875469e-16,1.0000000000000002,0.0,1.0,2.220446049250313e-16,-2.220446049250313e-16,0.0,-2.2204460492503128e-16,1.0000000000000002,3.3306690738754696e-16,0.0,0.0,0.0,0.0,1.0],"mesh":5,"name":"mesh5"},{"matrix":[2.220446049250314e-16,-3.330669073875469e-16,1.0000000000000002,0.0,1.0,2.220446049250313e-16,-2.220446049250313e-16,0.0,-2.2204460492503128e-16,1.0000000000000002,3.3306690738754696e-16,0.0,0.0,0.0,0.0,1.0],"mesh":6,"name":"mesh6"},{"matrix":[2.220446049250314e-16,-3.330669073875469e-16,1.0000000000000002,0.0,1.0,2.220446049250313e-16,-2.220446049250313e-16,0.0,-2.2204460492503128e-16,1.0000000000000002,3.3306690738754696e-16,0.0,0.0,0.0,0.0,1.0],"mesh":7,"name":"mesh7"},{"matrix":[2.220446049250314e-16,-3.330669073875469e-16,1.0000000000000002,0.0,1.0,2.220446049250313e-16,-2.220446049250313e-16,0.0,-2.2204460492503128e-16,1.0000000000000002,3.3306690738754696e-16,0.0,0.0,0.0,0.0,1.0],"mesh":8,"name":"mesh8"},{"matrix":[2.220446049250314e-16,-3.330669073875469e-16,1.0000000000000002,0.0,1.0,2.220446049250313e-16,-2.220446049250313e-16,0.0,-2.2204460492503128e-16,1.0000000000000002,3.3306690738754696e-16,0.0,0.0,0.0,0.0,1.0],"mesh":9,"name":"mesh9"},{"matrix":[2.220446049250314e-16,-3.330669073875469e-16,1.0000000000000002,0.0,1.0,2.220446049250313e-16,-2.220446049250313e-16,0.0,-2.2204460492503128e-16,1.0000000000000002,3.3306690738754696e-16,0.0,0.0,0.0,0.0,1.0],"mesh":10,"name":"mesh10"},{"matrix":[2.220446049250314e-16,-3.330669073875469e-16,1.0000000000000002,0.0,1.0,2.220446049250313e-16,-2.220446049250313e-16,0.0,-2.2204460492503128e-16,1.0000000000000002,3.3306690738754696e-16,0.0,0.0,0.0,0.0,1.0],"mesh":11,"name":"mesh11"},{"matrix":[2.220446049250314e-16,-3.330669073875469e-16,1.0000000000000002,0.0,1.0,2.220446049250313e-16,-2.220446049250313e-16,0.0,-2.2204460492503128e-16,1.0000000000000002,3.3306690738754696e-16,0.0,0.0,0.0,0.0,1.0],"mesh":12,"name":"mesh12"},{"matrix":[2.220446049250314e-16,-3.330669073875469e-16,1.0000000000000002,0.0,1.0,2.220446049250313e-16,-2.220446049250313e-16,0.0,-2.2204460492503128e-16,1.0000000000000002,3.3306690738754696e-16,0.0,0.0,0.0,0.0,1.0],"mesh":13,"name":"mesh13"},{"matrix":[2.220446049250314e-16,-3.330669073875469e-16,1.0000000000000002,0.0,1.0,2.220446049250313e-16,-2.220446049250313e-16,0.0,-2.2204460492503128e-16,1.0000000000000002,3.3306690738754696e-16,0.0,0.0,0.0,0.0,1.0],"mesh":14,"name":"mesh14"},{"matrix":[2.220446049250314e-16,-3.330669073875469e-16,1.0000000000000002,0.0,1.0,2.220446049250313e-16,-2.220446049250313e-16,0.0,-2.2204460492503128e-16,1.0000000000000002,3.3306690738754696e-16,0.0,0.0,0.0,0.0,1.0],"mesh":15,"name":"mesh15"},{"matrix":[2.220446049250314e-16,-3.330669073875469e-16,1.0000000000000002,0.0,1.0,2.220446049250313e-16,-2.220446049250313e-16,0.0,-2.2204460492503128e-16,1.0000000000000002,3.3306690738754696e-16,0.0,0.0,0.0,0.0,1.0],"mesh":16,"name":"mesh16"},{"matrix":[2.220446049250314e-16,-3.330669073875469e-16,1.0000000000000002,0.0,1.0,2.220446049250313e-16,-2.220446049250313e-16,0.0,-2.2204460492503128e-16,1.0000000000000002,3.3306690738754696e-16,0.0,0.0,0.0,0.0,1.0],"mesh":17,"name":"mesh17"},{"matrix":[2.220446049250314e-16,-3.330669073875469e-16,1.0000000000000002,0.0,1.0,2.220446049250313e-16,-2.220446049250313e-16,0.0,-2.2204460492503128e-16,1.0000000000000002,3.3306690738754696e-16,0.0,0.0,0.0,0.0,1.0],"mesh":18,"name":"mesh18"},{"matrix":[2.220446049250314e-16,-3.330669073875469e-16,1.0000000000000002,0.0,1.0,2.220446049250313e-16,-2.220446049250313e-16,0.0,-2.2204460492503128e-16,1.0000000000000002,3.3306690738754696e-16,0.0,0.0,0.0,0.0,1.0],"mesh":19,"name":"mesh19"},{"matrix":[2.220446049250314e-16,-3.330669073875469e-16,1.0000000000000002,0.0,1.0,2.220446049250313e-16,-2.220446049250313e-16,0.0,-2.2204460492503128e-16,1.0000000000000002,3.3306690738754696e-16,0.0,0.0,0.0,0.0,1.0],"mesh":20,"name":"mesh20"},{"matrix":[2.220446049250314e-16,-3.330669073875469e-16,1.0000000000000002,0.0,1.0,2.220446049250313e-16,-2.220446049250313e-16,0.0,-2.2204460492503128e-16,1.0000000000000002,3.3306690738754696e-16,0.0,0.0,0.0,0.0,1.0],"mesh":21,"name":"mesh21"},{"matrix":[2.220446049250314e-16,-3.330669073875469e-16,1.0000000000000002,0.0,1.0,2.220446049250313e-16,-2.220446049250313e-16,0.0,-2.2204460492503128e-16,1.0000000000000002,3.3306690738754696e-16,0.0,0.0,0.0,0.0,1.0],"mesh":22,"name":"mesh22"},{"matrix":[2.220446049250314e-16,-3.330669073875469e-16,1.0000000000000002,0.0,1.0,2.220446049250313e-16,-2.220446049250313e-16,0.0,-2.2204460492503128e-16,1.0000000000000002,3.3306690738754696e-16,0.0,0.0,0.0,0.0,1.0],"mesh":23,"name":"mesh23"},{"matrix":[2.220446049250314e-16,-3.330669073875469e-16,1.0000000000000002,0.0,1.0,2.220446049250313e-16,-2.220446049250313e-16,0.0,-2.2204460492503128e-16,1.0000000000000002,3.3306690738754696e-16,0.0,0.0,0.0,0.0,1.0],"mesh":24,"name":"mesh24"},{"matrix":[2.220446049250314e-16,-3.330669073875469e-16,1.0000000000000002,0.0,1.0,2.220446049250313e-16,-2.220446049250313e-16,0.0,-2.2204460492503128e-16,1.0000000000000002,3.3306690738754696e-16,0.0,0.0,0.0,0.0,1.0],"mesh":25,"name":"mesh25"},{"matrix":[2.220446049250314e-16,-3.330669073875469e-16,1.0000000000000002,0.0,1.0,2.220446049250313e-16,-2.220446049250313e-16,0.0,-2.2204460492503128e-16,1.0000000000000002,3.3306690738754696e-16,0.0,0.0,0.0,0.0,1.0],"mesh":26,"name":"mesh26"},{"matrix":[2.220446049250314e-16,-3.330669073875469e-16,1.0000000000000002,0.0,1.0,2.220446049250313e-16,-2.220446049250313e-16,0.0,-2.2204460492503128e-16,1.0000000000000002,3.3306690738754696e-16,0.0,0.0,0.0,0.0,1.0],"mesh":27,"name":"mesh27"},{"matrix":[2.220446049250314e-16,-3.330669073875469e-16,1.0000000000000002,0.0,1.0,2.220446049250313e-16,-2.220446049250313e-16,0.0,-2.2204460492503128e-16,1.0000000000000002,3.3306690738754696e-16,0.0,0.0,0.0,0.0,1.0],"mesh":28,"name":"mesh28"},{"matrix":[2.220446049250314e-16,-3.330669073875469e-16,1.0000000000000002,0.0,1.0,2.220446049250313e-16,-2.220446049250313e-16,0.0,-2.2204460492503128e-16,1.0000000000000002,3.3306690738754696e-16,0.0,0.0,0.0,0.0,1.0],"mesh":29,"name":"mesh29"},{"matrix":[2.220446049250314e-16,-3.330669073875469e-16,1.0000000000000002,0.0,1.0,2.220446049250313e-16,-2.220446049250313e-16,0.0,-2.2204460492503128e-16,1.0000000000000002,3.3306690738754696e-16,0.0,0.0,0.0,0.0,1.0],"mesh":30,"name":"mesh30"},{"matrix":[2.220446049250314e-16,-3.330669073875469e-16,1.0000000000000002,0.0,1.0,2.220446049250313e-16,-2.220446049250313e-16,0.0,-2.2204460492503128e-16,1.0000000000000002,3.3306690738754696e-16,0.0,0.0,0.0,0.0,1.0],"mesh":31,"name":"mesh31"},{"matrix":[2.220446049250314e-16,-3.330669073875469e-16,1.0000000000000002,0.0,1.0,2.220446049250313e-16,-2.220446049250313e-16,0.0,-2.2204460492503128e-16,1.0000000000000002,3.3306690738754696e-16,0.0,0.0,0.0,0.0,1.0],"mesh":32,"name":"mesh32"},{"matrix":[2.220446049250314e-16,-3.330669073875469e-16,1.0000000000000002,0.0,1.0,2.220446049250313e-16,-2.220446049250313e-16,0.0,-2.2204460492503128e-16,1.0000000000000002,3.3306690738754696e-16,0.0,0.0,0.0,0.0,1.0],"mesh":33,"name":"mesh33"},{"matrix":[2.220446049250314e-16,-3.330669073875469e-16,1.0000000000000002,0.0,1.0,2.220446049250313e-16,-2.220446049250313e-16,0.0,-2.2204460492503128e-16,1.0000000000000002,3.3306690738754696e-16,0.0,0.0,0.0,0.0,1.0],"mesh":34,"name":"mesh34"},{"matrix":[2.220446049250314e-16,-3.330669073875469e-16,1.0000000000000002,0.0,1.0,2.220446049250313e-16,-2.220446049250313e-16,0.0,-2.2204460492503128e-16,1.0000000000000002,3.3306690738754696e-16,0.0,0.0,0.0,0.0,1.0],"mesh":35,"name":"mesh35"},{"matrix":[2.220446049250314e-16,-3.330669073875469e-16,1.0000000000000002,0.0,1.0,2.220446049250313e-16,-2.220446049250313e-16,0.0,-2.2204460492503128e-16,1.0000000000000002,3.3306690738754696e-16,0.0,0.0,0.0,0.0,1.0],"mesh":36,"name":"mesh36"},{"matrix":[2.220446049250314e-16,-3.330669073875469e-16,1.0000000000000002,0.0,1.0,2.220446049250313e-16,-2.220446049250313e-16,0.0,-2.2204460492503128e-16,1.0000000000000002,3.3306690738754696e-16,0.0,0.0,0.0,0.0,1.0],"mesh":37,"name":"mesh37"},{"matrix":[2.220446049250314e-16,-3.330669073875469e-16,1.0000000000000002,0.0,1.0,2.220446049250313e-16,-2.220446049250313e-16,0.0,-2.2204460492503128e-16,1.0000000000000002,3.3306690738754696e-16,0.0,0.0,0.0,0.0,1.0],"mesh":38,"name":"mesh38"},{"matrix":[2.220446049250314e-16,-3.330669073875469e-16,1.0000000000000002,0.0,1.0,2.220446049250313e-16,-2.220446049250313e-16,0.0,-2.2204460492503128e-16,1.0000000000000002,3.3306690738754696e-16,0.0,0.0,0.0,0.0,1.0],"mesh":39,"name":"mesh39"},{"matrix":[2.220446049250314e-16,-3.330669073875469e-16,1.0000000000000002,0.0,1.0,2.220446049250313e-16,-2.220446049250313e-16,0.0,-2.2204460492503128e-16,1.0000000000000002,3.3306690738754696e-16,0.0,0.0,0.0,0.0,1.0],"mesh":40,"name":"mesh40"},{"matrix":[2.220446049250314e-16,-3.330669073875469e-16,1.0000000000000002,0.0,1.0,2.220446049250313e-16,-2.220446049250313e-16,0.0,-2.2204460492503128e-16,1.0000000000000002,3.3306690738754696e-16,0.0,0.0,0.0,0.0,1.0],"mesh":41,"name":"mesh41"},{"matrix":[2.220446049250314e-16,-3.330669073875469e-16,1.0000000000000002,0.0,1.0,2.220446049250313e-16,-2.220446049250313e-16,0.0,-2.2204460492503128e-16,1.0000000000000002,3.3306690738754696e-16,0.0,0.0,0.0,0.0,1.0],"mesh":42,"name":"mesh42"},{"matrix":[2.220446049250314e-16,-3.330669073875469e-16,1.0000000000000002,0.0,1.0,2.220446049250313e-16,-2.220446049250313e-16,0.0,-2.2204460492503128e-16,1.0000000000000002,3.3306690738754696e-16,0.0,0.0,0.0,0.0,1.0],"mesh":43,"name":"mesh43"},{"matrix":[2.220446049250314e-16,-3.330669073875469e-16,1.0000000000000002,0.0,1.0,2.220446049250313e-16,-2.220446049250313e-16,0.0,-2.2204460492503128e-16,1.0000000000000002,3.3306690738754696e-16,0.0,0.0,0.0,0.0,1.0],"mesh":44,"name":"mesh44"},{"matrix":[2.220446049250314e-16,-3.330669073875469e-16,1.0000000000000002,0.0,1.0,2.220446049250313e-16,-2.220446049250313e-16,0.0,-2.2204460492503128e-16,1.0000000000000002,3.3306690738754696e-16,0.0,0.0,0.0,0.0,1.0],"mesh":45,"name":"mesh45"},{"matrix":[2.220446049250314e-16,-3.330669073875469e-16,1.0000000000000002,0.0,1.0,2.220446049250313e-16,-2.220446049250313e-16,0.0,-2.2204460492503128e-16,1.0000000000000002,3.3306690738754696e-16,0.0,0.0,0.0,0.0,1.0],"mesh":46,"name":"mesh46"},{"matrix":[2.220446049250314e-16,-3.330669073875469e-16,1.0000000000000002,0.0,1.0,2.220446049250313e-16,-2.220446049250313e-16,0.0,-2.2204460492503128e-16,1.0000000000000002,3.3306690738754696e-16,0.0,0.0,0.0,0.0,1.0],"mesh":47,"name":"mesh47"},{"matrix":[2.220446049250314e-16,-3.330669073875469e-16,1.0000000000000002,0.0,1.0,2.220446049250313e-16,-2.220446049250313e-16,0.0,-2.2204460492503128e-16,1.0000000000000002,3.3306690738754696e-16,0.0,0.0,0.0,0.0,1.0],"mesh":48,"name":"mesh48"},{"matrix":[2.220446049250314e-16,-3.330669073875469e-16,1.0000000000000002,0.0,1.0,2.220446049250313e-16,-2.220446049250313e-16,0.0,-2.2204460492503128e-16,1.0000000000000002,3.3306690738754696e-16,0.0,0.0,0.0,0.0,1.0],"mesh":49,"name":"mesh49"},{"camera":0,"matrix":[0.554700196225229,-0.8320502943378435,-7.113684555143346e-18,-0.0,0.3195993709027957,0.21306624726853046,0.9232870714969653,0.0,-0.7682212795973757,-0.5121475197315839,0.38411063979868787,-0.0,-27.119999999999994,-27.119999999999994,20.339999999999996,1.0],"name":"Camera Node"},{"children":[0,1,2,3,4,5,6,7,8,9,10,11,12,13,14,15,16,17,18,19,20,21,22,23,24,25,26,27,28,29,30,31,32,33,34,35,36,37,38,39,40,41,42,43,44,45,46,47,48,49,50],"name":"Renderer Node"}],"scene":0,"scenes":[{"name":"Layer 0","nodes":[51]}]}